<?xml version="1.0" encoding="utf-8"?>
<!-- Generator: Adobe Illustrator 25.2.0, SVG Export Plug-In . SVG Version: 6.00 Build 0)  -->
<svg version="1.1" id="Layer_1" xmlns="http://www.w3.org/2000/svg" xmlns:xlink="http://www.w3.org/1999/xlink" x="0px" y="0px"
	 viewBox="0 0 122.4 169.8" style="enable-background:new 0 0 122.4 169.8;" xml:space="preserve">
<style type="text/css">
	.st0{fill:#2D7323;}
	.st1{fill:#0D3A25;}
	.st2{fill:#91B820;}
</style>
<g>
	<path class="st0" d="M14.3,164.3l7.3-20c0,0-26.7-25.4-20.7-74.6C6.8,20.5,7.8,12.6,40.5,4.6c32.7-8,64-7,75.9,15.4
		c11.8,22.4,3.8,36.3-4.4,45.8c-8.3,9.5-12.7,14.5-13.5,19.6c-0.8,5,0.5,23.4-18,34.2c-32.6,19-37.3,12.5-51.1,50.4L14.3,164.3z"/>
	<path class="st1" d="M25.5,147c2.7-33,11.8-62.3,27.1-87.2c12.5-20.3,26-32.5,33.3-39c0.7-0.6,1.3-1.2,1.9-1.7l5.5,6
		c-0.6,0.5-1.2,1.1-1.9,1.7c-6.9,6.3-19.9,17.9-31.8,37.2c-14.7,23.7-23.4,51.8-26,83.5L25.5,147L25.5,147z"/>
	<path class="st2" d="M32.5,142.2C10.4,128.3,0,85,0.9,69.7c-5.9,49.2,20.8,74.6,20.8,74.6l-7.3,20l15,5.5
		c13.8-37.8,18.5-31.4,51.1-50.4c4.2-2.5,7.4-5.3,9.9-8.3C66,122,46.9,102.7,32.5,142.2L32.5,142.2z"/>
</g>
</svg>
