<?xml version="1.0" encoding="utf-8"?>
<!-- Generator: Adobe Illustrator 27.5.0, SVG Export Plug-In . SVG Version: 6.00 Build 0)  -->
<svg version="1.1" id="Capa_2" xmlns="http://www.w3.org/2000/svg" xmlns:xlink="http://www.w3.org/1999/xlink" x="0px" y="0px"
	 viewBox="0 0 1975 2279" style="enable-background:new 0 0 1975 2279;" xml:space="preserve">
<path style="fill:#FBB920;" d="M1236.851,541.565c1.439-3.469,2.805-6.969,4.096-10.497c14.582-29.028,24.193-60.553,28.217-92.79
	c2.485-19.911,2.575-41.275-7.477-58.641c-15.301-26.432-51.064-35.734-80.533-27.712c-28.483,7.753-51.685,28.348-70.49,51.205
	c-2.784-31.162-9.307-61.848-20.323-91.268c-10.71-28.601-26.497-56.742-51.962-73.604c-25.465-16.861-62.34-19.248-85.161,1.049
	c-14.993,13.336-21.608,33.649-25.495,53.335c-5.983,30.305-6.968,61.583-2.976,92.212c0.508,3.893-4.496,5.826-6.86,2.691
	c-42.974-57.007-185.069-110.156-191.023-20.879c-1.263,18.941,4.574,37.603,14.906,53.527
	c6.913,10.656,14.269,20.947,21.957,30.967c0.982,1.744,2.02,3.461,3.115,5.143c7.355,11.354,15.27,22.261,23.565,32.855
	c-1.121,1.186-2.93,1.721-4.758,0.75c-4.382-2.327-8.822-4.556-13.321-6.684c-31.877-15.078-68.183-25.002-102.396-12.888
	c-14.445,5.115-27.205,14.523-35.879,27.155c-20.784,30.27-7.948,60.322,8.217,85.225c21.484,33.1,49.929,61.658,82.942,83.275
	c-54.756-35.853-246.443,34.433-172.534,113.05c11.371,12.096,26.324,20.336,42.485,24.134c9.875,2.32,19.792,4.269,29.742,5.924
	c2.038,0.648,4.104,1.219,6.191,1.706c40.622,9.539,82.047,12.325,123.58,14.255c36.388,1.661,72.883,2.68,109.004,6.86
	c26.623,3.074,53.614,8.272,79.355,16.491c-20.234,2.384-45.804,17.132-31.605,33.286c4.777,5.435,12.26,7.523,19.385,8.779
	c20.809,3.669,42.171,2.501,63.161,4.932c16.359,1.895,33.18,6.445,46.334,15.941c10.413,54.009,17.831,108.596,22.395,163.41
	c6.883,82.669,7.165,165.85,1.22,248.586c-1.039,14.463-2.274,28.91-3.697,43.338c-16.454-18.278-32.036-37.299-46.694-56.99
	l-0.064-1.148c-0.046-0.829-0.093-1.658-0.144-2.487l-0.09-1.42c-0.056-0.856-0.115-1.713-0.176-2.568l-0.088-1.229
	c-0.076-1.013-0.156-2.026-0.24-3.039l-0.063-0.776c-0.223-2.647-0.472-5.291-0.748-7.932l-0.019-0.178
	c-0.129-1.234-0.265-2.468-0.405-3.701l-0.08-0.684c-0.127-1.095-0.258-2.189-0.394-3.283l-0.085-0.678
	c-0.141-1.119-0.287-2.237-0.437-3.355l-0.077-0.569c-0.17-1.25-0.345-2.498-0.526-3.747l-0.014-0.099
	c-0.785-5.386-1.68-10.757-2.681-16.109l-0.003-0.016c-0.248-1.324-0.502-2.647-0.763-3.969l-0.008-0.039h-0.001
	c-10.348-52.385-30.995-102.749-60.679-147.144c-41.815-62.537-101.424-113.032-169.985-143.995
	c-1.318,36.756,4.614,72.633,16.479,106.588l0.018,0.053c0.54,1.544,1.092,3.085,1.656,4.622l0.009,0.023
	c1.417,3.855,2.91,7.685,4.477,11.488l0.018,0.044c0.625,1.516,1.262,3.026,1.911,4.533l0.01,0.023
	c0.969,2.25,1.965,4.491,2.985,6.721l0.049,0.107c0.673,1.468,1.356,2.93,2.05,4.389l0.063,0.131
	c1.051,2.206,2.128,4.402,3.23,6.587l0.024,0.048c0.725,1.437,1.46,2.87,2.207,4.297l0.112,0.214
	c0.747,1.427,1.504,2.848,2.272,4.266l0.032,0.058c0.368,0.68,0.74,1.357,1.113,2.035l0.098,0.177
	c0.764,1.386,1.54,2.767,2.324,4.143l0.152,0.266c0.786,1.376,1.581,2.747,2.387,4.113l0.11,0.186
	c0.38,0.644,0.762,1.286,1.147,1.927l0.097,0.163c0.813,1.355,1.636,2.705,2.469,4.05l0.179,0.29
	c0.825,1.331,1.66,2.657,2.504,3.978l0.195,0.304c0.404,0.63,0.808,1.258,1.216,1.885l0.04,0.062
	c0.436,0.671,0.875,1.342,1.316,2.011l0.138,0.209c0.396,0.601,0.795,1.201,1.196,1.799l0.165,0.248
	c0.884,1.319,1.778,2.633,2.681,3.942l0.153,0.221c0.44,0.638,0.883,1.274,1.327,1.909l0.037,0.053
	c0.464,0.662,0.931,1.323,1.4,1.982l0.114,0.161c0.429,0.602,0.859,1.203,1.292,1.803l0.155,0.215
	c0.466,0.645,0.932,1.288,1.402,1.931l0.077,0.104c0.448,0.611,0.898,1.221,1.349,1.83l0.169,0.227
	c0.954,1.284,1.917,2.562,2.888,3.834l0.156,0.204c0.451,0.59,0.905,1.18,1.36,1.767l0.123,0.159c0.5,0.644,1.001,1.287,1.505,1.928
	l0.031,0.038c0.482,0.614,0.967,1.226,1.453,1.837l0.161,0.203c0.502,0.629,1.004,1.257,1.51,1.883
	c27.003,33.415,56.419,61.338,87.79,87.629c0.871,0.73,1.744,1.46,2.619,2.188c19.516,16.246,39.78,31.906,60.679,47.901
	c17.987,25.135,37.447,49.23,58.259,72.133c-6.806,63.8-17.368,127.187-31.711,189.736
	c-11.761,51.287-26.031,102.012-42.908,151.852c-18.712-19.005-36.605-38.81-53.61-59.347l-0.098-0.785
	c-0.066-0.526-0.135-1.052-0.203-1.578c-0.087-0.677-0.175-1.354-0.266-2.031c-0.068-0.503-0.138-1.006-0.208-1.509
	c-0.098-0.711-0.197-1.423-0.3-2.133l-0.206-1.399c-0.108-0.734-0.218-1.468-0.331-2.203l-0.214-1.379
	c-0.118-0.752-0.238-1.505-0.36-2.256l-0.211-1.279c-0.129-0.781-0.261-1.561-0.395-2.34l-0.212-1.219
	c-0.142-0.811-0.287-1.622-0.435-2.433l-0.202-1.104c-0.158-0.856-0.319-1.712-0.482-2.566l-0.184-0.961
	c-0.174-0.898-0.351-1.794-0.531-2.69l-0.174-0.867c-0.189-0.931-0.382-1.86-0.577-2.789l-0.161-0.769
	c-0.206-0.97-0.416-1.939-0.63-2.908l-0.139-0.639c-0.236-1.063-0.476-2.125-0.72-3.187l-0.06-0.261l0-0.001
	c-12.474-54.046-36.007-105.553-68.979-150.168c-44.71-60.501-106.628-108.136-176.57-135.84c0.045,4.034,0.179,8.053,0.395,12.056
	l0.005,0.1c0.061,1.114,0.128,2.226,0.202,3.337l0.01,0.151c0.073,1.097,0.153,2.193,0.239,3.288l0.015,0.19
	c0.087,1.091,0.18,2.18,0.279,3.267l0.017,0.192c0.1,1.093,0.207,2.185,0.32,3.276l0.016,0.154c0.114,1.091,0.233,2.18,0.359,3.268
	l0.022,0.189c0.126,1.078,0.257,2.155,0.395,3.23l0.027,0.206c0.139,1.084,0.285,2.167,0.437,3.248l0.019,0.137
	c0.154,1.096,0.315,2.191,0.482,3.283l0.019,0.121c0.167,1.092,0.341,2.182,0.521,3.272l0.022,0.137
	c0.179,1.081,0.364,2.161,0.555,3.238l0.031,0.174c0.192,1.082,0.391,2.162,0.596,3.241l0.017,0.088
	c0.209,1.099,0.424,2.196,0.646,3.292l0.012,0.062c0.223,1.102,0.452,2.203,0.688,3.302l0.011,0.05
	c1.917,8.923,4.249,17.734,6.975,26.419l0.009,0.028c0.334,1.063,0.674,2.124,1.019,3.183l0.033,0.1
	c0.348,1.065,0.702,2.128,1.062,3.19l0.011,0.031c0.361,1.065,0.728,2.126,1.101,3.187l0.019,0.055
	c0.367,1.043,0.74,2.085,1.118,3.124l0.047,0.13c0.374,1.024,0.752,2.046,1.136,3.065l0.058,0.154
	c0.383,1.017,0.773,2.031,1.167,3.044l0.06,0.154c0.395,1.014,0.796,2.026,1.203,3.037l0.058,0.144
	c0.408,1.013,0.822,2.024,1.24,3.033l0.053,0.127c0.413,0.995,0.832,1.987,1.255,2.978l0.103,0.241
	c0.422,0.984,0.849,1.966,1.281,2.947l0.068,0.152c0.433,0.983,0.872,1.964,1.317,2.943l0.104,0.229
	c0.444,0.976,0.893,1.951,1.346,2.923l0.067,0.144c0.469,1.003,0.943,2.003,1.422,3.001l0.018,0.038
	c0.485,1.011,0.977,2.02,1.473,3.026l0.047,0.094c1,2.025,2.02,4.04,3.062,6.046l0.032,0.06c3.682,7.08,7.629,14.039,11.829,20.867
	l0.046,0.074c0.572,0.93,1.149,1.856,1.731,2.781l0.124,0.197c0.583,0.925,1.169,1.848,1.76,2.767l0.076,0.118
	c0.583,0.906,1.171,1.809,1.763,2.71l0.163,0.248c0.576,0.875,1.156,1.748,1.741,2.618l0.186,0.279
	c0.592,0.88,1.189,1.758,1.789,2.633l0.139,0.203c0.602,0.875,1.208,1.749,1.818,2.62l0.175,0.249c0.61,0.869,1.224,1.736,1.842,2.6
	l0.16,0.222c0.627,0.875,1.258,1.747,1.893,2.617l0.128,0.176c0.638,0.872,1.28,1.741,1.926,2.608l0.157,0.21
	c0.637,0.853,1.276,1.702,1.921,2.549l0.192,0.253c0.64,0.84,1.284,1.676,1.931,2.511l0.2,0.257
	c0.645,0.831,1.294,1.659,1.947,2.484l0.207,0.26c0.659,0.831,1.321,1.658,1.987,2.484l0.17,0.21
	c0.677,0.837,1.357,1.672,2.041,2.503l0.155,0.187c0.697,0.846,1.398,1.69,2.104,2.53l0.076,0.09c1.479,1.761,2.976,3.51,4.49,5.246
	l0.006,0.006c0.765,0.877,1.534,1.75,2.308,2.621c50.747,57.081,108.295,96.462,171.09,139.939v-0.001v0.001l-0.026-0.315
	l1.035,1.227c15.095,17.823,30.881,35.045,47.275,51.678c-8.258,23.812-17.116,47.415-26.587,70.774
	c-29.936,73.827-65.836,145.389-108.21,212.88c-5.19,8.267-10.482,16.469-15.855,24.619c-2.139,3.244-2.88,7.904-0.667,11.349
	c1.823,2.838,5.785,3.624,7.87,0.462c44.426-67.374,82.562-138.775,114.419-212.912c26.546-61.779,48.861-125.389,67.034-190.135
	l0.661-0.439c22.605-18.411,44.16-38.051,64.594-58.784c20.084-10.23,39.665-20.212,58.781-30.51
	c0.898-0.483,1.794-0.967,2.69-1.452c5.682-3.077,11.323-6.183,16.922-9.337c0.992-0.558,1.981-1.117,2.97-1.679
	c6.922-3.928,13.783-7.929,20.584-12.033c1.943-1.173,3.881-2.354,5.815-3.544c4.455-2.742,8.882-5.533,13.285-8.379
	c0.752-0.487,1.504-0.974,2.255-1.464c3.439-2.241,6.863-4.516,10.271-6.832c1.6-1.087,3.195-2.184,4.787-3.289
	c7.414-5.141,14.756-10.478,22.028-16.049c1.117-0.856,2.232-1.716,3.346-2.583l1.211-0.945c3.316-2.596,6.618-5.244,9.906-7.947
	c2.901-2.385,5.793-4.811,8.673-7.286l0.118-0.103c0.834-0.717,1.666-1.438,2.493-2.162l1.001-0.884
	c0.542-0.478,1.085-0.955,1.624-1.436l1.062-0.955c0.506-0.455,1.012-0.909,1.516-1.367l1.101-1.008
	c0.49-0.449,0.98-0.898,1.468-1.349l1.114-1.04l1.421-1.333l1.11-1.055l1.411-1.349l1.121-1.085l1.347-1.314l1.153-1.138
	l1.286-1.279l1.208-1.214l1.211-1.228l1.203-1.232l1.215-1.258l1.175-1.226l1.201-1.267l1.19-1.267l1.123-1.209l1.238-1.342
	l1.017-1.118c0.44-0.484,0.88-0.968,1.317-1.455l0.953-1.069c0.439-0.494,0.88-0.987,1.316-1.483l0.93-1.065
	c0.446-0.511,0.893-1.021,1.336-1.534l0.757-0.886c2.491-2.907,4.931-5.852,7.317-8.833l0.558-0.695
	c0.494-0.621,0.983-1.245,1.473-1.869l0.621-0.79c0.48-0.615,0.956-1.234,1.431-1.853l0.651-0.846
	c0.448-0.588,0.893-1.176,1.337-1.766l0.726-0.966c0.441-0.59,0.878-1.182,1.315-1.775l0.691-0.939
	c0.443-0.605,0.883-1.213,1.322-1.821l0.653-0.907c0.449-0.626,0.893-1.255,1.337-1.883l0.605-0.86
	c0.45-0.642,0.897-1.286,1.342-1.931l0.567-0.824c0.452-0.66,0.902-1.321,1.349-1.983l0.525-0.783
	c0.462-0.689,0.921-1.38,1.378-2.072l0.433-0.66c0.475-0.724,0.947-1.448,1.415-2.176l0.384-0.601
	c0.482-0.751,0.961-1.503,1.436-2.258l0.299-0.479c0.502-0.801,1.002-1.604,1.496-2.409l0.154-0.252
	c5.136-8.378,9.873-16.983,14.181-25.798l0.039-0.079c0.455-0.93,0.903-1.863,1.348-2.799l0.11-0.231
	c0.436-0.919,0.867-1.84,1.294-2.764l0.115-0.25c0.424-0.919,0.843-1.84,1.258-2.764l0.119-0.265
	c0.416-0.928,0.826-1.859,1.233-2.792l0.101-0.231c0.409-0.942,0.814-1.886,1.213-2.832l0.085-0.203
	c0.407-0.967,0.81-1.935,1.207-2.906l0.036-0.089c6.243-15.285,11.215-31.134,14.776-47.469l0.005-0.025
	c1.371-6.296,2.539-12.664,3.483-19.101c-73.023,18.086-140.764,56.998-193.176,110.964
	c-35.564,36.619-63.991,80.093-83.575,127.227l-0.057,0.136c-1.334,3.213-2.626,6.444-3.877,9.69l-0.16,0.416
	c-0.293,0.762-0.584,1.525-0.872,2.289l-0.009,0.023c-0.616,1.632-1.22,3.269-1.815,4.908l-0.046,0.124
	c-0.255,0.704-0.507,1.41-0.758,2.115l-0.256,0.721c-0.242,0.683-0.482,1.365-0.72,2.049l-0.266,0.772
	c-0.425,1.231-0.845,2.464-1.258,3.699l-0.278,0.83c-0.198,0.594-0.393,1.19-0.587,1.785l-0.385,1.183
	c-0.183,0.564-0.364,1.128-0.544,1.692l-0.414,1.309c-0.252,0.801-0.503,1.603-0.75,2.406c-0.19,0.616-0.38,1.231-0.567,1.847
	c-0.154,0.508-0.305,1.017-0.457,1.526c-0.15,0.503-0.3,1.005-0.448,1.508c-0.147,0.5-0.293,1-0.438,1.501
	c-0.159,0.548-0.316,1.097-0.473,1.645l-0.382,1.341c-0.266,0.945-0.529,1.891-0.789,2.838l-0.264,0.975
	c-0.191,0.703-0.38,1.406-0.566,2.109l-0.309,1.174c-0.174,0.664-0.346,1.328-0.517,1.993l-0.067,0.262
	c-18.838,19.208-38.649,37.48-59.368,54.72c2.536-9.42,4.988-18.861,7.349-28.324c20.329-81.455,34.268-164.541,41.913-248.142
	c2.658-29.065,4.539-58.201,5.645-87.365c17.794-20.448,34.387-41.883,49.701-64.184c10.971-8.385,21.772-16.654,32.387-24.936
	c0.911-0.711,1.822-1.423,2.731-2.134c1.417-1.11,2.831-2.22,4.242-3.331c1.303-1.026,2.604-2.052,3.901-3.08
	c1.801-1.427,3.597-2.855,5.386-4.286c1.069-0.855,2.135-1.71,3.2-2.567c2.501-2.012,4.991-4.029,7.469-6.053
	c1.767-1.443,3.527-2.89,5.282-4.341c3.107-2.57,6.195-5.154,9.264-7.755c1.264-1.071,2.527-2.144,3.784-3.221
	c0.977-0.838,1.952-1.677,2.926-2.518c2.359-2.04,4.708-4.09,7.044-6.155c1.399-1.237,2.794-2.48,4.185-3.728
	c1.245-1.116,2.487-2.235,3.724-3.36c7.562-6.874,14.995-13.917,22.29-21.189l0.006-0.006c2.429-2.422,4.844-4.869,7.243-7.345
	c0.8-0.826,1.599-1.655,2.396-2.487c0.844-0.882,1.686-1.767,2.526-2.656c9.471-10.016,18.692-20.494,27.649-31.577
	c6.629-8.204,12.886-16.658,18.741-25.338l0.649-0.967c1.42-2.12,2.816-4.253,4.188-6.399l0.692-1.087
	c0.399-0.628,0.794-1.258,1.189-1.888c0.552-0.882,1.099-1.767,1.643-2.654c0.988-1.611,1.961-3.231,2.921-4.857l0.739-1.257
	c0.346-0.591,0.69-1.183,1.032-1.776l0.749-1.305c1.491-2.612,2.946-5.241,4.365-7.887c0.26-0.483,0.518-0.967,0.775-1.452
	c0.563-1.062,1.12-2.128,1.672-3.195c0.262-0.508,0.523-1.017,0.782-1.526c2.39-4.686,4.666-9.421,6.823-14.203
	c0.266-0.589,0.53-1.18,0.793-1.771c0.917-2.066,1.812-4.14,2.685-6.224c0.264-0.63,0.526-1.262,0.786-1.894l0.543-1.327
	c0.263-0.647,0.523-1.295,0.782-1.943c0.816-2.048,1.612-4.104,2.384-6.166c0.876-2.339,1.725-4.688,2.544-7.045l0.345-0.998
	c1.235-3.593,2.404-7.207,3.504-10.841l0.268-0.891c0.236-0.788,0.468-1.576,0.698-2.365l0.281-0.971
	c1.364-4.752,2.613-9.536,3.741-14.352l0.184-0.794c1.66-7.17,3.054-14.407,4.172-21.703l0.08-0.528
	c2.613-17.27,3.675-34.864,3.037-52.664h0l-0.732,0.334l-0.188,0.086c-68.174,30.999-127.437,81.319-169.065,143.576
	c-31.757,47.494-53.17,101.82-62.696,158.143l-0.002,0.014c-1.291,7.634-2.365,15.305-3.214,23l-0.012,0.109
	c-0.13,1.184-0.256,2.369-0.376,3.555l-0.067,0.678c-0.101,1.014-0.199,2.028-0.292,3.042l-0.079,0.885
	c-0.083,0.923-0.163,1.847-0.239,2.771l-0.091,1.123c-0.069,0.869-0.135,1.737-0.199,2.606l-0.086,1.189
	c-0.06,0.86-0.117,1.721-0.172,2.582l-0.073,1.159l-0.036,0.57c-13.39,19.232-27.753,37.797-43.033,55.608
	c1.478-50.458,0.633-100.985-2.541-151.367c-3.989-63.325-11.795-126.383-23.497-188.727c6.838-17.418,21.832-31.016,37.81-41.187
	c17.825-11.348,37.555-19.618,54.677-32.001c5.863-4.24,11.685-9.384,13.611-16.359c5.405-19.568-20.525-22.547-39.638-17.197
	c19.591-18.649,41.629-35.122,64.255-49.523c1.042-0.664,2.087-1.325,3.133-1.983l1.43-0.893c0.562-0.352,1.124-0.704,1.687-1.053
	c0.546-0.339,1.092-0.674,1.638-1.011c0.513-0.317,1.026-0.634,1.54-0.95c0.652-0.4,1.305-0.797,1.959-1.195l1.123-0.685
	c0.842-0.511,1.685-1.018,2.529-1.525l0.571-0.344c0.851-0.511,1.705-1.02,2.559-1.528l0.615-0.366
	c0.962-0.571,1.927-1.14,2.891-1.707l0.171-0.101c59.822-35.153,124.094-63.127,178.209-107.077
	c4.228-3.448,8.109-7.303,11.563-11.498c4.352-3.275,8.653-6.63,12.895-10.077c12.884-10.469,22.742-24.409,27.695-40.254
	C1466.095,477.785,1283.473,491.571,1236.851,541.565z"/>
<path style="fill:#77997E;" d="M1285.426,1061.675c48.005-59.405,76.525-131.942,73.789-208.27
	c-68.561,30.964-128.17,81.459-169.985,143.996c-41.815,62.537-65.703,136.917-68.121,212.107
	C1181.788,1163.124,1237.421,1121.08,1285.426,1061.675z"/>
<path style="fill:#77997E;" d="M1184.456,1395.601c-52.411,53.966-89.328,122.815-105.272,196.335
	c68.052-34.674,130.358-65.991,188.293-115.76c57.935-49.769,99.074-115.969,110.154-191.539
	C1304.609,1302.723,1236.868,1341.634,1184.456,1395.601z"/>
<path style="fill:#77997E;" d="M1013.869,1317.633c-2.418-75.19-26.306-149.57-68.121-212.107
	c-41.815-62.537-101.424-113.032-169.985-143.995c-2.736,76.328,25.784,148.864,73.789,208.269S953.189,1271.25,1013.869,1317.633z"
	/>
<path style="fill:#77997E;" d="M854.391,1470.435c-44.711-60.501-106.629-108.136-176.57-135.84
	c0.858,76.373,32.758,147.487,83.504,204.568c50.746,57.081,108.295,96.462,171.09,139.939
	C926.462,1604.11,899.102,1530.936,854.391,1470.435z"/>
<path style="fill:#F7A813;" d="M591.813,788.461c-68.435-72.776,109.004-137.836,159.701-104.609
	c-30.6-20.043-56.913-46.463-76.796-77.117c-14.952-23.044-26.849-50.858-7.61-78.886c8.039-11.683,19.829-20.365,33.226-25.134
	c31.672-11.201,65.274-2.036,94.749,11.951c4.18,1.983,8.307,4.019,12.38,6.163c3.591,1.929,7.181-2.572,4.448-5.681
	c-7.369-8.492-14.569-17.131-21.504-25.988c-1.121,1.186-2.93,1.721-4.759,0.75c-4.381-2.326-8.821-4.556-13.319-6.684
	c-31.877-15.079-68.183-25.002-102.397-12.888c-14.445,5.115-27.205,14.523-35.879,27.155c-20.785,30.27-7.949,60.322,8.217,85.225
	c21.484,33.1,49.929,61.658,82.942,83.275c-54.756-35.854-246.443,34.433-172.534,113.05c11.371,12.096,26.323,20.336,42.485,24.133
	c9.873,2.32,19.789,4.269,29.739,5.924C612.346,805.112,600.85,798.097,591.813,788.461z"/>
<path style="fill:#F7A813;" d="M1236.851,541.566c-4.915,11.851-10.688,23.344-17.276,34.354
	c4.019-6.699,10.611-12.808,19.025-18.221c8.414-5.466,18.703-10.236,30.011-14.041c44.963-15.22,105.949-16.024,131.458,8.682
	c11.2,10.772,15.595,26.474,8.842,48.017c-2.936,9.465-7.79,18.194-14.054,25.801c4.351-3.275,8.653-6.63,12.896-10.077
	c12.885-10.469,22.742-24.409,27.695-40.254C1466.095,477.785,1283.473,491.571,1236.851,541.566z"/>
<path style="fill:#F7A813;" d="M753.014,406.788c5.52-82.637,137.032-33.441,176.85,19.293c2.144,2.894,6.806,1.125,6.324-2.465
	c-3.698-28.349-2.787-57.342,2.733-85.37c3.644-18.221,9.753-37.031,23.633-49.357c21.115-18.81,55.252-16.613,78.832-0.965
	c23.58,15.595,38.157,41.64,48.071,68.114c10.236,27.224,16.238,55.627,18.81,84.459c17.417-21.115,38.907-40.193,65.274-47.374
	c27.278-7.449,60.397,1.179,74.545,25.67c9.271,16.077,9.218,35.852,6.913,54.234c-2.458,19.808-7.2,39.313-14.052,58.043
	c14.583-29.028,24.194-60.554,28.217-92.79c2.485-19.912,2.575-41.275-7.477-58.641c-15.301-26.432-51.064-35.734-80.533-27.712
	c-28.482,7.753-51.686,28.348-70.49,51.205c-2.785-31.162-9.307-61.847-20.323-91.267c-10.71-28.602-26.497-56.743-51.962-73.604
	c-25.465-16.861-62.34-19.248-85.161,1.049c-14.993,13.336-21.609,33.65-25.496,53.335c-5.983,30.305-6.968,61.583-2.976,92.212
	c0.508,3.893-4.496,5.826-6.86,2.691c-42.975-57.007-185.069-110.156-191.023-20.879c-1.263,18.941,4.574,37.603,14.906,53.527
	c6.913,10.656,14.269,20.948,21.957,30.967C756.102,437.624,751.97,422.312,753.014,406.788z"/>
<path style="fill:#FFDD51;" d="M1286.928,686.863c-4.622-15.974-20.292-24.598-34.881-29.985
	c-12.78-4.719-26.606-6.99-35.975-16.751c-20.944,16.42-40.383,34.843-57.888,54.942c-2.41,8.864-5.621,17.442-9.605,25.661
	c8.872-7.565,18.582-14.077,29.102-19.473c2.976-1.526,2.86,4.749,2.401,6.056c-10.155,28.907-26.226,55.16-47.201,77.479
	c-2.711,2.885-4.087-4.904-2.048-7.074c17.935-19.085,32.018-41.25,41.791-65.452c-13.954,7.974-26.46,18.15-37.073,30.298
	c-3.224,3.69-4.863-3.44-3.107-5.877c6.994-9.706,12.649-20.113,16.897-31.122c-15.811,19.415-29.848,40.26-41.754,62.261
	c0.879,0.894,1.655,1.897,2.299,3.01c2.806,4.847,2.781,10.81,2.087,16.368c-1.364,10.929-5.03,21.567-10.687,31.016
	c2.762-4.612,9.62-8.361,17.697-10.621c19.591-18.649,41.629-35.123,64.255-49.523c1.042-0.664,2.087-1.325,3.133-1.983l1.43-0.893
	c0.562-0.352,1.124-0.704,1.687-1.054c0.546-0.339,1.092-0.674,1.638-1.011c0.513-0.317,1.026-0.635,1.54-0.95
	c0.652-0.4,1.305-0.798,1.959-1.195l1.123-0.684c0.841-0.511,1.685-1.018,2.529-1.525l0.571-0.344
	c0.852-0.511,1.705-1.019,2.559-1.527l0.615-0.367c0.962-0.571,1.926-1.14,2.891-1.707l0.172-0.101
	c1.52-0.893,3.044-1.781,4.569-2.665l0.877-0.509c1.329-0.768,2.661-1.533,3.994-2.296c0.524-0.3,1.047-0.6,1.571-0.898
	c1.139-0.649,2.28-1.296,3.421-1.941c0.796-0.45,1.593-0.899,2.391-1.348l0.625-0.35c21.814-12.248,44.02-23.859,65.942-35.903
	C1288.525,694.815,1288.068,690.804,1286.928,686.863z"/>
<path style="fill:#FFDD51;" d="M1032.602,640.591c1.62,5.649,1.581,12.827,1.87,16.395c0.905,11.165,1.811,22.329,2.716,33.494
	c1.761-8.363,4.035-16.613,6.872-24.717c2.697-7.704,7.652-28.031,18.454-28.488c11.549-0.49,9.932,19.564,9.816,26.529
	c-0.057,3.366-0.241,6.719-0.545,10.055c1.291-2.566,2.652-5.1,4.093-7.597c3.777-6.545,8.038-12.837,12.795-18.712
	c3.006-3.712,7.076-8.784,12.445-7.811c10.816,1.958,5.214,18.849,3.582,25.11c-2.248,8.625-4.496,17.25-6.744,25.875
	c9.764-16.049,22.439-30.182,37.545-41.65c2.336-1.774,3.638,1.876,3.457,3.68c-1.791,17.825-6.489,35.066-13.953,51.115
	c8.506-7.578,17.953-14.043,28.214-19.282c17.291-19.379,36.346-37.184,56.81-53.204c-5.238-10.681-5.313-22.983-7.316-34.545
	c-2.676-15.455-10.943-27.46-26.617-32.057c-18.613-5.459-39.745-2.361-55.412-15.84c-15.178-13.058-16.241-33.5-22.818-51.095
	c-6.395-17.108-20.669-28.959-39.439-25.069c-5.487,1.137-10.794,3.097-15.885,5.616c-0.894,5.992-1.731,11.993-2.501,18.004
	C1033.921,544.152,1031.399,592.422,1032.602,640.591z"/>
<path style="fill:#FFDD51;" d="M893.773,653.278c2.354-1.565,5.254-2.072,8.293-0.781c7.285,3.093,12.21,13.809,16.557,19.896
	c7.388,10.346,14.777,20.693,22.165,31.039c-3.727-9.624-6.918-19.436-8.98-29.572c-2.113-10.384-6.401-31.086,5.49-37.93
	c14.534-8.364,23.076,22.627,26.412,30.905c2.715,6.737,5.252,13.54,7.618,20.398c-0.118-3.301-0.139-6.61-0.056-9.925
	c0.206-8.299,1.027-16.628,2.54-24.794c0.91-4.915,2.367-10.637,6.375-14.029c11.978-10.139,15.495,15.205,16.892,21.21
	c2.839,12.205,5.678,24.41,8.518,36.615c0.672-10.328,1.782-20.622,3.346-30.868c1.375-9.005,1.631-29.031,12.809-32.385
	c-0.836-49.363,2.203-98.801,9.035-147.698c-5.915,4.062-11.449,8.67-16.531,13.309c-13.39,12.222-24.956,26.348-41.641,34.351
	c-14.345,6.879-29.696,7.902-45.344,6.457c-18.979-1.752-38.053-7.914-57.201-5.527c-18.493,2.305-33.742,13.195-43.277,29.025
	c-4.255,7.065-6.988,14.347-8.797,21.803c5.422,4.387,10.795,8.834,16.115,13.345C854.788,615.65,874.674,634.073,893.773,653.278z"
	/>
<path style="fill:#FFDD51;" d="M837.313,741.609c2.224,6.705,5.618,12.762,9.807,18.302c8.568,2.982,17.067,6.162,25.492,9.534
	C860.845,760.167,849.079,750.888,837.313,741.609z"/>
<path style="fill:#FFDD51;" d="M960.148,850.763c-9.214-6.034-17.154-14.005-23.151-23.244c-3.049-4.697-5.674-10.051-5.265-15.637
	c0.069-0.944,0.232-1.864,0.47-2.758c-4.34-2.348-8.707-4.647-13.104-6.891c-15.716-8.023-31.78-15.356-48.132-21.951
	c7.052,4.994,13.859,10.354,20.404,16.068c1.869,1.632,0.621,9.11-2.307,7.224c-11.308-7.289-22.884-15.074-32.794-24.233
	c-7.618-4.715-15.496-9.014-23.606-12.893c14.461,24.74,40.041,40.777,64.158,55.474c2.715,1.654,1.238,9.482-1.749,7.661
	c-27.471-16.741-56.706-35.36-70.342-65.719c-32.975-10.15-66.84-17.291-101.141-21.057c-6.171,7.467-11.272,15.766-15.141,25.185
	c-6.953,16.929-9.528,35.914-6.628,53.654c17.564,1.583,35.197,2.597,52.854,3.417c36.388,1.661,72.883,2.68,109.004,6.86
	c26.622,3.075,53.613,8.273,79.354,16.491C949.971,847.597,956.283,848.232,960.148,850.763z"/>
<path style="fill:#FFDD51;" d="M838.045,756.838c-3.748-6.749-6.459-14.176-7.751-22.457c-0.328-2.102,1.229-6.381,3.84-4.321
	c7.099,5.598,14.197,11.196,21.296,16.794c-7.85-12.091-13.984-25.336-18.126-39.356c-0.602-2.039,0.614-7.747,3.652-5.294
	c11.877,9.588,23.754,19.176,35.631,28.764c-1.257-1.772-2.485-3.567-3.683-5.384c-6.669-10.12-18.973-26.358-14.606-39.445
	c6.227-18.661,24.739,3.95,30.441,10.228c5.55,6.111,11.1,12.221,16.65,18.332c-1.748-3.354-3.407-6.756-4.969-10.208
	c-3.607-7.97-6.749-16.166-9.361-24.516c-1.682-5.38-3.653-11.377-2.84-17.093c-22.998-23.25-47.144-45.357-72.41-66.105
	c-1.37,10.474-1.598,21.232-2.232,32.159c-1.25,21.569-6.15,40.761-21.334,56.798c-14.219,15.016-32.301,25.571-48.614,38.049
	c-3.854,2.949-7.495,6.027-10.906,9.267c2.962,0.366,5.921,0.755,8.878,1.169C774.421,738.815,806.669,746.491,838.045,756.838z"/>
<path style="fill:#FFDD51;" d="M904.134,663.195c-0.941-0.992-2.129-2.264-3.423-2.871c2.185,2.241,4.36,4.491,6.523,6.752
	C906.27,665.71,905.26,664.382,904.134,663.195z"/>
<path style="fill:#FFDD51;" d="M892.945,667.69c0.229,2.997,2.107,7.08,2.904,9.579c1.051,3.294,2.181,6.564,3.396,9.801
	c2.593,6.914,5.601,13.675,8.935,20.263c6.486,12.813,14.32,24.845,23.276,36.065c1.787,2.238-0.041,9.892-2.863,6.785
	c-10.976-12.085-21.952-24.169-32.927-36.254c-5.34-5.879-10.68-11.758-16.019-17.638c-3.011-3.315-17.184-16.505-17.182-4.184
	c0.002,6.072,5.373,13.307,8.272,18.357c3.628,6.321,7.636,12.424,12.006,18.257c8.17,10.903,17.552,20.79,27.849,29.697
	c2.293,1.983,0.414,9.43-2.863,6.785l-62.084-50.119c7.399,18.952,18.774,36.078,33.218,50.248
	c6.232,4.914,12.465,9.829,18.697,14.744c13.73,6.211,27.238,12.925,40.495,20.102c2.971-2.548,6.693-4.344,10.527-5.064
	c8.378-1.575,17.011,0.991,24.717,4.636c3.356,1.587,6.595,3.377,9.716,5.346c-5.167-5.659-10.15-11.465-14.637-17.678
	c-4.237-5.865-8.151-12.576-7.793-19.802c0.346-6.982,3.604-10.93,8.399-12.654c-1.915-2.46-3.839-4.912-5.776-7.354
	C941.165,719.82,917.731,693.091,892.945,667.69z"/>
<path style="fill:#FFDD51;" d="M1021.923,641.2l-0.819,0.397c-5.158,2.794-5.451,13.511-6.356,18.681
	c-1.115,6.366-2.045,12.761-2.782,19.182c-1.362,11.865-2.067,23.778-2.242,35.716c-0.042,2.853-3.697,5.868-4.653,1.759
	c-2.96-12.723-5.92-25.447-8.88-38.171c-1.579-6.786-3.158-13.572-4.736-20.357c-0.926-3.981-2.449-17.861-9.22-12.85
	c-4.559,3.375-4.586,13.261-5.155,18.25c-0.815,7.13-1.144,14.336-0.946,21.51c0.29,10.496,1.732,20.884,4.139,31.077
	c0.677,2.513,1.333,5.032,1.967,7.557c0.822,3.275-2.981,8.921-4.44,3.803c-0.74-2.598-1.42-5.208-2.039-7.831
	c-3.364-12.48-7.251-24.809-11.722-36.943c-2.882-7.82-6.011-15.547-9.365-23.176c-2.368-5.384-5.084-15.065-11.496-16.791
	c-15.602-4.2-5.692,33.038-4.056,38.714c3.643,12.643,8.765,24.767,14.105,36.773c9.882,11.81,19.51,23.834,28.882,36.054
	c15.004,2.864,32.718,14.697,34.983,24.804c-2.408-10.748-2.551-21.997-0.417-32.803c1.085-5.495,2.931-11.165,7.116-14.887
	c1.35-1.2,2.877-2.115,4.512-2.768c-1.204-9.971-2.246-19.962-3.122-29.969C1023.5,679.729,1022.416,660.472,1021.923,641.2z"/>
<path style="fill:#FFDD51;" d="M1138.857,701.552c-10.883,7.616-20.529,16.882-28.653,27.606c-2.907,3.837-4.894-3.394-3.107-5.877
	c13.653-18.969,22.627-40.674,26.101-63.695c-18.352,15.046-32.663,34.16-41.819,56.164c-1.89,4.541-5.035-0.399-4.265-3.353
	c3.038-11.656,6.076-23.313,9.114-34.97c1.519-5.828,3.038-11.656,4.557-17.485c0.527-2.024,1.452-4.404,1.653-6.511
	c0.565-5.93-3.286-6.83-7.579-3.421c-3.928,3.12-7.014,8.397-9.837,12.525c-3.244,4.746-6.226,9.682-8.87,14.788
	c-3.346,6.461-6.164,13.149-8.49,20.017c-1.023,3.953-2.201,7.871-3.525,11.748c-1.574,4.612-5.032-0.39-4.265-3.353
	c1.032-3.987,2.209-7.924,3.528-11.808c1.915-7.554,3.188-15.256,3.744-23.058c0.381-5.346,0.475-10.737,0.159-16.088
	c-0.184-3.112,0.12-6.623-2.845-8.41c-2.97-1.789-4.874-0.339-6.869,2.124c-6.303,7.786-9.465,20.491-12.263,29.961
	c-3.145,10.645-5.283,21.549-6.534,32.573c-0.146,1.29-0.726,2.345-1.437,2.979c0.489,4.657,1.015,9.309,1.576,13.958
	c3.069,0.536,6.057,1.707,8.629,3.409c7.108,4.706,11.514,12.561,14.503,20.544c3.075,8.212,4.896,16.777,5.673,25.474
	c5.249-6.38,11.725-12.128,19.675-14.292c3.446-0.938,7.2-1.024,10.714-0.268c2.494-4.632,5.083-9.216,7.771-13.745
	C1115.755,732.464,1126.792,716.591,1138.857,701.552z"/>
<path style="fill:#683C11;" d="M903.797,784.995c2.011,1.586,0.601,9.044-2.306,7.224c-9.172-5.744-17.626-12.434-25.254-19.914
	c-1.209-0.953-2.417-1.906-3.626-2.859c-8.425-3.371-16.924-6.552-25.492-9.534c3.109,4.112,6.654,7.938,10.482,11.533
	c4.547,2.803,9.003,5.749,13.365,8.838c16.352,6.595,32.416,13.928,48.132,21.951c4.397,2.244,8.765,4.543,13.104,6.891
	c0.925-3.475,3.054-6.545,5.852-8.946c-13.257-7.177-26.765-13.891-40.495-20.102C899.639,781.716,901.718,783.355,903.797,784.995z
	"/>
<path style="fill:#683C11;" d="M823.818,761.766c-0.706-1.688-0.654-8.06,2.761-6.567c5.016,2.192,9.944,4.545,14.784,7.051
	c-1.178-1.756-2.288-3.557-3.318-5.412c-31.376-10.347-63.624-18.023-96.444-22.619c-2.957-0.414-5.916-0.804-8.878-1.169
	c-21.115-2.608-42.345-3.986-63.634-4.051c-6.898-0.022-6.907,10.696,0,10.718c18.244,0.056,36.433,1.107,54.502,3.092
	c34.301,3.766,68.166,10.907,101.141,21.057C824.419,763.17,824.113,762.473,823.818,761.766z"/>
<path style="fill:#683C11;" d="M956.065,724.843c0.818,1.821-0.869,9.56-3.319,6.129c-9.503-13.308-19.006-26.617-28.51-39.925
	c-4.623-6.474-9.247-12.949-13.87-19.423c-1.051-1.472-2.063-3.033-3.132-4.548c-2.163-2.261-4.338-4.512-6.523-6.752l-0.393-0.165
	c-3.941-1.391-6.825,2.561-7.346,6.184l-0.027,1.347c24.786,25.4,48.22,52.13,70.265,79.917c1.937,2.442,3.861,4.894,5.776,7.354
	c3.676-1.322,8.257-1.336,13.122-0.407c-9.372-12.22-19-24.243-28.882-36.054C954.167,720.618,955.116,722.731,956.065,724.843z"/>
<path style="fill:#683C11;" d="M888.219,662.881c0.183-1.286,0.505-2.557,1.005-3.804c0.959-2.396,2.558-4.475,4.549-5.799
	c-19.099-19.205-38.986-37.628-59.662-55.159c-5.32-4.511-10.693-8.958-16.115-13.345c-14.424-11.672-29.201-22.907-44.302-33.689
	c-5.624-4.015-10.982,5.276-5.41,9.255c16.256,11.606,32.099,23.768,47.525,36.435C841.075,617.524,865.221,639.631,888.219,662.881
	z"/>
<path style="fill:#683C11;" d="M1021.752,633.056l0.416-0.118c5.983-1.536,8.927,2.396,10.434,7.653
	c-1.203-48.168,1.319-96.438,7.439-144.194c0.77-6.011,1.607-12.012,2.501-18.004c3.02-20.227,6.734-40.348,11.069-60.335
	c1.459-6.725-8.871-9.598-10.335-2.849c-5.035,23.212-9.201,46.618-12.489,70.148
	C1023.954,534.255,1020.916,583.693,1021.752,633.056z"/>
<path style="fill:#683C11;" d="M1033.951,711.814c-1.039-12.801-2.077-25.603-3.114-38.404l-1.504-18.54
	c-0.363-4.476-0.025-16.836-7.409-13.669c0.492,19.272,1.577,38.529,3.257,57.731c0.876,10.007,1.918,19.997,3.122,29.969
	c3.288-1.315,7.013-1.566,10.629-0.934c-0.561-4.648-1.087-9.301-1.576-13.958C1036.012,715.205,1034.2,714.896,1033.951,711.814z"
	/>
<path style="fill:#683C11;" d="M1153.219,684.586c1.342-0.685,2.697-1.352,4.068-1.995c2.629-1.234,2.993,3.779,2.702,5.112
	c-0.541,2.476-1.142,4.932-1.804,7.366c17.504-20.099,36.943-38.523,57.888-54.942c1.928-1.512,3.869-3.009,5.823-4.486
	c16.997-12.857,34.944-24.397,53.607-34.681c6.043-3.33,0.641-12.589-5.409-9.255c-21.035,11.591-41.151,24.872-60.064,39.678
	C1189.564,647.401,1170.51,665.207,1153.219,684.586z"/>
<path style="fill:#683C11;" d="M1138.857,701.552c-12.065,15.039-23.103,30.912-32.963,47.536
	c-2.688,4.529-5.277,9.113-7.771,13.745c3.608,0.775,6.96,2.44,9.465,4.994c11.906-22.002,25.943-42.846,41.754-62.261
	c1.63-4.223,3.052-8.534,4.264-12.929C1148.475,695.29,1143.551,698.267,1138.857,701.552z"/>
<path style="fill:#5B7863;" d="M1101.289,818.22c5.658-9.45,9.323-20.087,10.687-31.016c0.693-5.557,0.719-11.52-2.087-16.368
	c-0.644-1.112-1.42-2.115-2.299-3.01c-2.505-2.553-5.858-4.218-9.465-4.994c-3.513-0.756-7.267-0.669-10.714,0.268
	c-7.95,2.164-14.427,7.912-19.675,14.292c-0.776-8.698-2.597-17.263-5.673-25.474c-2.989-7.983-7.396-15.838-14.503-20.544
	c-2.571-1.703-5.56-2.873-8.629-3.409c-3.615-0.632-7.341-0.38-10.629,0.934c-1.635,0.653-3.162,1.568-4.512,2.768
	c-4.185,3.722-6.032,9.392-7.116,14.887c-2.134,10.805-1.99,22.055,0.417,32.803c-2.265-10.107-19.979-21.94-34.983-24.804
	c-4.865-0.928-9.446-0.915-13.122,0.407c-4.795,1.724-8.053,5.673-8.399,12.654c-0.359,7.226,3.556,13.937,7.793,19.802
	c4.488,6.213,9.471,12.019,14.637,17.678c-3.121-1.968-6.361-3.758-9.716-5.346c-7.706-3.645-16.339-6.211-24.717-4.636
	c-3.834,0.721-7.556,2.517-10.527,5.064c-2.798,2.401-4.927,5.471-5.852,8.946c-0.238,0.894-0.401,1.815-0.47,2.758
	c-0.409,5.586,2.216,10.94,5.265,15.637c5.997,9.239,13.936,17.21,23.151,23.244c-3.866-2.532-10.177-3.167-17.115-2.349
	c-20.234,2.385-45.802,17.132-31.604,33.286c4.776,5.435,12.259,7.523,19.385,8.779c20.809,3.669,42.171,2.501,63.161,4.932
	c16.359,1.895,33.181,6.445,46.334,15.942c10.413,54.009,17.831,108.596,22.395,163.409c6.883,82.668,7.164,165.85,1.22,248.585
	c-1.039,14.463-2.274,28.91-3.697,43.337c-16.453-18.278-32.036-37.299-46.694-56.99c-22.391-30.08-42.622-61.724-60.493-94.684
	c-14.199-26.188-26.909-53.205-38.029-80.925c-0.995-2.481-3.143-2.079-4.504-0.265c-1.664,2.215-1.475,6.083-0.501,8.511
	c8.378,20.887,17.657,41.39,27.792,61.45c2.805,5.552,5.677,11.069,8.613,16.552c-25.896-16.325-48.192-37.811-65.488-62.946
	c-6.623-9.625-12.514-19.785-17.593-30.395c-2.233-4.664-9.166-0.591-6.941,4.057c0.915,1.911,1.857,3.808,2.824,5.691
	c21.047,40.987,54.338,75.193,94.754,97.375c14.199,25.297,29.786,49.808,46.67,73.401c17.988,25.135,37.447,49.229,58.259,72.133
	c-6.805,63.8-17.368,127.187-31.711,189.737c-11.761,51.286-26.031,102.012-42.907,151.852
	c-18.713-19.005-36.605-38.81-53.61-59.347l-0.003-0.004c-20.058-24.224-38.88-49.467-56.352-75.616
	c-14.86-22.241-28.744-45.137-41.58-68.621c-11.629-21.275-22.378-43.015-32.295-65.139c-2.787-6.216-6.657,4.561-5.005,8.247
	c17.189,38.341,36.984,75.504,59.203,111.155c0.385,0.619,0.773,1.235,1.16,1.853c-10.336-7.404-20.24-15.384-29.668-23.88
	c-38.62-34.798-69.24-78.29-88.613-126.738c-1.897-4.745-9.675-2.675-7.751,2.137c10.619,26.556,24.445,51.64,41.031,74.697
	c25.847,35.931,58.402,66.932,95.985,90.896c20.098,30.567,42.008,59.943,65.61,87.909l1.035,1.227
	c15.095,17.823,30.881,35.046,47.276,51.679c-8.259,23.811-17.116,47.414-26.588,70.773c-29.936,73.827-65.836,145.39-108.21,212.88
	c-5.19,8.268-10.482,16.469-15.855,24.619c-2.139,3.244-2.88,7.904-0.668,11.349c1.824,2.838,5.786,3.624,7.87,0.462
	c44.426-67.374,82.562-138.775,114.419-212.912c26.546-61.779,48.861-125.388,67.034-190.135l0.661-0.439
	c22.605-18.411,44.16-38.05,64.593-58.784c16.519-16.762,32.302-34.241,47.309-52.367l1.122-0.336
	c60.053-26.735,111.729-70.562,148.205-125.083c4.264-6.373,8.323-12.889,12.16-19.544c2.589-4.49-4.355-8.542-6.942-4.057
	c-8.229,14.272-17.478,27.885-27.631,40.747c-31.056,39.344-70.602,71.651-115.535,94.216c10.76-13.595,21.093-27.529,30.98-41.779
	c11.079-15.967,21.599-32.329,31.539-49.046c2.049-3.447-0.519-14.637-4.004-8.776c-13.666,22.986-28.438,45.277-44.255,66.783
	c-22.694,30.856-47.538,60.091-74.351,87.432l-0.001,0.001c-18.838,19.208-38.649,37.48-59.369,54.721
	c2.536-9.42,4.988-18.861,7.349-28.324c20.33-81.455,34.268-164.541,41.913-248.142c2.658-29.065,4.54-58.201,5.645-87.365
	c17.794-20.447,34.388-41.883,49.702-64.184c11.362-16.545,22.021-33.565,31.943-51.008c0.702,0.054,1.458-0.093,2.227-0.511
	c42.776-23.171,77.672-59.781,98.678-103.668c2.223-4.644-4.706-8.727-6.94-4.057c-19.014,39.722-49.405,73.135-87.049,95.784
	c6.802-12.533,13.229-25.273,19.27-38.203c6.55-14.02,12.648-28.26,18.276-42.701c1.687-4.328-2.287-13.73-5.144-6.399
	c-7.951,20.401-16.86,40.399-26.681,59.926c-14.88,29.586-31.855,58.088-50.772,85.261l-0.004,0.005
	c-13.39,19.232-27.752,37.797-43.033,55.609c1.478-50.459,0.633-100.985-2.541-151.368c-3.989-63.324-11.795-126.382-23.497-188.726
	c6.838-17.419,21.832-31.017,37.811-41.188c17.825-11.348,37.554-19.618,54.677-32.001c5.862-4.24,11.684-9.384,13.61-16.359
	c5.406-19.568-20.526-22.547-39.638-17.197C1110.909,809.859,1104.05,813.607,1101.289,818.22z"/>
<path style="fill:#F4951B;" d="M1157.286,682.591c-1.37,0.643-2.725,1.31-4.068,1.995c-10.26,5.239-19.708,11.704-28.214,19.282
	c7.465-16.049,12.162-33.29,13.953-51.115c0.181-1.804-1.12-5.454-3.457-3.68c-15.105,11.468-27.78,25.601-37.545,41.65
	c2.248-8.625,4.496-17.25,6.744-25.875c1.632-6.261,7.234-23.152-3.582-25.11c-5.369-0.972-9.438,4.099-12.445,7.811
	c-4.757,5.875-9.018,12.167-12.795,18.712c-1.442,2.497-2.803,5.031-4.093,7.597c0.304-3.336,0.488-6.689,0.545-10.055
	c0.117-6.965,1.733-27.018-9.816-26.529c-10.802,0.458-15.757,20.785-18.454,28.488c-2.837,8.104-5.111,16.354-6.872,24.717
	c-0.905-11.165-1.811-22.33-2.716-33.494c-0.289-3.568-0.251-10.746-1.87-16.395c-1.507-5.257-4.451-9.189-10.434-7.653
	l-0.416,0.118c-11.178,3.354-11.434,23.38-12.809,32.385c-1.564,10.246-2.674,20.54-3.346,30.868
	c-2.839-12.205-5.679-24.409-8.518-36.615c-1.397-6.004-4.914-31.349-16.892-21.21c-4.008,3.392-5.464,9.115-6.375,14.029
	c-1.513,8.167-2.334,16.495-2.54,24.794c-0.083,3.315-0.062,6.624,0.056,9.925c-2.367-6.858-4.904-13.66-7.618-20.398
	c-3.336-8.278-11.877-39.27-26.412-30.905c-11.891,6.844-7.603,27.546-5.49,37.93c2.062,10.136,5.253,19.948,8.98,29.572
	c-7.388-10.346-14.777-20.693-22.165-31.039c-4.347-6.087-9.272-16.802-16.557-19.896c-3.04-1.291-5.939-0.784-8.293,0.781
	c-1.991,1.324-3.591,3.404-4.549,5.799c-0.5,1.247-0.822,2.518-1.005,3.804c-0.813,5.716,1.157,11.713,2.84,17.093
	c2.611,8.35,5.753,16.546,9.361,24.516c1.562,3.452,3.221,6.855,4.969,10.208c-5.55-6.111-11.1-12.221-16.65-18.332
	c-5.702-6.278-24.214-28.889-30.441-10.228c-4.367,13.087,7.937,29.325,14.606,39.445c1.198,1.818,2.426,3.612,3.683,5.384
	c-11.877-9.588-23.754-19.175-35.631-28.764c-3.038-2.452-4.254,3.256-3.652,5.294c4.141,14.02,10.276,27.265,18.126,39.356
	c-7.099-5.598-14.198-11.196-21.296-16.794c-2.612-2.06-4.168,2.219-3.84,4.321c1.292,8.281,4.003,15.709,7.751,22.457
	c1.03,1.855,2.14,3.656,3.318,5.412c-4.84-2.506-9.768-4.859-14.784-7.051c-3.415-1.493-3.467,4.879-2.761,6.567
	c0.295,0.707,0.602,1.405,0.914,2.099c13.636,30.359,42.872,48.978,70.342,65.719c2.987,1.821,4.464-6.007,1.749-7.661
	c-24.117-14.698-49.697-30.734-64.158-55.474c8.11,3.879,15.988,8.178,23.606,12.893c9.91,9.159,21.487,16.944,32.794,24.233
	c2.927,1.886,4.176-5.591,2.307-7.224c-6.545-5.714-13.352-11.074-20.404-16.068c-4.362-3.088-8.818-6.035-13.365-8.838
	c-3.828-3.594-7.374-7.421-10.482-11.533c-4.189-5.54-7.583-11.597-9.807-18.302c11.766,9.279,23.532,18.557,35.298,27.836
	c1.209,0.953,2.417,1.906,3.626,2.859c7.628,7.481,16.083,14.171,25.254,19.914c2.907,1.82,4.317-5.638,2.306-7.224
	c-2.079-1.64-4.159-3.279-6.238-4.919c-6.232-4.915-12.465-9.83-18.697-14.744c-14.444-14.169-25.82-31.295-33.218-50.248
	l62.084,50.119c3.277,2.645,5.156-4.802,2.863-6.785c-10.298-8.907-19.68-18.794-27.849-29.697
	c-4.37-5.833-8.378-11.936-12.006-18.257c-2.899-5.05-8.271-12.285-8.272-18.357c-0.003-12.322,14.171,0.869,17.182,4.184
	c5.34,5.88,10.68,11.758,16.019,17.638c10.975,12.085,21.951,24.169,32.927,36.254c2.822,3.107,4.65-4.546,2.863-6.785
	c-8.956-11.221-16.791-23.252-23.276-36.065c-3.334-6.588-6.342-13.348-8.935-20.263c-1.214-3.237-2.345-6.507-3.396-9.801
	c-0.797-2.499-2.675-6.582-2.904-9.579l0.027-1.347c0.521-3.623,3.405-7.575,7.346-6.184l0.393,0.165
	c1.294,0.607,2.482,1.878,3.423,2.871c1.127,1.187,2.136,2.515,3.1,3.882c1.069,1.515,2.081,3.076,3.132,4.548
	c4.623,6.474,9.246,12.949,13.87,19.423c9.503,13.308,19.006,26.617,28.51,39.925c2.45,3.431,4.137-4.308,3.319-6.129
	c-0.949-2.112-1.897-4.226-2.839-6.344c-5.34-12.006-10.463-24.13-14.105-36.773c-1.635-5.675-11.546-42.914,4.056-38.714
	c6.412,1.726,9.128,11.407,11.496,16.791c3.355,7.629,6.483,15.356,9.365,23.176c4.472,12.134,8.359,24.463,11.722,36.943
	c0.619,2.623,1.299,5.234,2.039,7.831c1.459,5.118,5.262-0.528,4.44-3.803c-0.634-2.526-1.29-5.044-1.967-7.557
	c-2.407-10.193-3.849-20.581-4.139-31.077c-0.198-7.174,0.132-14.38,0.946-21.51c0.57-4.989,0.596-14.876,5.155-18.25
	c6.771-5.011,8.294,8.869,9.22,12.85c1.579,6.786,3.158,13.572,4.736,20.357c2.96,12.724,5.92,25.447,8.88,38.171
	c0.956,4.109,4.61,1.094,4.653-1.759c0.175-11.938,0.88-23.851,2.242-35.716c0.737-6.421,1.668-12.816,2.782-19.182
	c0.905-5.171,1.198-15.888,6.356-18.681l0.819-0.397c7.384-3.166,7.047,9.194,7.409,13.669l1.504,18.54
	c1.038,12.801,2.076,25.603,3.114,38.404c0.25,3.082,2.061,3.39,3.404,2.194c0.711-0.633,1.291-1.689,1.437-2.979
	c1.251-11.024,3.389-21.929,6.534-32.573c2.797-9.47,5.959-22.175,12.263-29.961c1.995-2.464,3.898-3.913,6.869-2.124
	c2.965,1.787,2.661,5.298,2.845,8.41c0.316,5.351,0.222,10.742-0.159,16.088c-0.556,7.803-1.828,15.504-3.744,23.058
	c-1.318,3.884-2.496,7.821-3.528,11.808c-0.767,2.963,2.691,7.965,4.265,3.353c1.324-3.877,2.502-7.795,3.525-11.748
	c2.326-6.867,5.144-13.555,8.49-20.017c2.644-5.106,5.626-10.042,8.87-14.788c2.822-4.128,5.909-9.405,9.837-12.525
	c4.293-3.409,8.144-2.509,7.579,3.421c-0.201,2.107-1.125,4.487-1.653,6.511c-1.519,5.828-3.038,11.656-4.557,17.485
	c-3.038,11.657-6.076,23.313-9.114,34.97c-0.77,2.955,2.375,7.894,4.265,3.353c9.156-22.003,23.467-41.118,41.819-56.164
	c-3.474,23.021-12.448,44.725-26.101,63.695c-1.787,2.483,0.2,9.714,3.107,5.877c8.125-10.724,17.77-19.989,28.653-27.606
	c4.693-3.285,9.617-6.262,14.75-8.915c-1.212,4.395-2.635,8.706-4.264,12.929c-4.249,11.009-9.904,21.417-16.897,31.122
	c-1.756,2.436-0.117,9.567,3.107,5.877c10.613-12.148,23.119-22.324,37.073-30.298c-9.773,24.202-23.856,46.367-41.791,65.452
	c-2.039,2.17-0.663,9.959,2.048,7.074c20.975-22.32,37.046-48.572,47.201-77.479c0.459-1.306,0.575-7.582-2.401-6.056
	c-10.521,5.396-20.23,11.908-29.102,19.473c3.983-8.219,7.195-16.797,9.605-25.661c0.662-2.434,1.263-4.89,1.804-7.366
	C1160.279,686.37,1159.915,681.357,1157.286,682.591z"/>
<path style="fill:#658E6D;" d="M1185.921,1102.736c-6.041,12.93-12.468,25.67-19.27,38.203
	c37.643-22.649,68.035-56.062,87.049-95.784c2.235-4.669,9.163-0.586,6.94,4.057c-21.006,43.887-55.903,80.496-98.678,103.668
	c-0.77,0.417-1.525,0.564-2.227,0.511c-9.923,17.444-20.582,34.464-31.943,51.008c1.548-1.183,3.094-2.365,4.635-3.544
	c1.876-1.435,3.747-2.867,5.613-4.297c1.866-1.43,3.727-2.858,5.583-4.284c4.639-3.565,9.245-7.121,13.817-10.677
	c3.658-2.845,7.294-5.69,10.907-8.54c3.614-2.85,7.205-5.707,10.773-8.574c1.784-1.433,3.562-2.869,5.335-4.309
	c3.545-2.879,7.066-5.772,10.564-8.684c0.875-0.728,1.748-1.457,2.619-2.187c1.743-1.461,3.48-2.926,5.21-4.398
	c1.73-1.471,3.456-2.949,5.174-4.432c2.578-2.225,5.141-4.465,7.691-6.72c1.699-1.504,3.393-3.016,5.079-4.535
	c3.374-3.039,6.723-6.11,10.045-9.218c4.153-3.885,8.264-7.829,12.334-11.841c0.814-0.802,1.626-1.608,2.437-2.415
	c2.027-2.02,4.042-4.058,6.047-6.115c2.005-2.057,4-4.132,5.983-6.228c2.975-3.144,5.926-6.334,8.851-9.573
	c1.17-1.296,2.337-2.6,3.498-3.912c1.162-1.313,2.32-2.633,3.474-3.962c4.039-4.652,8.028-9.408,11.966-14.281
	c2.813-3.481,5.559-7.007,8.235-10.576c0.892-1.19,1.777-2.384,2.653-3.583c1.403-1.919,2.786-3.849,4.149-5.792
	c1.363-1.943,2.705-3.897,4.026-5.863c0.661-0.983,1.316-1.969,1.967-2.958c0.975-1.483,1.94-2.973,2.892-4.468
	c0.635-0.997,1.264-1.997,1.889-3c0.312-0.502,0.623-1.004,0.932-1.506c0.618-1.005,1.232-2.014,1.84-3.025
	c0.608-1.011,1.211-2.025,1.808-3.041c0.598-1.017,1.189-2.035,1.775-3.057c0.293-0.511,0.585-1.022,0.876-1.535
	c0.581-1.024,1.156-2.051,1.726-3.081c0.854-1.544,1.697-3.094,2.526-4.649c0.554-1.038,1.101-2.077,1.643-3.12
	c0.271-0.521,0.541-1.042,0.809-1.565c0.536-1.045,1.066-2.092,1.591-3.142c0.787-1.574,1.562-3.154,2.323-4.74
	c0.253-0.528,0.506-1.057,0.757-1.587c0.502-1.06,0.997-2.121,1.488-3.185c0.49-1.064,0.974-2.13,1.452-3.198
	c0.478-1.069,0.951-2.139,1.417-3.213c0.7-1.609,1.386-3.224,2.059-4.844c0.449-1.08,0.891-2.162,1.328-3.246
	c0.218-0.542,0.435-1.085,0.649-1.628c0.431-1.086,0.855-2.175,1.273-3.265c0.418-1.091,0.83-2.183,1.236-3.278
	c6.899-18.612,12.014-37.826,15.125-57.468c0.183-1.155,0.359-2.312,0.528-3.471c2.452-16.795,3.436-33.893,2.817-51.187
	l-0.92,0.421l0,0c-9.499,54.312-34.294,105.229-69.677,149.013C1257.38,1041.497,1222.909,1072.802,1185.921,1102.736z"/>
<path style="fill:#658E6D;" d="M1172.373,1113.563c-14.477,11.435-29.314,22.773-44.472,34.358l-0.003,0.002l-0.078,0.423
	c-0.208,1.109-0.413,2.22-0.613,3.332l-0.02,0.114c-0.219,1.225-0.432,2.45-0.64,3.677l-0.024,0.144
	c-0.322,1.9-0.629,3.803-0.923,5.708c-0.294,1.905-0.574,3.812-0.841,5.721c-0.534,3.818-1.012,7.643-1.437,11.475l-0.033,0.306
	c-0.123,1.117-0.241,2.234-0.354,3.352l-0.083,0.832c-0.095,0.96-0.188,1.92-0.276,2.881l-0.092,1.027
	c-0.078,0.873-0.154,1.747-0.226,2.621l-0.101,1.256c-0.065,0.819-0.127,1.639-0.188,2.459l-0.095,1.326
	c-0.057,0.806-0.109,1.613-0.161,2.418l-0.084,1.316l-0.029,0.514C1140.518,1171.651,1157.493,1143.149,1172.373,1113.563z"/>
<path style="fill:#658E6D;" d="M1156.902,1490.262c-17.017,8.988-34.401,17.817-52.178,26.874c0.473-2.181,0.966-4.357,1.475-6.529
	l0.006-0.028c-0.365,0.802-0.726,1.606-1.086,2.411l-0.042,0.096c-0.36,0.807-0.718,1.615-1.073,2.425
	c-1.065,2.429-2.107,4.868-3.124,7.316l-0.059,0.143c-0.666,1.603-1.32,3.21-1.965,4.822c-0.645,1.611-1.279,3.227-1.904,4.846
	l-0.18,0.469c-0.283,0.739-0.566,1.478-0.846,2.219l-0.081,0.216c-0.872,2.316-1.722,4.638-2.552,6.969l-0.278,0.783
	c-0.231,0.655-0.462,1.312-0.691,1.969l-0.304,0.88c-0.392,1.137-0.779,2.276-1.162,3.415l-0.363,1.081
	c-0.185,0.558-0.368,1.117-0.551,1.675l-0.415,1.274c-0.181,0.557-0.36,1.114-0.537,1.673l-0.414,1.309
	c-0.215,0.684-0.43,1.368-0.642,2.052c-0.231,0.747-0.461,1.494-0.688,2.242l-0.409,1.365c-0.167,0.559-0.334,1.119-0.498,1.678
	l-0.409,1.401c-0.173,0.595-0.344,1.192-0.514,1.788l-0.347,1.216c-0.27,0.956-0.536,1.913-0.799,2.87l-0.256,0.948
	c-0.197,0.724-0.392,1.448-0.584,2.174l-0.284,1.078c-0.186,0.71-0.37,1.419-0.552,2.13l-0.046,0.181
	C1109.365,1550.353,1134.208,1521.118,1156.902,1490.262z"/>
<path style="fill:#658E6D;" d="M1142.642,1523.081c44.933-22.565,84.479-54.872,115.535-94.216
	c-27.18,19.724-55.321,36.518-84.554,52.437C1163.735,1495.552,1153.402,1509.486,1142.642,1523.081z"/>
<path style="fill:#658E6D;" d="M1293.018,1401.377c-4.12,3.539-8.263,6.982-12.428,10.343
	c-36.476,54.521-88.152,98.348-148.205,125.083l-1.122,0.336c-15.006,18.126-30.789,35.605-47.309,52.367
	c66.196-33.72,126.944-64.726,183.523-113.33c0.876-0.752,1.746-1.508,2.614-2.267l0.974-0.86c0.551-0.486,1.103-0.971,1.651-1.46
	l1.046-0.941c0.511-0.46,1.023-0.919,1.531-1.381l1.091-1c0.493-0.452,0.987-0.903,1.477-1.358l1.108-1.034l1.427-1.338l1.106-1.051
	l1.414-1.352l1.118-1.083l1.35-1.316l1.152-1.137l1.287-1.279l1.209-1.215l1.21-1.227l1.205-1.233l1.213-1.255l1.178-1.229
	l1.197-1.264l1.195-1.271l1.116-1.203l1.244-1.349l1.01-1.11c0.443-0.487,0.885-0.974,1.325-1.464l0.941-1.056
	c0.444-0.498,0.888-0.996,1.328-1.496l0.913-1.046c0.452-0.517,0.905-1.034,1.353-1.554l0.728-0.85
	c2.512-2.931,4.972-5.899,7.377-8.906l0.521-0.65c0.504-0.632,1.003-1.269,1.501-1.905l0.593-0.753
	c0.487-0.625,0.97-1.254,1.453-1.882l0.629-0.817c0.454-0.595,0.905-1.193,1.355-1.792l0.707-0.939
	c0.448-0.598,0.89-1.198,1.333-1.8l0.672-0.914c0.449-0.613,0.895-1.229,1.339-1.845l0.635-0.882
	c0.454-0.634,0.905-1.27,1.354-1.907l0.587-0.834c0.455-0.65,0.909-1.302,1.36-1.956l0.548-0.797
	c0.458-0.668,0.913-1.338,1.366-2.01l0.506-0.753c0.468-0.698,0.935-1.399,1.397-2.101l0.412-0.628
	c0.481-0.734,0.961-1.47,1.436-2.208l0.361-0.563c0.489-0.764,0.977-1.528,1.46-2.296l0.272-0.435
	c0.511-0.815,1.019-1.632,1.523-2.451l0.12-0.197c0.644-1.05,1.281-2.103,1.912-3.16c1.262-2.114,2.499-4.242,3.711-6.383
	c2.422-4.283,4.742-8.622,6.954-13.013c0.553-1.098,1.1-2.199,1.639-3.304l0.026-0.052c0.462-0.946,0.918-1.895,1.371-2.846
	l0.083-0.174c0.444-0.936,0.883-1.875,1.318-2.816l0.09-0.194c0.428-0.927,0.85-1.857,1.268-2.788l0.119-0.264
	c0.415-0.928,0.826-1.859,1.232-2.791l0.099-0.226c0.411-0.946,0.817-1.895,1.218-2.845l0.079-0.189
	c0.408-0.968,0.811-1.938,1.208-2.911l0.038-0.092c0.39-0.956,0.775-1.913,1.155-2.872c0.76-1.919,1.501-3.847,2.22-5.783
	c0.626-1.683,1.234-3.374,1.829-5.07c0.177-0.503,0.352-1.007,0.526-1.512c0.925-2.684,1.815-5.382,2.661-8.098
	c0.617-1.978,1.213-3.965,1.788-5.959c0.634-2.199,1.24-4.41,1.822-6.629c0.474-1.805,0.932-3.616,1.371-5.433
	c0.489-2.026,0.956-4.06,1.401-6.101l0.01-0.048c0.217-0.992,0.426-1.987,0.631-2.982l0.134-0.652
	c0.19-0.93,0.376-1.861,0.557-2.795l0.024-0.118l0,0.001C1355.723,1336.694,1327.314,1371.915,1293.018,1401.377z"/>
<path style="fill:#658E6D;" d="M1013.533,1309.696l-0.064-1.142c-0.046-0.832-0.094-1.663-0.145-2.495l-0.09-1.413
	c-0.056-0.859-0.115-1.719-0.176-2.578l-0.088-1.219c-0.076-1.018-0.157-2.036-0.241-3.054l-0.062-0.761
	c-0.223-2.649-0.473-5.295-0.749-7.939l-0.017-0.155c-0.131-1.246-0.267-2.491-0.409-3.736l-0.072-0.617
	c-0.131-1.127-0.265-2.254-0.406-3.38l-0.074-0.593c-0.143-1.136-0.29-2.271-0.443-3.406l-0.074-0.552
	c-0.171-1.258-0.347-2.515-0.53-3.771l-0.011-0.074c-0.368-2.525-0.76-5.046-1.176-7.563c-0.298-1.807-0.61-3.612-0.932-5.414
	c-0.277-1.546-0.562-3.09-0.856-4.632c-0.159-0.836-0.322-1.671-0.486-2.505l-0.005-0.026
	c-18.256-12.706-36.065-25.079-53.387-37.658C970.911,1247.972,991.142,1279.616,1013.533,1309.696z"/>
<path style="fill:#658E6D;" d="M946.412,1220.335c-2.936-5.483-5.808-11-8.613-16.552c-19.641-14.701-38.62-29.89-56.875-46.394
	C898.22,1182.524,920.516,1204.009,946.412,1220.335z"/>
<path style="fill:#658E6D;" d="M859.214,1136.742c-7.456-7.472-14.779-15.237-21.964-23.36
	c-22.961-25.96-42.034-54.799-56.082-85.695l0.003,0.012c0.318,1.595,0.651,3.186,0.995,4.774l0.024,0.108
	c0.432,1.988,0.885,3.971,1.358,5.949c0.473,1.977,0.966,3.95,1.479,5.917l0.043,0.166c0.408,1.562,0.829,3.121,1.263,4.677
	l0.009,0.032c0.656,2.353,1.341,4.698,2.054,7.035l0.031,0.102c0.472,1.544,0.956,3.085,1.451,4.622l0.032,0.098
	c0.498,1.543,1.009,3.083,1.532,4.617l0.018,0.053c0.249,0.731,0.501,1.462,0.756,2.19l0.065,0.187
	c0.522,1.492,1.056,2.982,1.601,4.467l0.081,0.221c0.552,1.502,1.116,3.001,1.692,4.495l0.024,0.061
	c0.868,2.251,1.762,4.494,2.682,6.727l0.101,0.244c0.609,1.475,1.228,2.945,1.859,4.411l0.038,0.088
	c0.315,0.73,0.631,1.458,0.951,2.186l0.022,0.049c0.326,0.742,0.655,1.482,0.987,2.221l0.042,0.094
	c0.315,0.699,0.631,1.398,0.95,2.095l0.079,0.173c0.668,1.458,1.347,2.911,2.037,4.36l0.063,0.13
	c0.692,1.453,1.395,2.901,2.109,4.345l0.077,0.156c0.329,0.663,0.66,1.325,0.993,1.986l0.109,0.217
	c0.704,1.394,1.417,2.785,2.141,4.17l0.184,0.35c0.347,0.663,0.697,1.326,1.049,1.987l0.021,0.04
	c0.375,0.704,0.753,1.408,1.133,2.109l0.114,0.21c0.345,0.635,0.691,1.268,1.04,1.902l0.124,0.225
	c0.75,1.359,1.51,2.713,2.279,4.062l0.236,0.413c0.758,1.327,1.526,2.649,2.303,3.967l0.212,0.36
	c0.348,0.59,0.699,1.178,1.051,1.767l0.138,0.232c0.406,0.677,0.815,1.353,1.226,2.027l0.102,0.168
	c0.351,0.574,0.703,1.147,1.057,1.72l0.311,0.503c0.793,1.278,1.594,2.55,2.404,3.818l0.27,0.423
	c0.392,0.612,0.786,1.223,1.182,1.833l0.04,0.062c0.435,0.668,0.871,1.336,1.31,2.002l0.167,0.253
	c0.366,0.554,0.734,1.106,1.102,1.658l0.29,0.434c0.423,0.631,0.848,1.261,1.276,1.89l0.032,0.048
	c0.419,0.616,0.841,1.231,1.264,1.845l0.272,0.394c0.411,0.594,0.823,1.188,1.237,1.779l0.066,0.095
	c0.455,0.648,0.911,1.295,1.369,1.94l0.185,0.26c0.408,0.573,0.817,1.144,1.228,1.714l0.179,0.249
	c0.463,0.64,0.927,1.281,1.394,1.918l0.096,0.131c0.422,0.576,0.846,1.15,1.271,1.724l0.296,0.399
	c0.45,0.605,0.901,1.209,1.355,1.812l0.007,0.009c0.465,0.616,0.931,1.231,1.4,1.845l0.297,0.388
	c0.401,0.524,0.803,1.047,1.207,1.57l0.229,0.296c0.477,0.615,0.957,1.23,1.439,1.843l0.148,0.189
	c0.436,0.554,0.873,1.106,1.312,1.658l0.258,0.324c0.488,0.612,0.977,1.221,1.468,1.83c2.813,3.481,5.652,6.902,8.517,10.268
	c0.573,0.673,1.147,1.344,1.722,2.013c1.725,2.006,3.459,3.994,5.202,5.962c4.068,4.592,8.184,9.083,12.349,13.485
	c2.38,2.515,4.776,5.001,7.188,7.46c2.411,2.459,4.838,4.891,7.279,7.298c2.442,2.407,4.899,4.79,7.371,7.15
	c1.648,1.573,3.302,3.137,4.963,4.691c1.661,1.554,3.329,3.099,5.003,4.635c14.229,13.056,28.926,25.486,44.041,37.695
	c1.778,1.436,3.562,2.87,5.352,4.301c13.709,10.96,27.755,21.781,42.099,32.76c-16.884-23.593-32.471-48.104-46.67-73.401
	C913.551,1211.935,880.261,1177.728,859.214,1136.742z"/>
<polygon style="fill:#658E6D;" points="781.168,1027.687 781.168,1027.687 781.168,1027.686 "/>
<path style="fill:#658E6D;" d="M930.666,1661.888l-0.102-0.835l-0.177-1.377c-0.096-0.745-0.192-1.489-0.293-2.234l-0.184-1.339
	c-0.106-0.768-0.213-1.536-0.324-2.304l-0.182-1.238c-0.116-0.792-0.234-1.583-0.356-2.373l-0.191-1.225
	c-0.127-0.804-0.254-1.609-0.385-2.413l-0.185-1.126c-0.139-0.834-0.28-1.669-0.423-2.502l-0.185-1.07
	c-0.151-0.861-0.304-1.721-0.461-2.582l-0.176-0.965c-0.167-0.906-0.337-1.812-0.51-2.717l-0.156-0.816
	c-0.184-0.953-0.372-1.904-0.564-2.855l-0.14-0.699c-0.201-0.991-0.406-1.981-0.615-2.971l-0.125-0.596
	c-0.22-1.038-0.446-2.076-0.674-3.112l-0.094-0.432c-0.255-1.15-0.514-2.3-0.779-3.447l-0.012-0.055
	c-16.736-11.586-33.098-22.893-49.056-34.333C891.786,1612.421,910.607,1637.663,930.666,1661.888z"/>
<path style="fill:#658E6D;" d="M770.794,1499.981c-5.785-5.917-11.489-12.02-17.109-18.342
	c-36.547-41.109-63.318-89.496-75.759-141.884v0.01c0.034,1.137,0.074,2.272,0.122,3.407l0.004,0.098
	c0.047,1.104,0.1,2.207,0.16,3.309l0.011,0.214c0.059,1.076,0.124,2.151,0.196,3.224l0.017,0.265
	c0.071,1.06,0.149,2.119,0.232,3.177l0.023,0.301c0.084,1.054,0.174,2.107,0.27,3.159l0.028,0.307
	c0.097,1.054,0.2,2.107,0.309,3.159l0.028,0.274c0.11,1.055,0.226,2.107,0.348,3.16l0.034,0.296
	c0.122,1.042,0.249,2.084,0.382,3.124l0.04,0.312c0.135,1.048,0.276,2.095,0.423,3.14l0.035,0.25
	c0.149,1.061,0.305,2.12,0.467,3.177l0.035,0.227c0.162,1.057,0.33,2.113,0.504,3.166l0.041,0.246
	c0.173,1.043,0.352,2.086,0.536,3.126l0.053,0.295c0.185,1.042,0.376,2.081,0.573,3.12l0.041,0.213
	c0.201,1.059,0.409,2.117,0.622,3.173l0.037,0.181c0.216,1.064,0.437,2.125,0.664,3.185l0.037,0.171
	c0.23,1.071,0.466,2.14,0.708,3.207l0.021,0.094c0.248,1.089,0.5,2.175,0.76,3.26l0.011,0.045c0.263,1.1,0.533,2.197,0.809,3.294
	l0.001,0.004c1.383,5.491,2.923,10.937,4.616,16.334l0.057,0.182c0.326,1.041,0.66,2.079,0.998,3.116l0.04,0.124
	c0.337,1.032,0.68,2.061,1.028,3.088l0.061,0.182c0.345,1.016,0.695,2.029,1.051,3.042l0.071,0.203
	c0.355,1.009,0.715,2.016,1.081,3.02l0.074,0.206c0.363,0.995,0.731,1.987,1.104,2.978l0.097,0.258
	c0.373,0.989,0.751,1.975,1.134,2.96l0.085,0.217c0.384,0.985,0.774,1.968,1.168,2.95l0.107,0.266
	c0.391,0.969,0.786,1.936,1.187,2.902l0.113,0.273c0.4,0.963,0.806,1.924,1.216,2.884l0.122,0.284
	c0.409,0.955,0.823,1.908,1.242,2.859l0.133,0.301c0.412,0.934,0.829,1.865,1.251,2.795l0.171,0.377
	c0.427,0.938,0.857,1.874,1.294,2.808l0.106,0.227c0.452,0.966,0.908,1.931,1.37,2.894l0.087,0.182
	c0.468,0.974,0.941,1.946,1.419,2.915l0.079,0.16c0.481,0.975,0.968,1.948,1.459,2.92l0.073,0.143
	c0.489,0.964,0.982,1.925,1.48,2.885l0.121,0.231c0.495,0.95,0.994,1.899,1.498,2.845l0.066,0.124
	c0.522,0.978,1.048,1.954,1.58,2.927l0.022,0.041c0.535,0.98,1.076,1.957,1.622,2.931l0.041,0.074
	c0.546,0.975,1.098,1.947,1.654,2.916l0.041,0.071c0.558,0.973,1.122,1.943,1.69,2.91l0.041,0.069
	c0.56,0.953,1.125,1.904,1.695,2.852l0.079,0.132c0.552,0.917,1.109,1.833,1.67,2.745l0.148,0.242
	c0.548,0.89,1.101,1.778,1.657,2.663l0.181,0.288c0.56,0.889,1.124,1.775,1.693,2.66l0.16,0.249c0.559,0.868,1.123,1.734,1.69,2.597
	l0.225,0.344c0.555,0.843,1.115,1.684,1.677,2.522l0.252,0.376c0.571,0.848,1.146,1.694,1.725,2.538l0.209,0.305
	c0.584,0.85,1.173,1.698,1.765,2.543l0.219,0.312c0.586,0.834,1.175,1.666,1.768,2.495l0.268,0.374
	c0.595,0.83,1.193,1.659,1.797,2.484l0.211,0.289c0.611,0.834,1.225,1.667,1.844,2.496l0.242,0.325
	c0.615,0.823,1.233,1.644,1.855,2.462l0.243,0.319c0.624,0.818,1.25,1.634,1.88,2.446l0.254,0.327
	c0.628,0.808,1.259,1.613,1.894,2.415l0.263,0.331c0.64,0.807,1.284,1.612,1.931,2.415l0.229,0.283
	c0.658,0.813,1.318,1.623,1.983,2.431l0.216,0.261c0.677,0.821,1.358,1.64,2.042,2.455l0.141,0.167
	c0.713,0.849,1.43,1.696,2.152,2.539l0.041,0.047c0.74,0.865,1.484,1.726,2.233,2.585l0.081,0.093
	c0.747,0.856,1.498,1.709,2.253,2.559c50.746,57.081,108.295,96.462,171.09,139.939l-0.026-0.316
	c-23.601-27.966-45.512-57.342-65.61-87.909C829.196,1566.913,796.642,1535.912,770.794,1499.981z"/>
<polygon style="fill:#658E6D;" points="677.926,1339.755 677.926,1339.755 677.926,1339.755 "/>
<path style="fill:#658E6D;" d="M855.796,1573.766c-0.387-0.617-0.774-1.234-1.16-1.853c-9.664-7.193-19.17-14.502-28.509-22.027
	C835.556,1558.382,845.46,1566.362,855.796,1573.766z"/>
<path style="fill:#81A587;" d="M1011.311,869.135c-7.792-7.392-18.151-12.735-28.876-12.175
	c-10.726,0.56-21.223,10.847-23.003,21.44c23.827-8.09,51.922-1.865,70.104,15.531
	C1024.002,884.726,1019.103,876.527,1011.311,869.135z"/>
<path style="fill:#81A587;" d="M1083.292,832.456c-9.881,4.21-16.838,13.562-20.589,23.626c-3.751,10.064-4.548,19.581-5.474,30.281
	c8.687-23.616,31.188-41.553,56.147-44.758C1107.123,832.874,1093.173,828.246,1083.292,832.456z"/>
<path style="fill:#81A587;" d="M1021.971,826.305c-3.364-5.125-7.775-9.466-13.234-12.205c-9.6-4.817-23.81-1.066-30.595,7.26
	c24.711,4.751,46.052,24.054,53.254,48.165l-0.027-1.124c-0.249-10.283-0.544-19.521-3.552-29.44
	C1026.472,834.528,1024.522,830.192,1021.971,826.305z"/>
<path style="fill:#81A587;" d="M1079.119,804.13c-9.221-5.506-23.858-4.175-31.234,3.632c-7.376,7.807-10.017,19.16-9.435,29.884
	c0.582,10.724,3.654,19.767,7.08,29.946C1044.058,842.472,1057.52,817.039,1079.119,804.13z"/>
</svg>
