<?xml version="1.0" encoding="utf-8"?>
<!-- Generator: Adobe Illustrator 27.5.0, SVG Export Plug-In . SVG Version: 6.00 Build 0)  -->
<svg version="1.1" id="Capa_1" xmlns="http://www.w3.org/2000/svg" xmlns:xlink="http://www.w3.org/1999/xlink" x="0px" y="0px"
	 viewBox="0 0 2122 2122" style="enable-background:new 0 0 2122 2122;" xml:space="preserve">
<path style="fill:#008553;" d="M716.415,1236.875c19.381-8.255,38.91-16.199,57.807-25.498
	c58.987-29.026,114.237-74.098,157.235-127.112c0.34-119.141,0.68-238.283,1.017-357.426c-3.04,4.59-5.939,9.307-8.609,14.225
	c-27.102,49.947-32.147,113.661-65.907,158.68c-30.793,41.064-81.441,61.357-128.189,84.228
	c-12.651,6.189-26.697,12.171-41.786,18.379c0.508,0.537,0.913,1.198,1.017,2.084
	C698.138,1081.915,707.276,1159.395,716.415,1236.875z"/>
<path style="fill:#008553;" d="M709.69,1239.772c-8.161-69.2-16.322-138.4-24.483-207.6l3.256,194.759l-47.157-205.468
	c-25.023,10.432-51.994,22.347-80.277,37.211l56.897,237.549c13.438-13.151,28.47-24.63,45.229-34.025
	C678.212,1253.758,693.874,1246.603,709.69,1239.772z"/>
<path style="fill:#008553;" d="M938.549,1075.185c16.406-21.256,30.9-43.635,42.816-66.726
	c38.241-74.1,32.225-159.115,44.048-240.116l-52.788-86.04c-12.302,10.315-23.46,21.786-33.157,34.593l0.1,0.501
	C939.229,836.66,938.89,955.922,938.549,1075.185z"/>
<path style="fill:#008553;" d="M1551.638,564.686c29.097-29.096,58.193-58.193,87.289-87.289
	c49.309-49.308,98.618-98.617,147.923-147.923c-61.291-53.364-120.509-41.033-178.087-2.536
	c-10.634,19.764-17.627,40.72-23.108,62.199C1574.317,447.654,1562.979,506.17,1551.638,564.686z"/>
<path style="fill:#008553;" d="M483.525,1632.8c13.248-13.248,26.497-26.497,39.746-39.745
	c-46.462-133.655-92.928-267.311-139.392-400.964c-2.262,2.36-4.525,4.66-6.786,7.084
	c-23.762,25.464-198.434,249.389,42.242,497.815C440.732,1675.593,462.128,1654.197,483.525,1632.8z"/>
<path style="fill:#008553;" d="M390.109,1188.555c46.234,132.989,92.466,265.976,138.699,398.962
	c13.723-13.723,27.446-27.447,41.169-41.169c-2.519-5.752-5.053-11.486-7.6-17.183c-28.628-64.032-17.653-129.417,19.197-187.659
	c7.331-11.588,15.477-22.475,24.387-32.6l-122.798-202.651c-30.928,21.859-62.6,48.205-94.306,80.638
	C389.381,1187.292,389.846,1187.797,390.109,1188.555z"/>
<path style="fill:#008553;" d="M1025.424,956.335c-44.66,59.387-73.907,127.814-87.104,199.468
	c-0.021,7.422-0.042,14.844-0.063,22.266c65.599-65.6,131.198-131.199,196.798-196.798l-0.005-0.031
	c2.89-46.227,5.778-92.454,8.667-138.681C1098.043,873.075,1058.238,912.701,1025.424,956.335z"/>
<path style="fill:#008553;" d="M1151.082,837.787c-2.832,45.317-5.665,90.635-8.497,135.952
	c46.95-46.95,93.901-93.901,140.85-140.85c18.499-18.499,36.999-36.999,55.498-55.498l-0.003-0.032
	c0.541-4.46,1.08-8.921,1.622-13.381c-55.881,16.95-113.12,31.293-164.819,59.251
	C1167.337,827.769,1159.132,832.653,1151.082,837.787z"/>
<path style="fill:#008553;" d="M1044.783,690.139l-0.01-0.042c8.024-22.327,17.892-43.606,29.385-63.864
	c-13.946,5.222-27.641,10.924-40.791,17.38L1044.783,690.139L1044.783,690.139z"/>
<path style="fill:#008553;" d="M1542.932,573.394l-0.006-0.81c0.697-3.596,1.393-7.192,2.09-10.788
	c-1.372,4.609-2.794,9.201-4.266,13.779C1541.477,574.848,1542.204,574.12,1542.932,573.394z"/>
<path style="fill:#008553;" d="M1347.887,761.738c-0.308,2.54-0.615,5.081-0.922,7.622c3.566-3.566,7.13-7.131,10.696-10.696
	c-2.971,0.952-5.942,1.893-8.906,2.81L1347.887,761.738z"/>
<path style="fill:#00A863;" d="M1548.74,578.399l-0.814-0.006c-4.083,4.084-8.168,8.167-12.251,12.251
	c-10.924,30.902-24.673,60.439-43.469,85.873c-29.331,39.69-73.926,61.353-119.539,77.136l-20.704,20.704
	c73.573-8.913,147.145-17.822,220.72-26.733c13.187-16.703,24.457-34.866,34.23-53.909l-71.967-23.029h82.924
	c6.069-13.726,11.534-27.738,16.507-41.852l0.016-0.001l-34.749,0.581l0.003-0.001l37.583-8.625c0.001,0,0.002-0.001,0.002-0.001
	l-0.098,0.023c3.313-9.754,6.442-19.527,9.393-29.256c3.424-11.294,6.76-22.655,10.023-34.046
	C1620.612,564.471,1584.675,571.434,1548.74,578.399z"/>
<path style="fill:#00A863;" d="M986.355,1453.967c11.67,20.499,24.565,40.415,38.061,59.911
	c10.326,14.915,21.037,29.764,31.582,44.766c0.021,0.026,0.048,0.045,0.068,0.073l6.582,1.576
	c14.864-28.282,26.78-55.254,37.212-80.277L986.355,1453.967z"/>
<path style="fill:#00A863;" d="M1040.27,1189.857c-34.689,0.099-69.378,0.198-104.066,0.297l-0.032-0.006
	c-1.053,1.053-2.105,2.105-3.158,3.158c-4.203,40.149-3.594,80.959,2.337,121.509c5.144,35.176,16.143,68.201,30.705,99.718
	c42.96,5.067,85.921,10.134,128.882,15.2c-14.887-23.928-28.382-48.695-38.929-75.224
	C1035.258,1302.316,1031.424,1245.288,1040.27,1189.857z"/>
<path style="fill:#00A863;" d="M975.544,1434.216C975.544,1434.217,975.543,1434.217,975.544,1434.216l113.594,1.899
	c-39.862-4.701-79.724-9.403-119.585-14.103c1.978,4.09,3.986,8.166,6.077,12.206L975.544,1434.216z"/>
<path style="fill:#00A863;" d="M1130.202,996.117c-62.316,62.316-124.632,124.632-186.948,186.948
	c32.74-0.093,65.478-0.186,98.216-0.279c9.9-55.168,32.249-108.473,62.971-153.503
	C1112.283,1017.788,1120.933,1006.717,1130.202,996.117z"/>
<path style="fill:#00A863;" d="M1682.602,443.717c-24.719,24.719-49.437,49.437-74.156,74.157
	c-17.27,17.27-34.54,34.539-51.81,51.81c34.018-6.592,68.034-13.185,102.052-19.776c6.237-22.203,12.017-44.554,16.634-67.058
	C1677.951,470.036,1680.148,456.854,1682.602,443.717z"/>
<path style="fill:#00A863;" d="M1383.813,862.956c58.508-18.604,114.668-42.976,160.554-84.763
	c7.823-7.124,15.039-14.753,21.827-22.716c-74.079,8.972-148.156,17.944-222.23,26.917l-0.036-0.003
	c-35.803,35.803-71.605,71.605-107.409,107.409c-24.232,24.233-48.465,48.465-72.698,72.698
	c18.035-15.907,37.506-30.132,58.02-41.956C1271.837,891.726,1329.331,880.281,1383.813,862.956z"/>
<path style="fill:#00A863;" d="M599.059,1622.661c-23.598-8.203-47.194-16.406-70.791-24.609
	c-25.075,25.075-50.15,50.15-75.225,75.225c-9.57,9.57-19.14,19.14-28.711,28.711c55.271,53.546,109.322,86.512,160.249,105.178
	c12.651-19.89,21.594-42.006,25.359-65.16C616.607,1701.006,610.672,1661.247,599.059,1622.661z"/>
<path style="fill:#00A863;" d="M1175.733,823.229c51.698-27.958,108.938-42.302,164.819-59.251
	c9.008-74.381,18.017-148.763,27.028-223.145c0.54-4.468,7.615-4.511,7.066,0c-8.918,73.637-17.837,147.271-26.758,220.905
	l0.868-0.264c2.964-0.917,5.934-1.858,8.906-2.81c61.03-61.03,122.059-122.06,183.089-183.089c1.472-4.578,2.894-9.17,4.266-13.779
	c14.176-73.157,28.352-146.314,42.529-219.47c-0.75,0.581-1.499,1.15-2.248,1.737c-3.376,2.652-6.75,5.369-10.115,8.158
	c-0.603,0.499-1.203,1.018-1.806,1.521c-2.816,2.353-5.628,4.749-8.435,7.185c-0.966,0.838-1.931,1.678-2.896,2.525
	c-2.814,2.471-5.626,4.975-8.433,7.516c-0.559,0.506-1.12,1-1.678,1.509c-3.339,3.04-6.674,6.128-10.003,9.25
	c-0.864,0.811-1.727,1.632-2.591,2.448c-2.573,2.429-5.144,4.876-7.712,7.343c-0.956,0.918-1.911,1.833-2.865,2.756
	c-3.272,3.162-6.541,6.341-9.802,9.546l-27.051,117.861l1.547-92.49c-14.36,14.388-28.63,28.709-42.818,42.296v114.891
	l-28.412-88.791c-20.814,18.156-41.46,33.7-61.96,44.39c-63.306,33.01-125.964,40.875-194.247,56.863
	c-4.979,79.65-9.957,159.299-14.935,238.948C1159.132,832.653,1167.337,827.769,1175.733,823.229z"/>
<path style="fill:#00A863;" d="M1595.401,338.848c-3.248,16.763-6.497,33.526-9.745,50.289
	c5.481-21.478,12.474-42.434,23.108-62.199l0-0.001l-0.038,0.027c-3.403,2.275-6.799,4.67-10.19,7.121
	c-0.944,0.682-1.887,1.378-2.83,2.073l-0.629,0.475C1595.387,337.27,1595.566,337.99,1595.401,338.848z"/>
<path style="fill:#00A863;" d="M774.222,1211.377c-18.896,9.299-38.426,17.243-57.807,25.498
	c5.733,48.612,11.466,97.224,17.199,145.836c40.612-40.612,81.225-81.225,121.837-121.837
	c25.242-25.242,50.484-50.484,75.725-75.726l-0.005-0.029c0.095-33.618,0.192-67.237,0.287-100.855
	C888.459,1137.279,833.208,1182.351,774.222,1211.377z"/>
<path style="fill:#00A863;" d="M938.549,1075.185c-0.076,26.873-0.153,53.745-0.229,80.618
	c13.198-71.654,42.444-140.082,87.104-199.468c32.814-43.633,72.619-83.259,118.293-113.776
	c5.042-80.676,10.085-161.351,15.128-242.028c-9.622,2.325-19.35,4.82-29.218,7.602c-4.509,1.271-9.018,2.586-13.52,3.94
	c-0.652,0.196-1.302,0.402-1.954,0.6c-4.033,1.225-8.063,2.474-12.078,3.77l-0.965,0.316c-4.4,1.427-8.788,2.893-13.154,4.412
	l-0.106,0.037c-4.572,1.591-9.121,3.233-13.642,4.932c-11.516,20.285-21.4,41.596-29.435,63.956l44.893,182.972l-64.252-104.725v0
	c-11.823,81.001-5.807,166.016-44.048,240.116C969.449,1031.55,954.955,1053.929,938.549,1075.185z"/>
<path style="fill:#00A863;" d="M562.378,1529.165c2.547,5.696,5.081,11.431,7.6,17.183c52.44-52.441,104.88-104.881,157.32-157.321
	l-0.008-0.026c-5.866-49.743-11.733-99.486-17.599-149.229c-15.816,6.832-31.478,13.987-46.534,22.426
	c-16.759,9.394-31.791,20.874-45.229,34.025l0,0l12.845,53.624l-24.809-40.941c-8.91,10.126-17.056,21.012-24.387,32.6
	C544.724,1399.748,533.749,1465.134,562.378,1529.165z"/>
<path style="fill:#00A863;" d="M572.994,1553.325c-13.063,13.063-26.126,26.126-39.188,39.189
	c20.882,7.259,41.762,14.519,62.644,21.778C589.778,1593.632,581.622,1573.313,572.994,1553.325z"/>
<path style="fill:#41B38C;" d="M1492.206,676.517c18.797-25.434,32.546-54.97,43.469-85.873
	c-54.336,54.336-108.673,108.672-163.009,163.009C1418.279,737.87,1462.874,716.206,1492.206,676.517z"/>
<path style="fill:#41B38C;" d="M1617.868,670.685h31.968c13.588-14.187,27.909-28.458,42.296-42.818l-57.757,0.966
	C1629.402,642.947,1623.938,656.959,1617.868,670.685z"/>
<path style="fill:#41B38C;" d="M1606.911,693.715c-9.773,19.043-21.043,37.207-34.23,53.909c2.604-0.315,5.206-0.631,7.81-0.946
	c4.512-0.546,4.462,6.524,0,7.066c-4.766,0.578-9.532,1.155-14.298,1.732c-6.788,7.964-14.004,15.592-21.827,22.716
	c-45.886,41.788-102.046,66.159-160.554,84.763c-54.482,17.325-111.976,28.77-161.972,57.586
	c-20.514,11.823-39.985,26.049-58.02,41.956c-5.413,5.413-10.826,10.826-16.239,16.239c124.969-7.808,249.934-15.619,374.9-23.43
	c15.989-68.284,23.854-130.943,56.864-194.249c5.345-10.25,11.903-20.537,19.395-30.863c7.492-10.325,15.918-20.69,24.997-31.097
	L1606.911,693.715z"/>
<path style="fill:#41B38C;" d="M1140.05,986.269c-3.283,3.283-6.566,6.566-9.848,9.848c-9.268,10.6-17.918,21.67-25.761,33.166
	c-30.723,45.03-53.071,98.335-62.971,153.503c120.819-0.343,241.639-0.687,362.458-1.032l0.497,0.1
	c12.808-9.696,24.279-20.855,34.595-33.158l-190.765-117.04l229.456,56.3c11.157-22.729,20.307-46.969,28.106-71.576
	c2.599-8.202,5.049-16.445,7.372-24.685c2.782-9.868,5.277-19.595,7.601-29.215c-126.902,7.932-253.803,15.863-380.705,23.794
	L1140.05,986.269z"/>
<path style="fill:#41B38C;" d="M1040.27,1189.857c-8.846,55.431-5.012,112.459,15.738,164.651
	c10.547,26.529,24.043,51.296,38.929,75.224c7.317,0.863,14.635,1.726,21.952,2.589c0.885,0.104,1.545,0.509,2.082,1.016
	c6.208-15.09,12.191-29.136,18.379-41.787c22.87-46.748,43.164-97.395,84.227-128.19c45.02-33.758,108.733-38.803,158.68-65.906
	c2.877-1.561,5.695-3.188,8.458-4.877c1.961-1.199,3.86-2.469,5.767-3.731C1276.41,1189.185,1158.34,1189.521,1040.27,1189.857z"/>
<path style="fill:#41B38C;" d="M1646.526,591.554c-2.95,9.729-6.08,19.502-9.393,29.256l80.37-18.446
	c22.227-22.62,43.572-45.473,61.489-68.582c-40.815,7.908-81.629,15.818-122.444,23.727
	C1653.286,568.899,1649.95,580.26,1646.526,591.554z"/>
<path style="fill:#41B38C;" d="M1789.408,336.911c-3.678,7.27-14.632,14.632-20.332,20.332
	c-12.655,12.655-25.309,25.309-37.964,37.964c-16.17,16.17-32.34,32.34-48.51,48.51c-2.454,13.138-4.651,26.32-7.28,39.133
	c-4.617,22.504-10.397,44.855-16.634,67.058c41.262-7.996,82.524-15.991,123.784-23.987c0.863-0.166,1.59,0.016,2.229,0.329
	c45.764-61.875,64.754-125.621,7.14-191.785C1791.066,335.198,1789.855,336.027,1789.408,336.911z"/>
<path style="fill:#41B38C;" d="M969.553,1422.012c-79.076-9.326-158.153-18.652-237.228-27.978l-0.03-0.01
	c-53.1,53.1-106.199,106.2-159.301,159.301c8.628,19.988,16.785,40.307,23.456,60.967
	c112.106,38.974,224.211,77.947,336.317,116.921c0.758,0.263,1.265,0.727,1.663,1.25c27.878-27.251,51.268-54.477,71.159-81.229
	c3.25-4.371,6.408-8.73,9.479-13.075l-243.591-147.607l284.57,68.159c-10.56-15.025-21.289-29.897-31.63-44.834
	c-13.496-19.496-26.39-39.412-38.061-59.911v-0.001l-91.963-21.105l81.237,1.357C973.539,1430.177,971.53,1426.102,969.553,1422.012
	z"/>
<path style="fill:#41B38C;" d="M933.014,1193.305c-41.493,41.493-82.986,82.985-124.479,124.479
	c-23.307,23.308-46.616,46.616-69.924,69.924c75.816,8.942,151.63,17.884,227.445,26.825
	c-14.562-31.517-25.561-64.542-30.705-99.718C929.42,1274.264,928.811,1233.454,933.014,1193.305z"/>
<path style="fill:#41B38C;" d="M599.059,1622.661c11.613,38.587,17.548,78.346,10.88,119.344
	c-3.765,23.155-12.708,45.271-25.36,65.161c122.292,44.81,226.546,7.053,286.241-26.957l0.231-0.131
	c5.301-3.025,10.245-6.018,14.82-8.921l0.385-0.244c4.485-2.853,8.603-5.614,12.348-8.228l0.478-0.333
	c1.822-1.277,3.558-2.519,5.195-3.717l0.353-0.26c1.544-1.132,3.001-2.225,4.374-3.273l0.374-0.284
	c1.38-1.058,2.663-2.062,3.862-3.018l0.614-0.494c1.07-0.859,2.076-1.679,2.99-2.442l0.271-0.225
	c0.957-0.801,1.806-1.532,2.583-2.211l0.501-0.441c0.727-0.644,1.401-1.249,1.948-1.759c2.424-2.262,4.725-4.524,7.085-6.787
	C819.173,1699.18,709.117,1660.922,599.059,1622.661z"/>
<path style="fill:#065731;" d="M483.525,1632.8c-21.397,21.396-42.793,42.793-64.19,64.19
	c-19.493,19.492-38.985,38.985-58.476,58.476c-12.655,12.655-25.307,25.307-37.962,37.962c-5.7,5.7-16.658,13.062-20.332,20.332
	c-0.472,0.933-1.81,1.809-2.573,2.573c-3.214,3.214,1.777,8.217,4.997,4.996c39.782-39.781,79.562-79.561,119.343-119.342
	c9.571-9.571,19.141-19.141,28.711-28.711c25.074-25.075,50.15-50.15,75.225-75.225c23.598,8.203,47.194,16.406,70.791,24.609
	c110.058,38.261,220.115,76.519,330.173,114.782c0.581,0.202,1.161,0.404,1.742,0.606c3.532,1.229,5.302-3.154,3.455-5.585
	c-0.398-0.523-0.904-0.987-1.663-1.25c-112.107-38.974-224.211-77.947-336.317-116.921c-20.882-7.259-41.762-14.519-62.644-21.778
	c13.063-13.063,26.126-26.126,39.188-39.189c53.101-53.1,106.201-106.2,159.301-159.301l0.03,0.01
	c79.076,9.326,158.152,18.652,237.228,27.978c39.861,4.701,79.723,9.403,119.585,14.103c9.25,1.091,18.501,2.182,27.751,3.273
	c3.619,0.426,4.257-3.994,2.082-6.05c-0.537-0.507-1.197-0.912-2.082-1.016c-7.317-0.863-14.634-1.726-21.952-2.589
	c-42.961-5.066-85.921-10.133-128.882-15.2c-75.815-8.941-151.629-17.883-227.445-26.825c23.308-23.308,46.616-46.616,69.924-69.924
	c41.493-41.493,82.986-82.986,124.479-124.479c1.053-1.053,2.105-2.105,3.158-3.158l0.032,0.006
	c34.688-0.099,69.377-0.198,104.066-0.297c118.07-0.336,236.14-0.672,354.213-1.009c3.148-0.009,6.297-0.018,9.445-0.027
	c4.362-0.016,4.501-6.438,0.497-6.967l-0.497-0.1c-120.819,0.345-241.639,0.688-362.458,1.032
	c-32.738,0.093-65.477,0.187-98.216,0.279c62.317-62.316,124.632-124.632,186.948-186.948c3.282-3.282,6.566-6.566,9.848-9.848
	l0.034,0.005c126.902-7.932,253.803-15.863,380.705-23.794c1.023-0.064,2.046-0.128,3.069-0.192c4.523-0.283,4.548-7.351,0-7.066
	l-1.377,0.086c-124.966,7.81-249.931,15.622-374.9,23.43c5.414-5.413,10.827-10.827,16.239-16.239
	c24.233-24.233,48.466-48.466,72.698-72.698c35.803-35.803,71.606-71.606,107.409-107.409l0.036,0.003
	c74.074-8.974,148.151-17.946,222.23-26.917c4.766-0.577,9.532-1.154,14.298-1.732c4.462-0.542,4.512-7.612,0-7.066
	c-2.604,0.315-5.206,0.631-7.81,0.946c-73.575,8.911-147.146,17.82-220.72,26.733c6.901-6.901,13.803-13.803,20.704-20.704
	c54.336-54.336,108.673-108.673,163.009-163.009c4.083-4.084,8.168-8.167,12.251-12.251l0.814,0.006
	c35.934-6.965,71.872-13.927,107.808-20.891c40.815-7.909,81.628-15.819,122.444-23.727c1.759-0.341,3.517-0.681,5.275-1.022
	c3.607-0.7,3.085-5.211,0.433-6.511c-0.639-0.313-1.366-0.495-2.229-0.329c-41.26,7.996-82.522,15.991-123.784,23.987
	c-34.018,6.591-68.034,13.184-102.052,19.776c17.27-17.27,34.54-34.54,51.81-51.81c24.72-24.72,49.438-49.438,74.156-74.157
	c16.169-16.169,32.34-32.34,48.51-48.51c12.655-12.655,25.309-25.309,37.964-37.964c5.7-5.7,16.654-13.063,20.332-20.332
	c0.448-0.884,1.658-1.713,2.434-2.448l0.137-0.123c3.217-3.217-1.776-8.218-4.997-4.997l-0.13,0.13
	c-49.306,49.306-98.615,98.615-147.923,147.923c-29.096,29.096-58.193,58.193-87.289,87.289
	c11.34-58.516,22.679-117.032,34.018-175.549c3.248-16.763,6.497-33.526,9.745-50.289c0.166-0.857-0.014-1.578-0.322-2.215
	l-0.005-0.01c-1.297-2.651-5.81-3.178-6.509,0.434c-0.34,1.757-0.681,3.513-1.02,5.269c-14.177,73.156-28.352,146.313-42.529,219.47
	c-0.698,3.596-1.393,7.192-2.09,10.788l0.006,0.81c-0.727,0.726-1.455,1.454-2.182,2.181
	c-61.03,61.03-122.059,122.059-183.089,183.089c-3.566,3.565-7.13,7.13-10.696,10.696c0.308-2.54,0.615-5.081,0.922-7.622
	c8.921-73.635,17.84-147.269,26.758-220.905c0.549-4.511-6.525-4.468-7.066,0c-9.011,74.382-18.02,148.764-27.028,223.145
	c-0.541,4.46-1.081,8.921-1.622,13.381l0.003,0.032c-18.499,18.499-36.999,36.999-55.498,55.498
	c-46.949,46.95-93.901,93.901-140.85,140.85c2.832-45.317,5.665-90.635,8.497-135.952c4.978-79.649,9.956-159.298,14.935-238.948
	l0.085-1.374c0.285-4.548-6.785-4.525-7.066,0c-0.064,1.022-0.128,2.044-0.191,3.066c-5.042,80.677-10.086,161.352-15.128,242.028
	c-2.889,46.227-5.778,92.454-8.667,138.681l0.005,0.031c-65.6,65.599-131.199,131.198-196.798,196.798
	c0.021-7.422,0.042-14.844,0.063-22.266c0.076-26.873,0.153-53.745,0.229-80.618c0.34-119.263,0.68-238.525,1.02-357.788l-0.1-0.501
	c-0.534-4-6.955-3.865-6.968,0.499c-0.009,3.149-0.018,6.297-0.027,9.445c-0.338,119.143-0.678,238.285-1.017,357.426
	c-0.095,33.618-0.192,67.237-0.287,100.855l0.005,0.029c-25.242,25.242-50.483,50.484-75.725,75.726
	c-40.611,40.612-81.224,81.224-121.837,121.837c-5.733-48.612-11.466-97.224-17.199-145.836
	c-9.138-77.48-18.276-154.96-27.414-232.439c-0.104-0.886-0.509-1.547-1.017-2.084c-2.057-2.174-6.476-1.536-6.049,2.084
	c1.091,9.245,2.181,18.491,3.271,27.736c8.162,69.2,16.322,138.4,24.483,207.6c5.867,49.743,11.734,99.486,17.599,149.229
	l0.008,0.026c-52.44,52.44-104.88,104.88-157.32,157.321c-13.723,13.723-27.447,27.446-41.169,41.169
	c-46.233-132.987-92.465-265.974-138.699-398.962c-0.263-0.758-0.727-1.264-1.251-1.662c-2.431-1.846-6.815-0.082-5.584,3.454
	c0.202,0.581,0.404,1.161,0.606,1.743c46.464,133.653,92.93,267.309,139.392,400.964
	C510.022,1606.303,496.774,1619.552,483.525,1632.8z"/>
</svg>
