<svg xmlns="http://www.w3.org/2000/svg"  viewBox="0 0 50 50" width="50px" height="50px" baseProfile="basic"><rect width="14" height="4" x="32" y="23" fill="#ff64bd"/><rect width="14" height="4" x="4" y="23" fill="#ff64bd"/><path fill="#ffd217" d="M25,36c-6.065,0-11-4.935-11-11s4.935-11,11-11s11,4.935,11,11S31.065,36,25,36z M25,18 c-3.86,0-7,3.141-7,7s3.14,7,7,7s7-3.141,7-7S28.86,18,25,18z"/><path fill="#ff64bd" d="M35.245,47H14.755C8.273,47,3,41.727,3,35.245v-20.49C3,8.273,8.273,3,14.755,3h20.489 C41.727,3,47,8.273,47,14.755v20.49C47,41.727,41.727,47,35.245,47z M14.755,7C10.479,7,7,10.479,7,14.755v20.49 C7,39.521,10.479,43,14.755,43h20.489C39.521,43,43,39.521,43,35.245v-20.49C43,10.479,39.521,7,35.245,7H14.755z"/><circle cx="37" cy="13" r="2" fill="#742bc9"/><path fill="#d8007c" d="M35.809,23h-4.104C31.895,23.634,32,24.305,32,25s-0.105,1.366-0.295,2h4.104 C35.929,26.35,36,25.684,36,25S35.929,23.65,35.809,23z"/><path fill="#d8007c" d="M18,25c0-0.695,0.105-1.366,0.295-2h-4.104C14.071,23.65,14,24.316,14,25s0.071,1.35,0.191,2h4.104 C18.105,26.366,18,25.695,18,25z"/><rect width="4" height="4" x="43" y="23" fill="#d8007c"/><rect width="4" height="4" x="3" y="23" fill="#d8007c"/></svg>