<svg id="facebook-icon" xmlns="http://www.w3.org/2000/svg"  viewBox="0 0 50 50" width="50px" height="50px" baseProfile="basic"><path fill="#16d6fa" d="M30,47h-4V30h5v-2h-5v-6.659c0-2.279,1.765-4.153,4-4.327L29.952,14C26.119,14,23,17.119,23,20.952 V28h-5v2h5v17h-4V34h-5V24h5v-3.048C19,14.913,23.913,10,29.952,10H34v11h-3.659C30.153,21,30,21.153,30,21.341V24h5v10h-5V47z"/><path fill="#16d6fa" d="M25,2C12.317,2,2,12.317,2,25c0,12.008,9.251,21.89,21,22.908v-4.015C13.46,42.89,6,34.801,6,25 C6,14.523,14.523,6,25,6s19,8.523,19,19c0,10.139-7.989,18.424-18,18.949v4.025C38.22,47.449,48,37.347,48,25 C48,12.317,37.683,2,25,2z"/><path fill="#00a4ff" d="M19,43.014v4.187c1.292,0.35,2.629,0.588,4,0.707v-4.015C21.616,43.747,20.28,43.441,19,43.014z"/><path fill="#00a4ff" d="M26,43.949v4.025c1.368-0.059,2.704-0.24,4-0.528V43.31C28.715,43.662,27.378,43.877,26,43.949z"/></svg>