<?xml version="1.0" encoding="utf-8"?>
<!-- Generator: Adobe Illustrator 25.2.0, SVG Export Plug-In . SVG Version: 6.00 Build 0)  -->
<svg version="1.1" id="Layer_1" xmlns="http://www.w3.org/2000/svg" xmlns:xlink="http://www.w3.org/1999/xlink" x="0px" y="0px"
	 viewBox="0 0 197.3 209.2" style="enable-background:new 0 0 197.3 209.2;" xml:space="preserve">
<style type="text/css">
	.st0{fill:#2D7323;}
	.st1{fill:#325009;}
</style>
<g>
	<path class="st0" d="M108.3,122c-5.1-16.1-7.8-25.6-0.2-38c13.8-22.4-0.3-26.8,2.8-36.5c2.1-6.6,14.3-18.1,13.7-30.3
		C123.6-5,90.6-6.3,85.1,16.5c-2.5,10.4,2.7,19,1.4,25.6c-1.2,6.7-3.9,9.5-3.5,14.6c0.5,5.8,7.3,17.1,8,22c0.9,6-2.5,11.2-0.2,20
		c-7.1-11.9-28.4-45.9-52.6-44c-10.3,0.8-17.8,4.7-20.8,8.4c-3.4,4.1-2.2,9.2-6.4,11.8c-5.3,3.2-15.4,6.7-9,17.9
		C8.5,104,20,97,20,97c4.7-2.9,6.1-4.2,8.8-5.1c2.8-0.9,6.3,1.3,11.4-1s6.4-10.9,19.4-7.8c13,3.1,22.9,17.1,33.2,45.3l13.5,14.3
		L108.3,122L108.3,122z"/>
	<path class="st1" d="M31.5,173.8c8.4-11.4,23-6.8,32.2-10.9c7.7-3.4,27.3-15.6,42.2-2.8c0,0-14.6-44.5-38.3-35.9
		C57.4,128,55,136,57.4,142.7s0.9,11.7-11,16c-17.9,6.5-21.7-6.7-22.6-12.9c-0.3-2.1-1-4.1-2-5.9c-5.6-10.3-4.4-17.2,3.8-20.2
		c19.6-7.1,12.4-10.2,26.2-15.2c12.9-4.7,35.7-0.4,51.2,28.3c0,0-10.1-42.4,33.1-61.4c20.9-9.1,44.3,0.2,50.9,18.7
		c4.2,11.4,0.4,16.5-4.2,17.8c-10.1,2.9-10.4-7.4-15.9-6.7c-3.2,0.4-4.4,5.2-10.2,5.6c-7.9,0.6-10.8-7.9-18.5-4.7
		c-8.8,3.6-0.3,10-7.3,16.7c-5.6,5.4-12.4,2.9-16.6,6.8c-4,3.7-4.1,11.9,0.6,22.9c6.4-12.6,24.2-24.5,48-30.3
		c23.8-5.8,28.7,12.8,34.2,37.9l-18.2,6.6c-10.3-28.3-21.9-31.4-31.7-28.5c-10.8,3.2-7,11.4-13.4,16c-6.4,4.7-8.7,0.4-12.7,3.2
		c-2.9,2-2.6,4.8-1.7,7.6l7.4,20.6l-10.5,3.8c0,0-5.3-25.7-28.7-19.1c-31.9,9-18.9,36.4-18.9,36.4l-15,5.4c0,0-8.1,3.1-12-3.2
		C35.9,195.5,22,186.7,31.5,173.8L31.5,173.8z"/>
</g>
</svg>
