<?xml version="1.0" encoding="utf-8"?>
<!-- Generator: Adobe Illustrator 27.5.0, SVG Export Plug-In . SVG Version: 6.00 Build 0)  -->
<svg version="1.1" id="BASE" xmlns="http://www.w3.org/2000/svg" xmlns:xlink="http://www.w3.org/1999/xlink" x="0px" y="0px"
	 viewBox="0 0 2122 2122" style="enable-background:new 0 0 2122 2122;" xml:space="preserve">
<g>
	<path style="fill:#17773E;" d="M1852.458,1973.02c-14.828-123.607-45.465-245.104-85.584-363.109
		c1.378-21.806,2.495-43.786,3.334-65.914c12.62-332.398-36.636-697.472-182.173-990.168
		c-39.135-78.706-114.895-215.555-203.806-245.497c-56.995-19.193-105.869,12.074-71.921,65.816
		c-178.226-135.572-354.98-267.532-596.304-213.234c-29.786,6.702-101.106,50.799-123.692,49.807
		c-42.941-1.82-86.875-49.56-145.867-51.133c-57.916-1.572-111.282,6.371-162.911,30.779c14.158-6.686,28.837-7.433,43.434-3.897
		c-5.993,5.34-6.001,16.948,4.109,19.998c19.726,5.952,39.288,12.273,58.689,18.944c36.019,34.977,64.541,83.873,72.813,111.649
		c20.302,68.169,20.863,141.663,17.539,212.16c-2.064,43.761-30.101,108.342-9.647,152.476c-2.418,1.723-3.721,4.894-1.756,8.304
		c1.28,2.222,2.609,4.39,3.983,6.507c-8.102-3.786-16.625-5.755-23.599-3.659c-19.642,5.906-19.283,37.452-17.985,53.288
		c2.096,25.585,9.608,49.148,21.646,71.908c24.661,46.635,61.369,86.362,98.614,123.217c70.834,70.093,182.87,99.937,239.517,180.52
		c31.929,45.421,35.323,104.242,63.285,147.179c59.406,91.094,176.811,87.951,274.608,81.912c7.276-0.413,14.389-0.993,21.335-1.654
		c99.569-9.476,205.3-33.583,304.503-9.553c86.68,20.998,139.583,90.603,196.885,153.748
		c45.276,49.892,79.395,104.366,108.947,161.123c29.466,96.974,49.668,196.636,62.884,298.483
		C1825.708,1991.279,1854.698,1991.69,1852.458,1973.02z"/>
	<path style="fill:#126031;" d="M742.446,308.092c22.933,29.986,47.29,66.991,79.054,88.151
		c10.001,6.663,20.242-6.068,15.449-15.448c-17.295-33.844-48.923-63.133-72.122-93.174c-25.213-32.648-48.145-66.907-72.798-99.95
		c-9.826-13.17-30.97-1.901-22.578,13.198C690.479,238.699,716.172,273.739,742.446,308.092z"/>
	<path style="fill:#126031;" d="M892.773,413.738c5.935,6.532,15.265-1.769,11.666-9.002
		c-40.592-81.585-100.653-157.113-155.256-229.787c-6.698-8.915-21.597-1.017-15.395,8.999
		C782.02,261.836,830.999,345.749,892.773,413.738z"/>
	<path style="fill:#158546;" d="M1852.458,1973.02c-14.828-123.607-45.465-245.104-85.584-363.109
		c-7.739-22.762-15.826-45.394-24.226-67.886c0.166-0.943,0.041-1.983-0.494-3.053c-0.856-1.706-1.715-3.412-2.575-5.12
		c-3.346-8.87-6.736-17.717-10.174-26.542c-5.387-13.828-10.978-27.53-16.757-41.118c4.788-121.784-3.812-244.268-24.213-364.982
		c0.045-0.05,0.09-0.098,0.134-0.148c26.845-30.184,15.23-96.119,10.87-132.067c-5.533-45.602-14.811-87.462-28.226-131.138
		c-8.788-28.61-82.371-298.602-152.67-267.53c-3.002-6.246-6.033-12.474-9.098-18.683c-19.922-40.386-40.3-80.551-62.345-119.827
		c-17.991-32.054-38.565-76.811-74.901-90.983c-6.897-2.69-13.848,6.706-9.731,12.658c9.562,13.824,22.269,24.657,32.677,37.825
		c12.68,16.043,23.292,33.603,33.896,51.054c20.329,33.454,40.041,67.457,57.749,102.38c6.065,11.96,11.999,23.992,17.807,36.088
		c-30.119,35.705,25.725,118.205,46.952,145.031c-108.748-34.099-80.798,248.723,39.914,259.647
		c-5.222-0.472,24.538,87.251,28.759,94.908c11.775,21.359,29.219,39.733,48.811,34.191c5.798,37.194,10.523,74.553,14.151,112.016
		c6.295,64.999,9.464,130.527,10.091,195.956c-34.331-74.1-74.266-144.864-118.16-213.521c-1.037-3.787-2.028-7.544-2.944-11.266
		c-8.73-35.434-18.571-70.55-28.554-105.649c-19.97-70.208-40.743-140.275-64.768-209.216
		c-46.417-133.194-98.605-265.355-167.043-388.928c-19.411-35.05-39.766-69.643-61.492-103.311
		c-21.356-33.091-42.338-68.406-71.975-94.657c-6.772-5.999-16.985,1.485-12.6,9.722c16.3,30.616,39.367,56.937,59.193,85.368
		c20.566,29.491,40.223,59.685,58.333,90.75c34.862,59.8,65.843,121.811,93.751,185.141
		c57.817,131.203,99.771,268.79,138.551,406.639c7.223,25.675,14.053,51.465,21.094,77.193
		c-16.541-24.282-33.53-48.338-50.897-72.222c-61.973-85.229-126.924-168.767-195.744-248.858
		c-14.21-41.046-32.346-81.204-49.55-120.123c-12.287-27.799-25.108-55.364-38.444-82.679c9.189-3.367,17.641-9.943,24.86-20.661
		c41.893-62.203,11.924-156.743-31.48-209.707c-25.339-30.919-63.29-72.655-107.246-67.498
		c-17.556,2.06-32.612,10.312-43.985,22.232c-4.798-7.229-9.634-14.434-14.51-21.611c-19.56-28.789-39.748-57.148-60.537-85.062
		c-19.382-26.026-37.712-56.716-64.882-74.845c-3.468-2.315-9.046,1.596-7.421,5.704c12.346,31.196,37.581,55.991,57.512,82.796
		c20.767,27.933,40.925,56.318,60.459,85.127c5.66,8.349,11.267,16.734,16.822,25.153c-6.171,11.306-9.837,24.156-10.44,37.386
		c-1.505,32.95,4.186,68.861,17.989,98.951c9.459,20.619,22.894,38.38,37.63,55.656c21.279,24.947,65.796,66.124,104.56,69.021
		c13.375,27.094,26.241,54.438,38.586,82.018c10.632,23.754,20.353,48.072,30.033,72.434
		c-40.651-45.486-82.652-89.708-126.173-132.327c0.032-2.707-0.873-5.399-2.996-7.461c-9.604-9.326-20.21-17.807-31.463-25.643
		c-85.769-80.797-177.399-155.262-276.136-220.937c-145.17-96.562-305.899-173.347-475.97-213.577
		c-4.26-1.008-7.781,0.131-10.27,2.35c-5.993,5.34-6.001,16.948,4.109,19.998c19.726,5.952,39.288,12.273,58.689,18.944
		c207.974,71.512,397.142,183.66,565.818,323.08c-42.143-19.421-85.255-36.802-129.084-52.003
		c-106.034-36.775-215.842-59.751-328.131-62.887c-8.171-0.229-10.375,13.205-1.974,14.591
		c107.454,17.73,214.638,41.273,317.755,76.674c52.523,18.032,103.922,39.223,153.833,63.571
		c30.027,14.65,58.941,32.854,88.616,49.004c17.428,16.319,34.61,32.929,51.541,49.811c34.764,34.664,68.563,70.294,101.486,106.727
		c-4.082-2.283-8.418-4.475-13.063-6.607c-25.852-11.86-53.093-20.044-81.035-25.224c-39.808-7.381-80.143-9.567-120.523-9.529
		c-2.21-59.979-79.647-106.223-133.067-131.664c-49.631-23.635-114.748-47.727-176.678-50.492
		c-28.737-1.283-56.788,2.028-82.286,12.106c-19.021,7.518-35.056,15.669-51.054,27.349c-33.965,24.799-48.828,81.24-18.518,112.212
		c27.973,28.583,74.699,38.214,115.854,48.271c-64.105,0.88-131.568-9.399-169.253-67.002c-2.454-3.752-6.738-3.695-9.533-1.705
		c-2.418,1.723-3.721,4.894-1.756,8.304c1.28,2.222,2.609,4.39,3.983,6.507c30.842,47.53,84.884,68.998,139.743,75.805
		c-25.449,17.424-39.65,45.997-29.103,76.231c20.738,59.449,81.475,85.995,145.236,102.628
		c91.161,23.781,179.756,31.38,271.82,24.612c-70.594,14.335-137.966,42.755-185.494,93.532c-5.42,5.79,1.503,15.476,8.642,11.2
		c51.03-30.57,99.509-56.401,157.727-71.169c14.179-3.596,28.491-6.549,42.895-8.918c-17.978,41.66,35.249,90.088,84.47,116.137
		c37.282,19.73,83.552,35.544,128.456,34.148c-24.3,7.064-46.397,18.602-61.852,36.22c-7.114,8.111-0.423,22.189,10.985,18.872
		c25.43-7.392,48.615-20.666,74.692-26.657c26.945-6.19,55.42-7.46,82.958-5.338c58.742,4.526,116.031,26.527,164.491,59.676
		c55.205,37.764,98.696,88.27,136.52,143.273c10.124,19.017,19.945,38.224,29.428,57.644c6.654,13.625,13.067,27.317,19.249,41.073
		c0.138,0.378,0.299,0.734,0.482,1.073c26.099,58.204,48.053,117.573,66.411,177.986c29.466,96.974,49.668,196.636,62.884,298.483
		C1825.708,1991.279,1854.698,1991.69,1852.458,1973.02z"/>
	<path style="fill:#126031;" d="M1766.874,1609.911c-7.737-22.762-15.826-45.394-24.225-67.886c0.166-0.942,0.041-1.983-0.495-3.052
		c-0.856-1.706-1.714-3.412-2.574-5.121c-3.346-8.869-6.737-17.717-10.175-26.542c-5.387-13.827-10.978-27.529-16.757-41.117
		c4.787-121.785-3.813-244.268-24.213-364.983c-31.093-183.981-89.594-363.853-169.893-530.883
		c-3.002-6.245-6.033-12.474-9.097-18.683c-19.923-40.386-40.302-80.551-62.346-119.827c-17.991-32.054-38.564-76.812-74.901-90.983
		c-6.898-2.69-13.848,6.707-9.731,12.659c9.563,13.824,22.271,24.656,32.677,37.824c12.68,16.043,23.293,33.603,33.897,51.055
		c20.328,33.454,40.041,67.456,57.748,102.38c6.065,11.96,11.999,23.992,17.807,36.088c29.061,60.516,54.889,122.677,77.09,185.986
		c39.603,112.931,68.911,229.525,87.346,347.792c5.798,37.194,10.523,74.553,14.151,112.016
		c6.295,64.999,9.464,130.526,10.092,195.957c-34.331-74.1-74.267-144.865-118.159-213.521c-1.037-3.787-2.029-7.545-2.945-11.266
		c-8.729-35.433-18.57-70.55-28.554-105.649c-19.97-70.209-40.742-140.276-64.767-209.216
		c-46.417-133.193-98.605-265.355-167.043-388.928c-19.411-35.05-39.766-69.643-61.492-103.311
		c-21.355-33.091-42.337-68.406-71.974-94.658c-6.773-5.999-16.985,1.486-12.601,9.722c16.3,30.616,39.367,56.937,59.193,85.368
		c20.566,29.492,40.223,59.685,58.333,90.75c34.862,59.8,65.843,121.811,93.751,185.141
		c57.817,131.202,99.771,268.79,138.551,406.639c7.223,25.675,14.052,51.464,21.093,77.192
		c-16.541-24.281-33.53-48.337-50.897-72.221c-61.972-85.229-126.924-168.767-195.743-248.857
		c-14.211-41.046-32.347-81.204-49.551-120.123c-12.287-27.799-25.108-55.364-38.444-82.679
		c-18.48-37.85-37.954-75.216-58.395-112.04c-30.981-55.814-64.158-110.407-99.457-163.595c-4.798-7.229-9.635-14.434-14.51-21.611
		c-19.56-28.789-39.748-57.148-60.536-85.062c-19.382-26.027-37.712-56.716-64.882-74.845c-3.468-2.314-9.047,1.596-7.421,5.704
		c12.346,31.195,37.582,55.991,57.511,82.796c20.768,27.933,40.925,56.317,60.459,85.127c5.66,8.348,11.267,16.734,16.822,25.153
		c33.584,50.893,65.245,103.06,94.865,156.356c19.137,34.435,37.438,69.333,54.874,104.658
		c13.375,27.094,26.241,54.439,38.586,82.018c10.632,23.754,20.353,48.071,30.033,72.434
		c-40.651-45.486-82.652-89.708-126.172-132.327c0.031-2.707-0.873-5.399-2.996-7.461c-9.604-9.326-20.21-17.807-31.462-25.643
		c-85.77-80.797-177.4-155.262-276.137-220.938c-145.171-96.561-305.899-173.347-475.97-213.577c-4.26-1.007-7.781,0.131-10.27,2.35
		c-5.993,5.341-6.001,16.948,4.109,19.998c19.726,5.953,39.287,12.273,58.688,18.944c207.974,71.511,397.143,183.659,565.819,323.08
		c-42.143-19.421-85.255-36.802-129.084-52.003c-106.034-36.776-215.843-59.751-328.132-62.887
		c-8.171-0.229-10.376,13.205-1.975,14.591c107.455,17.73,214.638,41.273,317.755,76.674
		c52.523,18.032,103.922,39.222,153.833,63.572c30.027,14.649,58.941,32.854,88.616,49.003
		c17.428,16.319,34.609,32.929,51.541,49.811c34.765,34.665,68.563,70.294,101.487,106.728c-4.082-2.284-8.418-4.475-13.064-6.607
		c-25.852-11.86-53.092-20.044-81.035-25.224c-39.808-7.38-80.142-9.567-120.522-9.529c-23.379,0.021-46.774,0.788-70.089,1.726
		c-79.64,3.203-159.055,9.528-238.595,14.526c-12.059,0.758-24.498,1.358-37.065,1.532c-64.104,0.879-131.568-9.4-169.252-67.002
		c-2.454-3.752-6.738-3.696-9.533-1.705c-2.418,1.722-3.721,4.893-1.757,8.303c1.28,2.222,2.609,4.39,3.983,6.507
		c30.842,47.53,84.884,68.998,139.743,75.805c2.234,0.277,4.469,0.53,6.704,0.76c78.424,8.045,159.97,1.649,238.701,0.53
		c69.414-0.986,138.799-7.317,208.141-0.649c9.534,0.917,18.928,2.202,28.197,3.827c54.798,9.608,105.165,31.18,153.462,59.857
		c4.969,2.951,11.026,0.354,13.652-4.013c12.416,14.443,24.708,28.994,36.879,43.644c2.397,4.779,4.847,9.528,7.363,14.239
		c1.137,2.131,3.464,1.768,4.687,0.343c37.622,45.777,74.105,92.484,109.605,139.848c6.713,8.955,13.387,17.933,20.024,26.934
		c-26.048-20.587-53.486-39.927-83.431-54.468c-0.056-0.027-0.113-0.056-0.169-0.083c-60.052-29.115-129.639-36.779-195.607-39.167
		c-50.341-1.823-106.242,0.901-160.256,11.87c-70.593,14.335-137.965,42.755-185.494,93.532c-5.419,5.79,1.503,15.476,8.642,11.2
		c51.03-30.57,99.509-56.401,157.728-71.168c14.179-3.597,28.49-6.549,42.895-8.918c43.722-7.192,88.291-8.999,132.554-7.061
		c65.438,2.866,131.476,12.36,191.12,40.67c7.326,3.477,14.522,7.206,21.601,11.145c18.607,10.352,36.402,22.162,53.591,34.713
		c22.843,16.679,44.818,38.175,70.042,51.784c25.275,36.17,49.771,72.822,73.253,110.107c1.898,6.27,3.96,12.436,6.266,18.422
		c-19.976-20.017-41.595-38.409-65.201-54.652c-49.524-34.078-107.395-56.16-167.205-62.582c-17.166-1.843-36.844-2.302-56.85-0.586
		c-15.561,1.336-31.319,3.987-46.246,8.326c-24.299,7.064-46.397,18.601-61.852,36.219c-7.115,8.111-0.423,22.189,10.985,18.873
		c25.43-7.393,48.614-20.666,74.692-26.657c26.945-6.19,55.42-7.46,82.958-5.339c58.743,4.526,116.031,26.527,164.492,59.677
		c55.205,37.764,98.696,88.269,136.519,143.272c10.126,19.017,19.946,38.224,29.429,57.644
		c6.653,13.625,13.066,27.317,19.248,41.073c0.138,0.378,0.3,0.734,0.482,1.073c26.1,58.204,48.053,117.573,66.41,177.986
		c29.467,96.973,49.669,196.636,62.885,298.484c2.369,18.259,31.36,18.67,29.12,0
		C1837.63,1849.413,1806.994,1727.916,1766.874,1609.911z"/>
</g>
</svg>
