<?xml version="1.0" encoding="utf-8"?>
<!-- Generator: Adobe Illustrator 27.5.0, SVG Export Plug-In . SVG Version: 6.00 Build 0)  -->
<svg version="1.1" id="Capa_1" xmlns="http://www.w3.org/2000/svg" xmlns:xlink="http://www.w3.org/1999/xlink" x="0px" y="0px"
	 viewBox="0 0 1733 2599" style="enable-background:new 0 0 1733 2599;" xml:space="preserve">
<path style="fill:#F49729;" d="M1117.801,1729.081c-122.534-87.092-169.901-260.391-164.358-404.046
	c2.196-57.872,26.351-109.469,38.631-165.404c1.516-7.005,0.734-17.042-6.426-17.931c-3.294-0.417-6.379,1.674-9.046,3.712
	c-5.824,4.443-11.362,9.238-16.753,14.192c3.036-11.44,5.669-21.054,8.023-26.89c23.988-59.477,50.469-117.921,78.204-175.736
	c56.18-117.101,117.731-231.505,175.915-347.603c5.436-10.851,10.979-22.302,10.52-34.427c-0.466-12.128-9.189-24.859-21.314-25.297
	c-8.115-0.293-15.371,4.726-21.714,9.789c-31.822,25.414-57.744,57.389-81.958,90.13c-31.066,42-59.671,85.798-85.865,130.994
	c18.732-99.634,26.332-201.467,18.139-302.577c-6.003-74.055-20.533-147.461-44.694-217.766
	c-15.3-44.508-34.633-88.163-63.174-125.583c-11.707-15.347-37.252-28.991-47.187-12.442c-3.539,5.884-2.841,13.295-1.802,20.08
	c5.459,35.513,17.287,69.671,27.52,104.113c63.042,212.129,65.369,441.762,7.875,655.386c-3.03-53.121-9.827-105.993-21.265-158.044
	C863.37,590.323,787.714,443.512,669.16,340.487c-12.913-11.221-34.102-21.448-45.039-8.294c-4.189,5.039-5.025,12.054-4.839,18.605
	c0.752,27.309,15.658,51.914,29.579,75.418c91.905,155.141,160.061,326.665,186.203,505.671
	c6.612,45.305,10.526,91.013,11.344,136.795c0.039,2.187,0.024,4.407-0.008,6.636c-7.219-41.604-21.016-82.89-35.222-119.196
	c-32.18-82.259-82.155-157.724-146.611-218.24c-18.808-17.653-41.286-34.325-65.984-44.371c-9.291-3.78-30.391-10.833-37.682,0.221
	c-8.748,13.273,11.176,37.214,18.677,46.311c48.029,58.259,93.856,114.218,128.776,181.617
	c39.831,76.868,67.368,160.127,80.8,245.668c0.296,1.88,0.546,4.328,0.8,7.147c-15.563-15.357-34.735-27.088-55.649-33.506
	c-7.375-2.25-17.985-2.25-20.026,5.227c-1.044,3.711,0.836,7.581,2.668,11.03c14.691,27.705,29.382,55.832,37.849,86.049
	c34.502,123.319,5.174,266.925-63.884,373.256c-72.458,111.662-207.278,157.823-283.442,265.619
	c-78.521,111.089-74.445,260.129-13.121,379.267c39.204,76.114,100.837,134.978,173.821,175.964
	c137.434,77.214,315.331,91.117,460.295,38.213c130.327-47.519,240.527-153.692,281.718-286.11
	C1370.823,1994.595,1271.811,1838.496,1117.801,1729.081z"/>
<path style="fill:#649930;" d="M1211.197,549.649c-8.115-0.293-15.371,4.726-21.714,9.789
	c-31.822,25.414-57.744,57.389-81.958,90.13c-31.066,42-59.671,85.798-85.865,130.994c18.732-99.634,26.332-201.467,18.139-302.577
	c-6.003-74.055-20.533-147.461-44.694-217.766c-15.3-44.508-34.633-88.163-63.174-125.583
	c-11.707-15.347-37.252-28.991-47.187-12.442c-3.539,5.884-2.841,13.295-1.802,20.08c5.459,35.513,17.287,69.671,27.52,104.113
	c63.042,212.129,65.369,441.762,7.875,655.386c-3.03-53.121-9.827-105.993-21.265-158.044
	C863.37,590.323,787.714,443.512,669.16,340.487c-12.913-11.221-34.102-21.448-45.039-8.294c-4.189,5.039-5.025,12.054-4.839,18.605
	c0.752,27.309,15.658,51.914,29.579,75.418c91.905,155.141,160.061,326.665,186.203,505.671
	c6.612,45.305,10.526,91.013,11.344,136.795c0.039,2.187,0.024,4.407-0.008,6.636c-7.219-41.604-21.016-82.89-35.222-119.196
	c-32.18-82.259-82.155-157.724-146.611-218.24c-18.808-17.653-41.286-34.325-65.984-44.371c-9.291-3.78-30.391-10.833-37.682,0.221
	c-8.748,13.273,11.176,37.214,18.677,46.311c48.029,58.259,93.856,114.218,128.776,181.617
	c39.831,76.868,67.368,160.127,80.8,245.668c0.296,1.88,0.546,4.328,0.8,7.147c6.492,6.407,12.42,13.378,17.483,20.964
	c-0.107-24.466-0.262-48.931-0.364-73.449c0-3.92,0.048-8.154,2.452-11.239c7.005-9.097,20.76,1.465,26.768,11.292l5.654,9.245
	l25.008,40.894l3.577,5.851c12.441-27.655,24.889-55.308,37.33-82.963c4.439-9.882,10.974-21.225,21.852-21.697
	c2.768,34.922,2.506,70.155-0.841,105.078c-0.573,6.012-1.253,12.074-1.982,18.089c9.673-13.407,20.782-25.751,32.959-36.937
	c3.036-11.44,5.669-21.054,8.023-26.89c23.988-59.477,50.469-117.921,78.204-175.736c56.18-117.101,117.731-231.505,175.915-347.603
	c5.436-10.851,10.979-22.302,10.52-34.427C1232.046,562.818,1223.322,550.087,1211.197,549.649z"/>
<path style="fill:#327230;" d="M1039.799,477.984c-6.003-74.055-20.533-147.461-44.694-217.766
	c-15.3-44.508-34.633-88.163-63.174-125.583c-11.707-15.347-37.252-28.991-47.187-12.442c-3.539,5.884-2.841,13.295-1.802,20.08
	c5.459,35.513,17.287,69.671,27.52,104.113c63.042,212.129,65.369,441.762,7.875,655.386c1.785,31.315,2.263,62.714,1.565,94.089
	c27.783-74.46,61.908-146.538,101.758-215.3C1040.392,680.928,1047.992,579.094,1039.799,477.984z"/>
<path style="fill:#7CBB49;" d="M811.176,956.123c-32.18-82.259-82.155-157.724-146.611-218.24
	c-18.808-17.653-41.286-34.325-65.984-44.371c-9.291-3.78-30.391-10.833-37.682,0.221c-8.748,13.273,11.176,37.214,18.677,46.311
	c48.029,58.259,93.856,114.218,128.776,181.617c39.831,76.868,67.368,160.127,80.8,245.668c0.296,1.88,0.546,4.328,0.8,7.147
	c6.492,6.407,12.42,13.378,17.483,20.964c-0.107-24.466-0.262-48.931-0.364-73.449c0-3.92,0.048-8.154,2.452-11.239
	c7.005-9.097,20.76,1.465,26.768,11.292l5.654,9.245c1.918-19.067,4.208-38.153,4.453-55.969
	C839.179,1033.715,825.382,992.43,811.176,956.123z"/>
<path style="fill:#7CBB49;" d="M1211.197,549.649c-8.115-0.293-15.371,4.726-21.714,9.789
	c-31.822,25.414-57.744,57.389-81.958,90.13c-31.066,42-59.671,85.798-85.865,130.994c-39.849,68.762-73.975,140.84-101.758,215.3
	c-20.611,55.238-37.791,111.755-51.305,169.146c-0.561,2.379-1.111,4.773-1.644,7.175l3.577,5.851
	c12.441-27.655,24.889-55.308,37.33-82.963c4.439-9.882,10.974-21.225,21.852-21.697c2.768,34.922,2.506,70.155-0.841,105.078
	c-0.573,6.012-1.253,12.074-1.982,18.089c9.673-13.407,20.782-25.751,32.959-36.937c3.036-11.44,5.669-21.054,8.023-26.89
	c23.988-59.477,50.469-117.921,78.204-175.736c56.18-117.101,117.731-231.505,175.915-347.603
	c5.436-10.851,10.979-22.302,10.52-34.427C1232.046,562.818,1223.322,550.087,1211.197,549.649z"/>
<path style="fill:#E2821A;" d="M1117.801,1729.081c-122.534-87.092-169.901-260.391-164.358-404.046
	c2.196-57.872,26.351-109.469,38.631-165.404c1.516-7.005,0.734-17.042-6.426-17.931c-3.294-0.417-6.379,1.674-9.046,3.712
	c-5.824,4.443-11.362,9.238-16.753,14.192c-12.177,11.186-23.287,23.53-32.959,36.937c0.728-6.014,1.408-12.077,1.982-18.089
	c-13.169,42.396-20.963,87.772-26.5,120.813c-3.192-18.925-7.214-37.745-12.023-56.356c-1.414-5.331-3.139-11.135-7.632-14.428
	c-14.219-10.455-28.129,13.853-29.328,31.524c-8.628,124.208-15.526,256.575,45.535,365.048
	c24.674,43.965,59.331,81.343,93.624,118.304c39.156,42.238,78.312,84.478,117.468,126.666
	c38.529,41.507,78.103,84.843,95.563,138.69c18.922,58.34,9.148,123.217-16.415,178.944
	c-57.612,125.568-188.721,204.82-323.541,234.826c-97.341,21.643-197.504,21.329-297.453,14.9
	c137.434,77.214,315.331,91.117,460.295,38.213c130.327-47.519,240.527-153.692,281.718-286.11
	C1370.823,1994.595,1271.811,1838.496,1117.801,1729.081z"/>
<path style="fill:#FCC86A;" d="M770.845,2337.595c-18.325-23.749-35.039-48.987-45.869-77.113
	c-13.993-36.354-18.337-74.484-17.054-113.249c1.378-41.644,9.153-82.653,18.229-123.214c7.465-33.371,34.86-93.511,27.95-126.956
	c-4.995-24.167-20.18-15.1-39.681-4.269c-7.602,4.225-43.166,22.191-45.111,31.172c7.453-34.391,14.899-68.782,22.353-103.17
	c3.461-15.983,2.297-39.037-13.939-40.967c-9.201-1.092-16.982,6.31-23.266,13.119c-29.495,31.965-58.984,63.928-88.474,95.882
	c1.594-26.798,17.609-55.47,15.729-81.946c-4.451-62.767-113.153,72.667-122.576,87.645
	c-31.739,50.464-50.577,109.334-51.162,169.122c-0.967,99.62,50.69,199.53,135.626,251.587c5.651,3.464,11.881,6.829,18.492,6.337
	c17.686-1.319,21.451-25.455,20.085-43.142c49.456,42.945,102.067,96.676,159.441,128.686c17.376,9.691,52.778,19.605,58.739-7.873
	C805.895,2373.692,784.718,2355.571,770.845,2337.595z"/>
<path style="fill:#275124;" d="M803.186,1069.51c-10.287-73.401-39.645-147.431-83.014-207.648c-2.082-2.894-6.349-0.45-4.792,2.805
	c32.294,67.497,60.13,134.981,84.339,205.801C800.489,1072.708,803.503,1071.759,803.186,1069.51z"/>
<path style="fill:#275124;" d="M873.132,955.165c0,4.64,7.005,4.61,7.19,0c2.733-68.114-1.969-136.423-17.251-202.943
	c-14.804-64.471-35.713-134.489-73.127-189.822c-2.327-3.446-8.789-1.402-7.166,3.022c22.812,61.96,50.308,120.514,65.751,185.132
	C864.569,817.687,873.126,886.141,873.132,955.165z"/>
<path style="fill:#275124;" d="M966.374,1005.25c-0.638,3.732,4.087,6.086,6.271,2.643c15.437-24.292,23.362-53.886,35.63-80.069
	c10.866-23.203,22.108-46.269,33.827-69.051c25.05-48.691,60.375-92.708,82.095-142.849c1.647-3.798-2.811-8.226-6.152-4.75
	c-37.903,39.383-61.252,93.573-86.218,141.593c-13.545,26.046-26.029,52.522-37.569,79.517
	C984.149,955.929,970.729,979.92,966.374,1005.25z"/>
<path style="fill:#275124;" d="M986.943,514.724c2.076,34.277,3.097,68.705,2.792,103.045c-0.298,34.075-6.045,69.541-0.931,103.287
	c0.238,1.567,2.404,1.218,2.834,0c11.385-32.124,10.186-69.624,11.069-103.287c0.997-38.21,0.114-76.36-2.769-114.475
	c-5.036-66.644-9.702-142.951-36.142-204.865c-1.033-2.407-5.012-1.151-4.875,1.319c1.862,32.816,10.222,64.802,15.294,97.218
	C980.325,435.987,984.544,475.299,986.943,514.724z"/>
<path style="fill:#E2821A;" d="M1005.679,2331.377c33.338-19.014,56.95-60.282,73.281-93.865
	c16.332-33.595,26.942-69.821,31.393-106.909c9.213-76.778-6.778-177.935-63.287-235.1c-3.646-3.688-8.616,0.97-6.737,5.197
	c16.457,37.077,36.632,70.984,46.609,110.821c9.643,38.482,12.137,78.631,7.214,117.984c-4.732,37.861-16.338,74.556-33.47,108.636
	c-16.284,32.402-42.026,57.466-59.701,88.543C999.282,2329.673,1002.683,2333.086,1005.679,2331.377z"/>
<path style="fill:#E2821A;" d="M844.132,1689.229c26.291,45.822,55.75,88.239,75.686,137.604
	c19.662,48.679,32.724,100.154,38.768,152.301c11.976,103.412-6.014,204.187-41.346,301.365c-1.002,2.741,3.348,4.543,4.702,1.984
	c49.95-94.743,62.105-207.368,48.375-312.657c-12.704-97.457-49.169-213.779-121.949-283.863
	C846.173,1683.854,842.587,1686.538,844.132,1689.229z"/>
<path style="fill:#E2821A;" d="M817.692,2105.153c-2.476-57.508,6.397-113.506,18.755-169.507c0.656-2.974-3.419-3.995-4.493-1.239
	c-21.648,55.685-28.606,116.606-25.7,176.128c2.667,54.673,11.295,115.898,39.025,163.912c1.772,3.067,6.373,0.985,5.597-2.36
	C837.837,2215.675,820.21,2163.753,817.692,2105.153z"/>
<path style="fill:#E2821A;" d="M566.842,2184.455c-15.586-40.2-33.994-76.477-41.053-119.616
	c-7.907-48.348-3.353-95.822,4.41-143.833c0.65-4.025-4.72-5.597-6.14-1.695c-29.453,80.914-19.483,200.291,35.206,269.557
	C562.032,2192.368,568.441,2188.576,566.842,2184.455z"/>
<path style="fill:#E2821A;" d="M689.167,2293.411c2.261,2.235,7.059-0.006,5.734-3.338c-20.735-51.964-49.598-98.938-64.599-153.5
	c-16.475-59.939-17.174-123.516-7.131-184.598c0.531-3.222-4.35-4.648-4.965-1.369c-11.111,59.623-10.162,119.079-0.03,178.777
	C627.843,2186.353,646.944,2251.729,689.167,2293.411z"/>
<path style="fill:#E2821A;" d="M686.482,1729.737c87.698-88.569,128.406-213.8,118.727-337.179c-0.167-2.172-3.485-2.235-3.431,0
	c3.049,123.056-41.293,239.104-118.244,334.231C681.888,1728.83,684.549,1731.686,686.482,1729.737z"/>
<path style="fill:#E2821A;" d="M796.127,1674.73c-24.835,47.952-34.525,105.757-23.492,158.924c0.37,1.763,3.18,1.363,3.133-0.424
	c-1.605-55.3,4.117-105.226,21.929-157.841C798.001,1674.473,796.575,1673.864,796.127,1674.73z"/>
<path style="fill:#C13818;" d="M901.559,1477.079c-10.765-41.922-11.91-84.225-17.919-126.738c-0.722-5.117-8.008-3.29-8.419,1.14
	c-4.112,43.834,6.665,91.362,18.564,133.289c12.155,42.796,28.338,86.347,54.05,122.928c1.653,2.351,4.946,0.358,3.813-2.229
	C932.994,1563.125,913.136,1522.131,901.559,1477.079z"/>
<path style="fill:#C13818;" d="M942.195,1426.409c-6.074-31.992-10.245-63.421-13.575-95.801c-0.34-3.344-4.713-3.267-5.144,0
	c-4.189,32.025,0.74,67.452,12.811,97.428C937.744,1431.657,942.941,1430.348,942.195,1426.409z"/>
<path style="fill:#C13818;" d="M1074.581,2400.189c-0.65,0.436-0.059,1.471,0.621,1.06
	c145.388-87.934,221.606-267.931,169.447-432.954c-0.71-2.258-4.051-1.336-3.544,0.976c19.602,88.701,16.929,175.423-20.754,259.204
	C1188.863,2298.486,1138.429,2357.716,1074.581,2400.189z"/>
<path style="fill:#C13818;" d="M1124.388,1790.592c23.755,27.824,45.923,57.141,68.622,85.815c0.639,0.812,1.742-0.221,1.349-1.038
	c-31.053-64.474-82.155-129.844-142.464-169.465c-2.321-1.528-4.463,1.752-2.822,3.658
	C1073.191,1737.482,1100.412,1762.502,1124.388,1790.592z"/>
<path style="fill:#C13818;" d="M972.902,2437.88c-52.343,25.064-105.946,35.999-162.806,44.789
	c-1.724,0.268-1.163,2.783,0.388,2.888c58.143,3.888,114.586-15.38,164.023-44.926
	C976.291,2439.566,974.727,2437.006,972.902,2437.88z"/>
<path style="fill:#FCC86A;" d="M810.394,1346.728c0.585,2.727,5.209,2.888,5.675,0c8.76-54.825-19.172-121.645-58.107-159.614
	c-1.779-1.73-4.768,0.486-3.467,2.673c15.114,25.396,30.289,50.819,39.967,78.903
	C803.264,1294.242,804.779,1320.553,810.394,1346.728z"/>
<path style="fill:#FCC86A;" d="M878.377,1899.853c14.858,71.721,15.848,142.759,10.234,215.465c-0.209,2.733,4.29,3.371,4.815,0.653
	c13.873-72.44,8.909-146.656-7.728-218.138C884.589,1893.05,877.393,1895.088,878.377,1899.853z"/>
</svg>
