<?xml version="1.0" encoding="utf-8"?>
<!-- Generator: Adobe Illustrator 27.5.0, SVG Export Plug-In . SVG Version: 6.00 Build 0)  -->
<svg version="1.1" id="Capa_1" xmlns="http://www.w3.org/2000/svg" xmlns:xlink="http://www.w3.org/1999/xlink" x="0px" y="0px"
	 viewBox="0 0 2217 2031" style="enable-background:new 0 0 2217 2031;" xml:space="preserve">
<path style="fill:#C89643;" d="M1734.555,1455.898c-65.621,58.383-148.953,89.301-225.34,130.262
	c-52.754,27.82-106.75,53.883-163.395,72.789c-94.613,26.793-190.637,49.023-287.961,63.301
	c-62.566,6.82-125.586,0.168-188.32,2.137c-53.035-1.352-105.785,7.902-158.762,3.332c-51.957-3.383-104.941-5.133-154.871-21.383
	c-35.883-12.07-73.852-20.258-105.559-41.75c-25.953-17.375-50.891-36.332-78.141-51.625c-22.621-13.77-47.336-23.582-69.789-37.465
	c-40.961-28.09-61.613-76.617-101.438-105.836c0.766,2.602,1.574,5.191,2.406,7.777c18.465,49.43,44.883,91.926,44.883,91.926
	l-0.012-0.008c20.621,30.895,45.512,59.031,73.113,83.66c110.242,95.633,254.23,141.668,396.063,164.75
	c77.855,16.016,157.691,16.973,236.785,14.496c133.434-6.711,266.473-26.461,395.383-62.117
	c101.836-27.926,199.449-71.762,288.191-128.973c76.105-52.582,142.449-120.398,189.734-200.176
	c26.066-43.949,55.738-85.867,77.402-132.188c-20.82,7.73-36.559,23.75-52.863,38.254
	C1810.883,1381.141,1776.922,1423.117,1734.555,1455.898z"/>
<path style="fill:#F2D587;" d="M288.426,1340.57c13.32,11.344,27.762,21.891,38.141,36.281
	c11.852,16.473,19.691,35.434,30.465,52.637c22.117,23.918,45.816,50.043,78.871,57.715c40.512,9.93,82.539,10.551,123.957,14.273
	c45.977,3.949,91.961-4.227,135.688-18.168c66.516-19.18,129.762-53.988,175.965-106.289c23.023-25.895,43.672-55.008,73.91-73.23
	c64.766-41.695,141.832-56.191,211.852-86.66c73.344-31.313,144.094-68.434,218.117-98.285c6.277-2.547,12.457-5.262,18.574-8.113
	c7.023-2.754,14.023-5.559,20.996-8.434c100.184-41.23,194.836-95.895,280.633-162.055c48.988-37.781,96.871-81.836,117.844-140.043
	c22.465-62.359,10.355-132.996-18.254-192.789c-4.43-9.25-9.293-18.297-14.566-27.117c-18.07-35.449-43.898-66.813-72.414-94.293
	c-39.664-37.742-89.199-62.172-135.297-90.664c-39.379-23.133-71.48-56.813-98.504-93.203
	c-21.555-28.828-33.168-63.133-46.602-96.082c3.105-0.059,9.305-0.113,12.414-0.168c-58.848-11.789-119.727-9.648-179.242-5.473
	c-82.824,8.234-165.93,32.098-236.004,77.801l-3.27,0.059c-34.02,18.113-63.246,43.609-94.273,66.18
	c-10.047,7.613-21.043,14.551-28.043,25.328c-31.816,20.988-56.762,50.551-83.84,77.012
	c-66.348,71.371-125.695,148.832-187.871,223.813c-47.332,57.996-104.711,106.465-162.488,153.574
	c-75.371,61.719-144.316,132.641-195.375,216.023c-1.277,2.25-2.641,4.477-4.043,6.684c-6.871,11.566-13.164,23.266-18.949,35.012
	c-0.168,0.602-0.328,1.195-0.477,1.801c-0.867,1.523-1.73,3.039-2.602,4.563c-12.914,27.203-23.078,54.629-31.051,81.387
	c2.102,21.469,4.082,42.992,7.98,64.242C228.789,1276.426,256.039,1312.871,288.426,1340.57z M1225.648,300.336
	c24.727-2.199,62.363,9.516,57.426,40.906c-6.711,27.008-39.844,30.367-62.566,36.715c-20.293,3.625-46.039,19.043-62.883-0.172
	C1125.633,341.305,1196.141,302.973,1225.648,300.336z M1052.129,398.137c15.039-23.48,49.262-8.074,47.617,16.488
	c-1.32,19.648-31.371,25.453-44.059,13.313C1047.855,420.441,1046.281,407.27,1052.129,398.137z M858.953,667.262
	c49.219-85.836,129.125-148.996,212-200.508c68.758-39.148,142.445-73.598,220.754-87.293c23.563-0.738,44.793,17.48,48.273,40.625
	c6.984,44.215-8.031,88.148-22.84,129.176c-30.289,73.723-76.051,143.375-140.59,191.394
	c-73.313,53.086-168.609,75.266-257.856,59.645c-28.383-5.938-60.941-15.75-75.605-43.152
	C829.914,727.164,845.313,694.211,858.953,667.262z"/>
<path style="fill:#E8BF67;" d="M2011.285,706.258c-12.645-49.816-28.555-100.199-54.676-144.484
	c-11.563-26.18-27.301-50.16-43.613-73.516l-1.52-0.449c-53.48-73.457-130.551-130.273-217.324-157.746
	c-42.992-13.883-80.512-39.27-117.41-64.43c-35.543-22.402-73-43.109-113.793-53.938c-7.504-2.371-15.063-5.023-22.734-5.813
	c-3.109,0.055-9.309,0.109-12.414,0.168c13.434,32.949,25.047,67.254,46.602,96.082c27.023,36.391,59.125,70.07,98.504,93.203
	c46.098,28.492,95.633,52.922,135.297,90.664c28.516,27.481,54.344,58.844,72.414,94.293c5.273,8.82,10.137,17.867,14.566,27.117
	c28.609,59.793,40.719,130.43,18.254,192.789c-20.973,58.207-68.855,102.262-117.844,140.043
	c-85.797,66.16-180.449,120.824-280.633,162.055c-6.973,2.875-13.973,5.68-20.996,8.434c-6.117,2.852-12.297,5.566-18.574,8.113
	c-74.023,29.852-144.773,66.973-218.117,98.285c-70.02,30.469-147.086,44.965-211.852,86.66
	c-30.238,18.223-50.887,47.336-73.91,73.23c-46.203,52.301-109.449,87.109-175.965,106.289
	c-43.727,13.941-89.711,22.117-135.688,18.168c-41.418-3.723-83.445-4.344-123.957-14.273
	c-33.055-7.672-56.754-33.797-78.871-57.715c-1.301,20.313-1.98,40.684-2.648,61.043c-34.25-6.207-57.094-38.191-64.883-70.242
	c-6.77-26.906-20.539-51.449-25.559-78.816c8.125-0.336,16.301-0.672,24.484-0.902c-32.387-27.699-59.637-64.145-67.758-106.684
	c-3.898-21.25-5.879-42.773-7.98-64.242c-38.035,127.609-26.266,239.98-26.266,239.98c1.637,1.133,4.906,3.449,6.547,4.633
	c31.426,34.809,52.41,78.477,88.351,109.508c28.32,26.629,65.949,39.266,97.602,61.152c96.309,66.293,213.715,110.98,332.137,98.738
	c81.301-9.648,160-35.379,234.246-69.453c66.688-25.895,136.426-43.215,205.93-59.75c52.641-12.582,102.176-34.582,151.262-56.867
	c56.137-25.73,114.129-47.109,170.723-71.875c69.902-33.457,138.508-73.066,193.965-127.902
	c39.836-39.32,69.395-88.355,113.344-123.672c44.008-36.387,101.496-50.098,147.363-83.445
	c47.336-34.242,74.699-87.328,97.215-139.746c0.617,3.328,1.801,9.988,2.43,13.313
	C2036.273,878.277,2031.086,790.438,2011.285,706.258z M601.543,1639.066c-30.57-28.508,18.453-85.781,50.09-61.09
	C688.144,1606.469,637.293,1672.395,601.543,1639.066z M732.555,1640.426c-9.07,8.957-18.391,8.734-25.031,3.914
	c-9.063-6.59-13.117-21.742-4.652-33.77C723.75,1580.902,755.512,1617.742,732.555,1640.426z M1071.813,1422.27
	c-42.914-47.324,69.609-107.359,87.902-40.848C1171.738,1425.133,1099.254,1452.531,1071.813,1422.27z M1428.32,1383.031
	c-14.922,25.34-47.352,37.289-76.352,32.469c-56.734-9.43-68.484-68.539-27.238-105.699
	C1373.629,1265.75,1466.016,1319,1428.32,1383.031z M1963.172,718.449c12.41,41.277-49.566,64.875-68.449,26.711
	C1873.461,702.176,1948.672,670.195,1963.172,718.449z M1946.746,964.5c-81.488,31.156-127.547-95.719-45.363-124.379
	C1981.105,812.324,2025.922,934.227,1946.746,964.5z"/>
<path style="fill:#D7AA52;" d="M1927.891,1090.691c-45.867,33.348-103.355,47.059-147.363,83.445
	c-43.949,35.316-73.508,84.352-113.344,123.672c-55.457,54.836-124.063,94.445-193.965,127.902
	c-56.594,24.766-114.586,46.145-170.723,71.875c-49.086,22.285-98.621,44.285-151.262,56.867
	c-69.504,16.535-139.242,33.855-205.93,59.75c-74.246,34.074-152.945,59.805-234.246,69.453
	c-118.422,12.242-235.828-32.445-332.137-98.738c-31.652-21.887-69.281-34.523-97.602-61.152
	c-35.941-31.031-56.926-74.699-88.351-109.508c-1.641-1.184-4.91-3.5-6.547-4.633c1.699,19.172,7.074,39.762,13.988,59.578
	l0.57,0.457c39.824,29.219,60.477,77.746,101.438,105.836c22.453,13.883,47.168,23.695,69.789,37.465
	c27.25,15.293,52.188,34.25,78.141,51.625c31.707,21.492,69.676,29.68,105.559,41.75c49.93,16.25,102.914,18,154.871,21.383
	c52.977,4.57,105.727-4.684,158.762-3.332c62.734-1.969,125.754,4.684,188.32-2.137c97.324-14.277,193.348-36.508,287.961-63.301
	c56.645-18.906,110.641-44.969,163.395-72.789c76.387-40.961,159.719-71.879,225.34-130.262
	c42.367-32.781,76.328-74.758,117.512-108.836c16.305-14.504,32.043-30.523,52.863-38.254l1.473-0.676
	c26.402-50.551,53.93-100.93,72.324-155.098c21.891-61.215,42.598-123.785,48.809-188.777c-0.629-3.324-1.813-9.984-2.43-13.313
	C2002.59,1003.363,1975.227,1056.449,1927.891,1090.691z"/>
<path style="fill:#D7A64F;" d="M288.426,1340.57c-8.184,0.23-16.359,0.566-24.484,0.902c5.02,27.367,18.789,51.91,25.559,78.816
	c7.789,32.051,30.633,64.035,64.883,70.242c0.668-20.359,1.348-40.73,2.648-61.043c-10.773-17.203-18.613-36.164-30.465-52.637
	C316.188,1362.461,301.746,1351.914,288.426,1340.57z"/>
<path style="fill:#FFFAD2;" d="M1220.508,377.957c22.723-6.348,55.855-9.707,62.566-36.715
	c4.938-31.391-32.699-43.105-57.426-40.906c-29.508,2.637-100.016,40.969-68.023,77.449
	C1174.469,397,1200.215,381.582,1220.508,377.957z"/>
<path style="fill:#FFFAD2;" d="M918.695,800.301c89.246,15.621,184.543-6.559,257.856-59.645
	c64.539-48.019,110.301-117.672,140.59-191.394c14.809-41.027,29.824-84.961,22.84-129.176
	c-3.48-23.145-24.711-41.363-48.273-40.625c-78.309,13.695-151.996,48.145-220.754,87.293
	c-82.875,51.512-162.781,114.672-212,200.508c-13.641,26.949-29.039,59.902-15.863,89.887
	C857.754,784.551,890.313,794.363,918.695,800.301z"/>
<path style="fill:#FFFAD2;" d="M1055.688,427.938c12.688,12.141,42.738,6.336,44.059-13.313
	c1.645-24.563-32.578-39.969-47.617-16.488C1046.281,407.27,1047.855,420.441,1055.688,427.938z"/>
<path style="fill:#D7AA52;" d="M1901.383,840.121c-82.184,28.66-36.125,155.535,45.363,124.379
	C2025.922,934.227,1981.105,812.324,1901.383,840.121z"/>
<path style="fill:#D7AA52;" d="M1963.172,718.449c-14.5-48.254-89.711-16.273-68.449,26.711
	C1913.605,783.324,1975.582,759.727,1963.172,718.449z"/>
<path style="fill:#D7AA52;" d="M1324.73,1309.801c-41.246,37.16-29.496,96.27,27.238,105.699c29,4.82,61.43-7.129,76.352-32.469
	C1466.016,1319,1373.629,1265.75,1324.73,1309.801z"/>
<path style="fill:#D7AA52;" d="M1071.813,1422.27c27.441,30.262,99.926,2.863,87.902-40.848
	C1141.422,1314.91,1028.898,1374.945,1071.813,1422.27z"/>
<path style="fill:#D7AA52;" d="M651.633,1577.977c-31.637-24.691-80.66,32.582-50.09,61.09
	C637.293,1672.395,688.144,1606.469,651.633,1577.977z"/>
<path style="fill:#D7AA52;" d="M702.871,1610.57c-8.465,12.027-4.41,27.18,4.652,33.77c6.641,4.82,15.961,5.043,25.031-3.914
	C755.512,1617.742,723.75,1580.902,702.871,1610.57z"/>
</svg>
