<?xml version="1.0" encoding="utf-8"?>
<!-- Generator: Adobe Illustrator 27.5.0, SVG Export Plug-In . SVG Version: 6.00 Build 0)  -->
<svg version="1.1" id="Capa_1" xmlns="http://www.w3.org/2000/svg" xmlns:xlink="http://www.w3.org/1999/xlink" x="0px" y="0px"
	 viewBox="0 0 2122 2122" style="enable-background:new 0 0 2122 2122;" xml:space="preserve">
<g>
	<path style="fill:#91b821;" d="M1931.376,773.512c-2.441-4.567-7.79-6.607-12.713-8.215
		c-124.539-40.663-260.464-37.154-388.139-7.787c-127.676,29.368-248.266,83.579-364.897,143.249l-0.012,0.247
		c-32.366-0.611-64.72-1.715-97.055-3.271c24.38-29.439,49.436-58.312,75.09-86.647c78.272-2.196,263.603-15.62,398.009-90.801
		c169.9-95.036,281.519-327.973,273.077-337.917c-15.713-18.51-255.412-20.929-345.34,5.109
		c-89.928,26.038-175.11,74.248-234.811,146.366c-72.403,87.462-102.929,163.601-125.986,267.47
		c-42.784,47.97-83.774,97.531-123.1,148.387c-1.13-31.761-0.553-63.567,1.693-95.241c43.256-69.889,94.323-134.783,140.712-202.725
		c51.989-76.143,98.756-157.95,118.511-248.007c19.755-90.057,9.596-190.027-44.367-264.784
		c-141.681,49.984-257.412,168.44-304.085,311.246c-45.515,139.261-24.328,298.601,55.404,421.429
		c-1.939,37.714-1.5,75.529,1.313,113.194c0.112,1.496,0.445,2.93,0.874,4.322c-66.566,89.108-128.08,181.93-185.211,277.349
		c-11.967,19.987-23.687,40.117-35.287,60.316c-6.758-20.577-12.898-41.355-18.425-62.298
		c25.035-66.383,48.823-133.237,71.233-200.551c34.687-104.184,66.517-211.464,65.325-321.264
		c-1.193-109.8-39.922-223.989-124.982-293.432c-84.573,86.882-159.037,187.621-192.939,304.032
		c-53.491,183.676,8.003,395.418,150.565,522.709c7.666,28.764,16.475,57.221,26.463,85.274c0.39,1.094,0.88,2.131,1.44,3.118
		c-41.742,74.527-81.216,150.326-118.789,227.037c-1.098,2.241-2.17,4.494-3.264,6.736c-22.119-24.643-42.692-50.594-61.745-77.632
		c-37.671-178.445,5.056-369.762-33.685-549.467c-9.745-45.203-24.964-89.985-51.778-127.658
		c-26.814-37.673-66.312-67.799-111.76-76.328c-12.819-2.406-26.444-3.014-38.557,1.823c-22.548,9.006-33.877,33.754-42.5,56.452
		c-33.246,87.52-58.624,179.021-62.558,272.56c-3.934,93.539,14.661,189.635,64.03,269.183
		c59.556,95.961,159.965,161.236,267.569,196.234c16.391,21.65,33.732,42.583,52.012,62.642c1.167,1.282,2.571,2.215,4.06,2.966
		c-47.154,98.157-91.467,197.667-134.005,297.907c-6.077,14.32-12.12,28.656-18.137,43.001c-3.414,8.141,3.679,17.973,11.41,20.097
		c9.424,2.59,16.67-3.238,20.097-11.411c24.158-57.605,48.883-114.981,74.341-172.027c33.019,5.36,66.185,8.423,99.398,9.455
		c131.169,88.768,305.35,110.948,454.402,57.122c42.984-15.523,84.256-37.215,118.036-67.997
		c68.707-62.608,99.742-155.388,128.087-243.914c-250.132-40.527-517.283,44.964-697.958,222.497
		c-29.518-0.857-58.976-3.399-88.169-7.873c19.643-43.451,39.726-86.703,60.369-129.691
		c37.949-79.027,77.792-157.167,119.978-234.019c38.721-4.877,77.338-10.517,115.83-16.912
		c158.258,83.086,353.726,93.019,519.104,24.707c64.981-26.841,126.189-65.815,170.57-120.342
		c56.476-69.387,81.845-158.264,105.854-244.448c-297.968,5.927-592.676,117.932-819.581,311.121
		c-24.019,3.856-48.084,7.41-72.196,10.633c10.115-18.012,20.317-35.976,30.714-53.83
		c58.824-101.018,122.246-199.402,191.285-293.756c25.095-34.297,50.958-68.038,77.587-101.163c1.915,0.803,3.997,1.298,6.166,1.414
		c47.438,2.544,94.928,4.042,142.429,4.552c103.116,86.795,247.347,117.701,383.036,108.47
		c38.193-2.599,76.356-8.062,112.965-19.255c111.35-34.043,204.185-123.639,242.16-233.709
		C1932.342,784.347,1933.979,778.382,1931.376,773.512z"/>
	<path style="fill:#C7443C;" d="M1124.873,405.908c1.402,0.82,2.602,1.925,3.683,3.143c2.11-4.184,4.239-8.356,6.181-12.644
		c10.88-24.01,20.423-48.701,28.865-73.672c8.404-24.858,15.102-50.156,20.251-75.885c5.038-25.167,10.043-51.356,9.259-77.082
		c-0.026-0.884-1.291-0.952-1.512-0.131c-6.533,24.287-10.258,49.274-16.641,73.658c-6.569,25.092-14.494,49.933-23.565,74.234
		c-8.886,23.803-19.382,46.905-31.178,69.405c-3.174,6.055-6.416,12.08-9.618,18.126
		C1115.073,403.181,1120.234,403.195,1124.873,405.908z"/>
	<path style="fill:#C7443C;" d="M1085.639,433.841c-0.179-22.69-1.156-45.411-3.247-68.008c-2.05-22.157-4.9-44.257-8.572-66.204
		c-3.67-21.932-7.013-44.831-14.371-65.857c-0.511-1.459-2.869-1.145-2.741,0.491c1.711,21.989,6.112,43.801,8.271,65.785
		c2.121,21.582,3.406,43.231,3.832,64.912c0.427,21.734,0.256,43.464-0.806,65.179c-0.543,11.104-1.128,22.211-1.755,33.31
		c-0.195,3.468-0.49,6.95-0.721,10.43c6.443-11.828,13.077-23.551,20.042-35.079C1085.58,437.146,1085.652,435.497,1085.639,433.841
		z"/>
	<path style="fill:#C7443C;" d="M1102.327,488.294c7.743-5.956,15.7-11.616,23.589-17.376
		c16.105-11.761,32.466-23.189,48.219-35.424c28.911-22.456,55.609-49.537,69.705-83.815c0.45-1.096-1.019-2.459-1.854-1.325
		c-22.086,29.974-50.896,53.32-80.929,74.868c-15.466,11.097-31.448,21.439-47.033,32.361c-0.948,0.665-1.872,1.367-2.816,2.04
		c-7.899,13.229-15.389,26.693-22.598,40.311C1093.261,496.107,1097.699,491.852,1102.327,488.294z"/>
	<path style="fill:#C7443C;" d="M1012.203,566.795c-4.163-23.028-9.196-45.893-15.129-68.532
		c-11.759-44.885-27.614-88.018-47.646-129.862c-1.133-2.37-4.964-0.509-4.132,1.922c14.839,43.343,27.521,87.764,37.378,132.509
		c4.89,22.199,8.912,44.58,12.051,67.093c1.617,11.605,3.177,23.222,4.734,34.835c0.629,4.686,1.063,9.97,2.132,15.022
		c4.177-12.296,8.666-24.482,13.348-36.596C1014.105,577.715,1013.19,572.258,1012.203,566.795z"/>
	<path style="fill:#C7443C;" d="M1105.319,604.274c27.464-17.953,54.528-37.639,74.867-63.6c1.313-1.677-0.467-4.063-2.424-2.924
		c-27.575,16.049-52.988,35.337-80.434,51.663c-19.971,11.878-40.643,22.46-61.857,31.87c-3.04,8.697-5.949,17.441-8.72,26.228
		C1053.917,634.935,1080.243,620.665,1105.319,604.274z"/>
	<path style="fill:#C7443C;" d="M1015.836,737.462c10.978-7.31,21.501-15.422,31.944-23.471c9.98-7.692,19.556-16.07,28.651-24.794
		c9.447-9.061,19.438-17.547,29.015-26.477c1.574-1.468-0.68-4.233-2.424-2.925c-10.184,7.643-20.374,15.555-31.296,22.116
		c-10.97,6.591-21.9,13.313-32.662,20.236c-10.51,6.761-21.263,13.095-31.907,19.633c-0.134,0.082-0.266,0.165-0.399,0.247
		c-1.836,8.155-3.546,16.332-5.161,24.53C1006.371,743.572,1011.15,740.581,1015.836,737.462z"/>
	<path style="fill:#C7443C;" d="M975.711,695.044c-6.026-17.882-13.553-35.328-21.547-52.409
		c-15.516-33.163-36.256-65.136-60.274-92.786c-1.393-1.604-3.659,0.582-2.729,2.262c17.634,31.869,33.767,63.952,48.232,97.395
		c7.036,16.268,13.09,32.859,18.86,49.609c2.886,8.376,5.664,16.78,8.205,25.267c1.187,3.965,2.103,8.803,3.576,13.289
		c2.372-11.975,5.045-23.886,7.884-35.759C977.184,699.622,976.479,697.323,975.711,695.044z"/>
	<path style="fill:#C7443C;" d="M942.742,755.445c-9.021-14.766-19.394-28.017-31.997-39.908c-1.658-1.564-4.467,0.648-3.12,2.584
		c8.758,12.58,16.17,26.295,23.016,39.996c6.895,13.798,12.096,28.244,18.341,42.314c2.041,4.596,4.28,13.03,8.917,16.479
		c1.021-9.21,2.164-18.403,3.456-27.58C955.782,777.719,949.431,766.395,942.742,755.445z"/>
	<path style="fill:#C7443C;" d="M995.685,798.931c4.526-4.225,9.03-8.474,13.51-12.747c4.535-4.324,8.894-8.53,12.772-13.459
		c3.849-4.892,7.413-9.999,11.225-14.924c1.922-2.484-0.765-6.47-3.715-4.485c-5.073,3.414-10.318,6.505-15.426,9.853
		c-5.418,3.549-10.207,7.652-15.144,11.831c-0.959,0.813-1.93,1.612-2.892,2.423c-1.313,8.189-2.516,16.396-3.593,24.622
		C993.51,800.995,994.595,799.949,995.685,798.931z"/>
	<path style="fill:#C7443C;" d="M1463.174,517.914c8.835-4.462,17.609-9.045,26.488-13.154
		c22.04-10.202,44.346-19.828,66.884-28.878c45.5-18.269,92.072-33.989,138.841-48.669c12.96-4.067,25.955-8.036,38.944-12.006
		c13.425-4.104,27.206-7.38,40.034-13.14c1.648-0.74,1.416-3.267-0.58-3.239c-23.669,0.309-48.261,7.057-71.166,12.662
		c-24.091,5.896-48.006,12.331-71.562,20.108c-47.036,15.528-93.256,33.526-138.403,53.902c-8.191,3.697-16.68,7.32-25.146,11.095
		c0.037,0.061,0.093,0.112,0.128,0.172C1472.108,504.409,1469.26,512.564,1463.174,517.914z"/>
	<path style="fill:#C7443C;" d="M1417.736,553.085c0.703,0.089,1.402,0.179,2.087,0.281c6.879,1.023,13.773,1.949,20.679,2.777
		c12.606,1.513,25.255,2.706,37.921,3.607c26.166,1.86,52.725,2.853,78.934,1.336c51.667-2.992,106.626-8.855,154.511-29.527
		c0.744-0.322,0.661-1.568-0.268-1.496c-51.833,4.025-102.851,13.309-155.053,13.893c-25.874,0.289-51.625,0.342-77.459-1.448
		c-13.103-0.908-26.174-2.205-39.206-3.848c-1.063-0.134-2.12-0.304-3.182-0.444c-2.26,1.743-4.56,3.432-6.811,5.188
		C1425.805,546.591,1421.796,549.87,1417.736,553.085z"/>
	<path style="fill:#C7443C;" d="M1452.493,488.599c2.867-4.284,5.746-8.561,8.535-12.894c8.126-12.627,16.598-25.004,24.913-37.503
		c8.792-13.218,16.967-26.524,25.161-40.066c0.577-0.955-0.712-2.208-1.627-1.513c-12.429,9.433-22.767,19.251-32.885,31.227
		c-9.791,11.589-18.497,24.146-27.31,36.484c-9.304,13.024-18.074,26.417-26.985,39.711c-2.004,2.988-4.007,5.978-6.01,8.967
		c9.614-7.436,19.259-14.834,29.001-22.107C1447.421,489.312,1449.928,488.66,1452.493,488.599z"/>
	<path style="fill:#C7443C;" d="M1331.873,560.897c7.103-17.724,14.2-35.505,20.348-53.587c6.251-18.38,14.873-37.918,16.79-57.327
		c0.212-2.152-2.309-3.184-3.557-1.324c-10.633,15.866-16.657,35.403-24.465,52.792c-7.982,17.779-15.592,35.718-23.705,53.439
		c-7.901,17.26-16.126,34.372-24.271,51.519c-2.658,5.597-5.396,11.156-8.11,16.726c11.064-10.029,22.235-19.936,33.497-29.74
		C1323.01,582.614,1327.51,571.784,1331.873,560.897z"/>
	<path style="fill:#C7443C;" d="M1312.297,651.227c6.009,0.99,12.029,1.918,18.057,2.788c13.06,1.886,26.163,3.482,39.293,4.804
		c25.901,2.608,51.874,4.156,77.907,4.447c26.384,0.294,52.781-0.533,79.093-2.495c13.228-0.986,26.288-2.358,39.379-4.504
		c5.964-0.977,12.248-1.576,18.092-3.139c6.078-1.625,12.144-4.137,18.189-6.036c1.133-0.356,0.78-1.985-0.357-1.994
		c-6.589-0.051-13.23-0.861-19.767-0.777c-6.541,0.083-13.164,0.927-19.704,1.28c-12.158,0.653-24.286,1.593-36.44,2.313
		c-25.842,1.535-51.748,1.979-77.627,1.339c-25.723-0.636-51.466-2.208-77.059-4.879c-12.617-1.316-25.206-2.892-37.759-4.731
		c-5.201-0.761-10.394-1.589-15.581-2.44c-4.721,4.231-9.469,8.432-14.153,12.705
		C1306.687,650.411,1309.549,650.775,1312.297,651.227z"/>
	<path style="fill:#C7443C;" d="M1199.763,704.49c5.41-17.173,10.716-34.38,15.889-51.626c5.224-17.414,9.717-35.05,14.281-52.646
		c4.552-17.552,8.455-34.208,9.711-52.323c0.064-0.911-1.301-1.113-1.681-0.379c-8.192,15.809-13.578,31.677-19.129,48.556
		c-5.703,17.342-11.761,34.573-17.295,51.968c-5.363,16.856-10.841,33.677-16.43,50.46c-2.877,8.639-6.022,17.218-8.729,25.911
		c-0.575,1.848-1.267,3.837-1.935,5.898c4.412-4.573,8.785-9.183,13.234-13.721C1191.671,712.517,1195.743,708.53,1199.763,704.49z"
		/>
	<path style="fill:#C7443C;" d="M1233.858,716.568c3.624,1.183,7.41,2.016,11.118,3.045c8.136,2.257,16.305,4.388,24.506,6.392
		c16.416,4.012,32.941,7.426,49.601,10.254c16.253,2.758,32.415,4.738,48.868,5.797c8.35,0.538,16.751,1.128,25.12,1.225
		c8.385,0.099,16.718-1.347,25.071-2.067c0.699-0.06,0.838-1.108,0.11-1.261c-8.19-1.709-16.151-4.308-24.393-5.693
		c-8.285-1.39-16.602-2.553-24.876-4.023c-15.55-2.763-31.126-5.488-46.641-8.434c-15.542-2.951-31.033-6.299-46.415-9.995
		c-8.208-1.973-16.386-4.072-24.53-6.297c-1.579-0.432-3.188-0.945-4.811-1.472C1242.327,708.202,1238.083,712.376,1233.858,716.568
		z"/>
	<path style="fill:#C7443C;" d="M1180.733,770.907c3.231,1.01,6.504,1.894,9.612,2.791c6.351,1.83,12.777,3.498,19.2,5.057
		c13.016,3.159,26.655,6.063,40.093,5.747c2.25-0.054,2.327-3.182,0.331-3.781c-12.52-3.752-25.303-6.322-37.695-10.589
		c-6.118-2.106-12.02-4.595-17.849-7.4c-1.307-0.629-2.602-1.315-3.895-2.01c-3.177,3.319-6.402,6.592-9.56,9.93
		C1180.891,770.736,1180.813,770.823,1180.733,770.907z"/>
	<path style="fill:#C7443C;" d="M713.48,667.279c3.732-19.678,6.918-39.439,9.442-59.311c5.081-39.993,11.246-82.505,6.383-122.712
		c-0.183-1.516-2.415-1.865-2.772-0.243c-4.348,19.679-6.187,39.714-8.812,59.692c-2.637,20.061-5.824,40.047-9.599,59.926
		c-3.682,19.378-7.802,38.692-12.378,57.879c-1.042,4.368-2.266,8.867-3.494,13.428C695.922,666.459,705.718,664.314,713.48,667.279
		z"/>
	<path style="fill:#C7443C;" d="M663.736,752.115c-5.794-17.021-11.152-34.281-15.656-51.69
		c-9.196-35.544-13.621-71.756-17.961-108.135l-0.252-0.022c-4.31,36.711-1.357,74.213,4.697,110.577
		c2.995,17.991,6.807,35.734,12.054,53.208c2.723,9.07,5.555,18.17,8.972,27.003c2.377,6.146,4.602,13.006,7.932,18.947
		c1.871-11.222,3.915-22.413,6.129-33.572C667.616,763.015,665.601,757.595,663.736,752.115z"/>
	<path style="fill:#C7443C;" d="M649.573,932.157c-5.319-6.254-10.639-12.507-15.958-18.761
		c-12.218-14.365-24.899-28.467-35.886-43.819c-20.728-28.96-33.718-61.993-50.26-93.285c-1.608-3.041-6.145-0.646-5.28,2.456
		c9.593,34.413,23.508,68.695,43.152,98.659c10.439,15.924,22.634,30.67,34.359,45.649c5.916,7.558,11.833,15.118,17.75,22.678
		c3.483,4.45,6.818,10.109,11.114,14.222c0.119-4.95,0.144-9.904,0.329-14.851C649.055,940.786,649.362,936.474,649.573,932.157z"/>
	<path style="fill:#C7443C;" d="M637.924,1086.486c-11.199-9.041-21.932-18.651-32.426-28.499
		c-21.263-19.955-40.388-42.211-58.94-64.67c-1.751-2.121-5.009-0.206-3.668,2.318c14.005,26.356,32.038,49.814,52.072,71.89
		c9.947,10.96,20.629,21.214,31.75,30.978c5.399,4.74,10.906,9.357,16.52,13.841c3.884,3.104,8.177,7.609,13.034,9.015
		c-0.905-7.539-1.689-15.089-2.443-22.646C648.441,1094.746,643.126,1090.685,637.924,1086.486z"/>
	<path style="fill:#C7443C;" d="M662.336,1182.986c-5.859-3.218-11.809-6.254-17.595-9.605c-5.77-3.343-11.264-7.085-16.944-10.563
		c-5.591-3.424-11.783-5.899-17.66-8.785c-1.207-0.593-2.674,0.786-1.849,1.989c3.858,5.623,7.794,11.496,12.805,16.173
		c4.834,4.513,10.266,8.551,15.54,12.526c5.483,4.133,11.054,8.288,16.915,11.872c3.048,1.863,6.148,3.646,9.267,5.386
		c2.171,1.212,4.435,2.62,6.805,3.608c-1.367-6.94-2.732-13.881-3.969-20.848C664.547,1184.151,663.431,1183.588,662.336,1182.986z"
		/>
	<path style="fill:#C7443C;" d="M707.955,802.74c7.411-9.025,14.553-18.272,21.412-27.723
		c13.253-18.258,25.555-37.178,36.704-56.794c22.849-40.206,38.711-82.233,49.383-127.165c0.483-2.032-2.778-3.387-3.556-1.324
		c-15.628,41.401-35.703,82.128-58.134,120.258c-11.493,19.536-24.096,38.427-37.819,56.467c-5.44,7.149-11.08,14.145-16.843,21.037
		c-2.01,10.702-3.863,21.432-5.55,32.193C698.963,814.644,703.514,808.148,707.955,802.74z"/>
	<path style="fill:#C7443C;" d="M772.491,890.881c29.174-35.602,53.508-75.22,66.422-119.612c0.332-1.141-1.336-1.667-1.897-0.705
		c-23.17,39.645-50.516,76.622-80.276,111.544c-23.754,27.874-49.876,53.309-75.73,79.097c-0.203,9.126-0.236,18.254-0.212,27.382
		C713.164,957.953,744.276,925.31,772.491,890.881z"/>
	<path style="fill:#C7443C;" d="M806.091,960.64c0.661-1.503-1.275-3.162-2.471-1.766c-40.311,47.011-76.237,97.398-116.673,144.281
		c0.905,8.595,1.885,17.18,3.003,25.75C734.867,1077.809,778.62,1023.107,806.091,960.64z"/>
	<path style="fill:#C7443C;" d="M710.268,1196.861c3.793-6.835,7.518-13.708,11.178-20.615c3.681-6.949,7.116-13.911,10.224-21.138
		c3.107-7.225,4.95-14.911,7.306-22.41c0.669-2.13-2.545-3.852-3.922-2.072c-4.813,6.22-10.137,12.002-14.53,18.526
		c-4.232,6.284-8.237,12.639-12.196,19.099c-3.212,5.242-6.488,10.442-9.778,15.634c1.536,8.339,3.209,16.653,4.942,24.954
		C705.867,1204.916,708.047,1200.865,710.268,1196.861z"/>
	<path style="fill:#C7443C;" d="M355.432,1015.169c-0.377-4.729-0.753-9.456-1.246-14.183c-2.649-25.37-5.826-50.626-9.957-75.8
		c-4.004-24.401-8.866-48.387-15.513-72.216c-6.555-23.497-13.062-49.326-25.611-70.436c-0.572-0.963-2.237-0.482-2.119,0.669
		c2.49,24.198,9.783,48.235,13.943,72.237c4.319,24.925,8.283,49.995,11.797,75.047c3.467,24.73,6.496,49.544,9.298,74.357
		c0.79,6.994,1.712,13.966,2.668,20.934C340.926,1018.189,348.286,1014.658,355.432,1015.169z"/>
	<path style="fill:#C7443C;" d="M335.76,1075.051c-9.407-17.547-19.111-34.934-29.105-52.152
		c-19.566-33.711-39.67-67.584-64.653-97.578c-1.794-2.154-4.571,0.77-3.509,2.907c17.29,34.802,38.013,67.833,56.655,101.944
		c9.073,16.603,17.882,33.351,26.42,50.235c4.386,8.674,8.629,17.417,12.944,26.126c3.065,6.186,5.81,13.682,9.748,19.807
		c-1.723-14.311-3.073-28.664-4.1-43.038C338.694,1080.551,337.232,1077.797,335.76,1075.051z"/>
	<path style="fill:#C7443C;" d="M375.484,1090.646c3.267-11.416,6.231-22.9,9.067-34.43c5.807-23.606,10.874-47.271,15.104-71.211
		c4.132-23.388,7.801-46.858,11.006-70.392c1.607-11.801,2.782-23.637,3.875-35.496c0.492-5.345,0.961-10.537,0.779-15.908
		c-0.219-6.457-1.618-12.609-1.657-19.086c-0.004-0.586-0.875-0.64-1.008-0.088c-1.414,5.874-3.989,11.097-5.764,16.846
		c-1.761,5.703-2.749,11.449-3.79,17.308c-2.069,11.658-4.246,23.293-6.268,34.96c-4.047,23.361-8.559,46.643-13.527,69.827
		c-4.068,18.986-8.224,37.964-12.486,56.912c0.417,18.95,1.43,37.81,3.081,56.562C374.416,1094.5,374.938,1092.558,375.484,1090.646
		z"/>
	<path style="fill:#C7443C;" d="M370.939,1260.436c-0.18-0.13-0.407-0.27-0.58-0.4c-8.569-6.411-16.863-13.165-25.069-20.031
		c-16.77-14.03-32.982-28.69-48.739-43.847c-31.45-30.25-60.418-62.616-89.591-95.023c-0.986-1.096-2.703,0.416-1.949,1.616
		c23.371,37.186,52.249,71.237,82.957,102.607c15.623,15.96,31.928,31.278,48.719,46.002c8.023,7.037,16.185,13.921,24.323,20.827
		c4.903,4.161,11.018,10.852,17.645,14.209c-0.481-1.543-1.027-3.065-1.5-4.61C374.984,1274.7,372.934,1267.577,370.939,1260.436z"
		/>
	<path style="fill:#C7443C;" d="M405.619,1246.696c2.395-12.928,5.394-25.735,8.738-38.448
		c6.912-26.283,15.031-52.242,22.265-78.438c7.234-26.2,14.468-52.399,21.701-78.599c3.761-13.622,7.116-27.328,10.48-41.053
		c3.379-13.786,4.846-27.812,7.718-41.675c0.391-1.885-2.58-3.185-3.319-1.236c-4.747,12.524-10.836,24.432-15.144,37.149
		c-4.552,13.437-9.196,26.839-13.359,40.404l-24.925,81.212c-8.132,26.497-16.035,53.041-22.534,79.997
		c-1.092,4.527-2.067,9.082-3.061,13.632c3.007,12.569,6.192,25.094,9.745,37.517
		C404.447,1253.664,404.975,1250.172,405.619,1246.696z"/>
	<path style="fill:#C7443C;" d="M451.008,1363.909c1.49-10.304,3.206-20.58,4.802-30.869c3.115-20.075,7.093-40.018,11.946-59.746
		c4.844-19.693,10.596-39.147,16.984-58.394c3.263-9.831,6.736-19.59,10.036-29.41c3.284-9.769,5.414-19.681,8.468-29.521
		c0.317-1.02-1.149-1.413-1.66-0.617c-5.678,8.862-11.646,17.153-16.343,26.59c-4.634,9.311-8.652,18.832-12.47,28.504
		c-7.493,18.982-14.037,38.338-19.769,57.922c-5.706,19.496-10.593,39.232-14.613,59.144c-1.322,6.549-2.373,13.119-3.325,19.709
		c4.384,10.76,9.026,21.402,13.836,31.965C449.726,1374.139,450.267,1369.029,451.008,1363.909z"/>
	<path style="fill:#C7443C;" d="M492.559,1399.286c2.468-23.279,5.452-46.474,5.929-69.89c0.03-1.454-2.325-2.061-2.881-0.65
		c-12.782,32.454-17.798,68.163-20.331,103.519c4.337,8.032,8.772,16.007,13.354,23.896
		C489.294,1437.163,490.554,1418.191,492.559,1399.286z"/>
	<path style="fill:#C7443C;" d="M409.616,1459.033c-21.533-6.831-41.849-16.746-63.699-22.586c-1.012-0.271-1.615,1.06-0.921,1.743
		c16.677,16.404,38.056,25.909,59.583,34.378c21.59,8.494,43.948,15.389,66.966,18.688c-3.979-6.488-7.839-13.045-11.652-19.635
		C442.957,1468.167,426.132,1464.273,409.616,1459.033z"/>
	<path style="fill:#C7443C;" d="M402.009,1378.97c-7.87-2.126-15.664-4.524-23.369-7.186c-16.53-5.712-32.596-12.813-48.066-20.96
		c-14.845-7.818-29.385-16.168-43.188-25.729c-14.032-9.718-27.166-20.373-41.372-29.853c-1.722-1.149-3.794,1.282-2.69,2.893
		c19.356,28.222,50.143,50.066,79.829,66.576c15.513,8.626,31.656,16.095,48.267,22.352c7.905,2.977,15.885,5.746,23.969,8.198
		c8.232,2.497,17.782,6.738,26.247,3.508c0.092-0.036,0.161-0.094,0.251-0.132c-2.538-5.485-4.938-11.032-7.367-16.565
		C410.426,1380.772,406.031,1380.056,402.009,1378.97z"/>
	<path style="fill:#C7443C;" d="M1901.749,786.294c-9.237,3.917-18.667,6.89-27.789,11.125c-9.301,4.315-18.515,8.755-27.736,13.237
		c-18.991,9.234-38.175,18.11-57.579,26.441c-18.671,8.017-37.56,15.527-56.635,22.53c-7.927,2.91-15.868,5.755-23.77,8.719
		c4.891,1.497,8.88,4.974,10.481,10.8c0.659,2.396,0.584,5.103,0.005,7.747c6.083-2.237,12.125-4.576,18.14-7.043
		c19.59-8.033,38.941-16.63,58.075-25.697c18.802-8.91,37.361-18.305,55.542-28.426c9.109-5.07,18.09-10.243,26.814-15.954
		c9.343-6.118,17.295-13.166,26.054-20.036C1904.911,788.513,1903.919,785.374,1901.749,786.294z"/>
	<path style="fill:#C7443C;" d="M1668.644,842.72c20.286-12.993,40.227-26.474,59.87-40.42c9.831-6.979,19.52-14.16,29.156-21.402
		c9.935-7.466,18.165-16.429,27.058-25.086c0.767-0.747-0.278-1.815-1.13-1.365c-10.728,5.664-21.72,10.394-31.908,16.988
		c-10.097,6.535-20.281,12.935-30.461,19.34c-20.795,13.084-41.832,25.818-63.046,38.21c-20.791,12.146-41.837,23.877-62.887,35.568
		c-10.522,5.843-21.104,11.582-31.741,17.214c-2.041,1.08-4.031,2.16-5.983,3.261c16.701-1.68,33.391-3.463,50.063-5.402
		C1628.356,867.952,1648.614,855.546,1668.644,842.72z"/>
	<path style="fill:#C7443C;" d="M1438.655,886.27c19.777-10.872,39.429-22.06,58.538-34.072
		c38.356-24.112,74.557-49.863,108.72-79.637c1.794-1.564-0.666-4.28-2.585-3.12c-38.186,23.082-76.15,46.752-114.813,69.026
		c-19.146,11.03-38.294,22.034-57.775,32.468c-9.739,5.216-19.535,10.324-29.387,15.322c-6.997,3.551-15.463,6.846-22.042,11.844
		c13.756-0.635,27.507-1.352,41.253-2.157C1426.603,892.733,1432.663,889.565,1438.655,886.27z"/>
	<path style="fill:#C7443C;" d="M1275.556,945.152c9.456,7.704,19.733,14.518,29.736,21.482
		c10.447,7.272,20.988,14.314,31.818,21.005c5.377,3.323,10.706,6.913,16.277,9.904c5.913,3.173,12.371,5.514,18.421,8.468
		c2.383,1.164,4.975-2.072,2.798-3.913c-4.815-4.07-9.13-8.664-13.894-12.76c-4.175-3.592-8.891-6.677-13.275-10.015
		c-9.792-7.453-19.583-14.893-29.412-22.297c-9.136-6.882-18.332-13.746-27.167-21.017c-0.908-0.748-1.79-1.545-2.691-2.313
		c-8.063,0.149-16.127,0.271-24.191,0.36C1267.449,938.295,1271.722,942.03,1275.556,945.152z"/>
	<path style="fill:#C7443C;" d="M1313.292,895.662c13.732-7.991,27.329-16.212,40.783-24.659
		c13.086-8.216,26.272-16.44,38.89-25.364c12.703-8.985,24.275-18.542,35.697-29.067c1.936-1.783-0.7-4.352-2.747-3.314
		c-13.536,6.872-26.641,13.93-39.702,21.699c-13.305,7.914-26.406,16.155-39.8,23.926c-13.033,7.563-26.188,14.92-39.456,22.065
		c-12.715,6.845-26.259,12.811-38.571,20.384c12.136-0.151,24.271-0.372,36.404-0.657
		C1307.633,898.992,1310.466,897.306,1313.292,895.662z"/>
	<path style="fill:#C7443C;" d="M1627.323,915.469c8.033,2.645,16.041,5.367,24.05,8.088c16.505,5.607,33.011,11.231,49.722,16.209
		c16.073,4.788,32.267,9.118,48.898,11.426c7.793,1.08,15.629,1.885,23.479,2.39c9.6,0.619,17.047-1.609,26.384-2.911
		c1.847-0.257,2.452-3.202,0.309-3.528c-8.185-1.244-15.772-4.232-24.091-5.496c-8.221-1.251-16.381-2.772-24.482-4.652
		c-16.324-3.787-32.563-7.973-48.576-12.921c-16.167-4.995-32.144-10.581-48.12-16.149c-1.003-0.35-2.024-0.734-3.036-1.105
		c-12.28,1.59-24.568,3.113-36.865,4.568C1619.043,912.883,1623.204,914.114,1627.323,915.469z"/>
	<path style="fill:#C7443C;" d="M1488.889,929.393c9.097,5.45,18.194,10.9,27.291,16.352c17.675,10.589,35.367,21.147,53.229,31.418
		c17.221,9.902,34.771,19.09,53.425,26.009c9.578,3.553,19.326,6.338,29.312,8.494c9.761,2.107,18.53,2.362,28.476,2.221
		c3.353-0.047,3.346-4.62,0.484-5.544c-9.297-3.006-18.364-6.243-27.727-9.1c-9.164-2.796-18.233-6.075-27.098-9.711
		c-18.292-7.502-35.418-17.36-52.25-27.663c-16.696-10.219-33.348-20.498-50.109-30.612l-14.969-9.033
		c-9.613,0.824-19.23,1.602-28.849,2.34C1483.136,926.215,1486.179,927.769,1488.889,929.393z"/>
	<path style="fill:#C7443C;" d="M1344.361,936.762c7.817,5.665,15.653,11.315,23.59,16.813
		c15.769,10.919,31.938,21.302,48.171,31.516c15.691,9.873,31.484,19.644,47.737,28.573c8.262,4.539,16.615,8.914,25.459,12.209
		c9.074,3.38,17.559,4.988,27.101,6.344c2.519,0.358,4.354-3.334,1.676-4.505c-33.368-14.596-64.191-36.779-94.124-57.309
		c-15.224-10.44-30.167-21.251-45.118-32.073c-3.248-2.351-6.476-4.729-9.721-7.083c-10.394,0.447-20.791,0.849-31.189,1.197
		C1340.194,933.924,1342.408,935.346,1344.361,936.762z"/>
	<path style="fill:#C7443C;" d="M1438.378,1211.891c0.111,0.406,0.122,0.792,0.202,1.191c6.492-4.202,12.95-8.45,19.3-12.877
		c17.295-12.055,34.426-24.344,51.388-36.863c33.777-24.927,67.331-51.193,95.662-82.252c1.292-1.416-0.474-3.464-2.1-2.534
		c-36.426,20.84-70.388,45.879-104.81,69.87c-16.853,11.746-33.863,23.269-51.022,34.563c-8.346,5.493-16.587,11.129-24.852,16.739
		C1429.328,1199.41,1436.564,1205.291,1438.378,1211.891z"/>
	<path style="fill:#C7443C;" d="M1406.058,1244.18c22.223,7.214,45.935,9.749,69.169,10.802c11.595,0.525,23.204,0.685,34.81,0.767
		c5.812,0.041,11.618,0.036,17.43-0.036c2.563-0.032,5.528,0.347,8.068-0.099c2.988-0.526,5.594-2.028,8.608-2.577
		c2.647-0.48,2.026-4.355-0.21-4.923c-2.868-0.729-5.331-2.425-8.191-2.998c-2.392-0.481-5.021-0.404-7.458-0.596
		c-5.831-0.461-11.661-0.869-17.499-1.241c-11.445-0.729-22.891-1.507-34.301-2.678c-17.194-1.764-34.092-4.395-50.864-8.089
		c-7.844,3.111-15.72,6.139-23.59,9.181C1403.074,1242.801,1404.42,1243.648,1406.058,1244.18z"/>
	<path style="fill:#C7443C;" d="M1247.541,1308.122c8.756,4.457,17.728,8.481,26.856,12.116
		c18.567,7.392,37.669,13.321,57.069,18.094c19.345,4.758,38.942,8.426,58.611,11.551c19.634,3.12,39.49,6.074,59.365,4.663
		c3.675-0.261,3.635-4.918,0.529-6.049c-17.834-6.488-36.576-9.198-55.214-12.567c-19.107-3.452-38.136-7.409-56.914-12.37
		c-18.341-4.844-36.462-10.614-53.967-17.955c-8.594-3.604-17.047-7.55-25.296-11.888c-0.33-0.173-0.668-0.384-1-0.567
		c-7.963,2.596-15.932,5.172-23.918,7.698C1238.118,1303.635,1243.078,1305.85,1247.541,1308.122z"/>
	<path style="fill:#C7443C;" d="M1293.234,1246.63c18.067-15.435,35.582-31.382,52.703-47.858
		c34.268-32.976,68.021-66.597,96.194-105.022c1.463-1.997-0.913-4.224-2.8-2.613c-35.868,30.608-69.182,63.972-104.5,95.206
		c-17.434,15.419-35.085,30.621-52.799,45.716c-9.017,7.684-18.108,15.281-27.283,22.777c-3.447,2.815-6.987,5.504-10.408,8.3
		c16.244-5.269,32.438-10.689,48.585-16.248C1293.027,1246.802,1293.131,1246.717,1293.234,1246.63z"/>
	<path style="fill:#C7443C;" d="M1140.396,1290.918c14.043-15.469,27.944-31.14,40.904-47.532
		c25.336-32.046,48.78-64.889,69.399-100.174c0.725-1.242-1.114-2.573-2.059-1.472c-26.454,30.769-52.814,61.791-80.313,91.63
		c-13.467,14.612-26.727,29.4-40.495,43.734c-7.061,7.352-14.312,14.521-21.374,21.871c-2.176,2.265-4.413,4.526-6.607,6.82
		c12.003-3.203,23.985-6.483,35.945-9.842C1137.326,1294.272,1138.869,1292.601,1140.396,1290.918z"/>
	<path style="fill:#C7443C;" d="M1146.457,1366.463c18.046,9.484,36.569,18.062,55.472,25.697
		c35.765,14.446,75.007,29.163,113.938,30.217c1.474,0.039,2.034-2.302,0.65-2.882c-35.845-15.02-73.752-24.39-109.383-40.304
		c-17.66-7.887-34.944-16.614-51.775-26.144c-8.417-4.766-16.755-9.7-25.038-14.698c-2.568-1.55-5.107-3.198-7.644-4.86
		c-7.239,1.971-14.476,3.948-21.731,5.863C1114.706,1350.026,1131.356,1358.526,1146.457,1366.463z"/>
	<path style="fill:#C7443C;" d="M1010.206,1316.697c9.093-10.957,18.097-21.989,27.012-33.093
		c17.339-21.593,33.068-43.877,46.817-67.906c1.336-2.334-1.89-4.415-3.707-2.65c-20.123,19.538-38.637,40.166-56.81,61.534
		c-8.915,10.482-17.911,20.895-26.988,31.237c-4.547,5.181-9.125,10.308-13.433,15.691c-4.006,5.005-6.089,8.579-6.815,14.386
		c7.503-1.648,14.988-3.375,22.477-5.083C1002.894,1326.245,1006.571,1321.076,1010.206,1316.697z"/>
	<path style="fill:#C7443C;" d="M932.641,1325.977c5.072-7.465,10.597-14.858,14.653-22.928c4.414-8.786,7.711-17.831,11.676-26.813
		c0.225-0.51-0.413-1.035-0.824-0.59c-6.549,7.112-13.665,13.583-20.228,20.698c-6.126,6.642-11.255,14.257-16.815,21.382
		c-5.595,7.165-11.393,14.164-17.03,21.294c-3.569,4.516-7.608,9.116-11.299,13.87c8.127-1.533,16.249-3.093,24.362-4.697
		C922.43,1340.88,927.566,1333.444,932.641,1325.977z"/>
	<path style="fill:#C7443C;" d="M929.981,1390.385c11.773,6.233,23.649,12.272,35.621,18.116
		c23.876,11.651,48.388,22.642,74.224,29.037c3.327,0.824,4.777-3.776,2.03-5.453c-20.775-12.684-42.857-22.792-64.561-33.778
		c-10.656-5.394-21.315-10.764-31.858-16.379c-2.774-1.477-5.526-2.993-8.289-4.492c-7.845,1.58-15.701,3.1-23.559,4.613
		C918.97,1385.288,925.074,1387.786,929.981,1390.385z"/>
	<path style="fill:#C7443C;" d="M999.118,1364.25c7.133,6.138,16.513,11.201,21.39,14.448
		c16.027,10.672,32.503,20.669,49.366,29.963c16.457,9.07,33.461,16.992,50.777,24.283c8.38,3.529,16.815,7.083,25.394,10.103
		c9.641,3.394,19.31,4.947,29.284,6.909c1.261,0.248,1.949-1.503,0.794-2.134c-7.544-4.132-14.657-8.706-22.364-12.551
		c-8.139-4.06-16.527-7.627-24.715-11.596c-15.96-7.735-31.521-16.23-47.047-24.798c-15.09-8.329-29.868-17.223-44.296-26.655
		c-6.249-4.085-12.465-8.271-18.564-12.599c-6.185,1.439-12.362,2.911-18.556,4.308
		C1000.094,1364.039,999.605,1364.14,999.118,1364.25z"/>
	<path style="fill:#C7443C;" d="M1186.494,1673.231c0.649,2.361,0.736,4.613,0.391,6.72c4.798-3.068,9.599-6.133,14.343-9.286
		c12.896-8.573,25.746-17.307,37.961-26.833c11.885-9.267,23.748-18.633,34.765-28.928c5.614-5.244,11.281-10.466,16.525-16.083
		c5.615-6.011,10.104-12.658,15.052-19.213c1.359-1.8-0.473-4.336-2.584-3.12c-6.677,3.845-13.569,7.117-20.023,11.327
		c-6.103,3.983-12.005,8.254-18.01,12.382c-12.729,8.749-25.175,17.893-37.933,26.603c-12.456,8.504-24.73,17.253-37.349,25.516
		c-4.861,3.184-9.774,6.29-14.692,9.384C1180.353,1663.398,1185.083,1668.098,1186.494,1673.231z"/>
	<path style="fill:#C7443C;" d="M1052.333,1744.277c9.459,1.27,18.917,2.54,28.375,3.811c18.845,2.53,37.674,5.279,56.573,7.386
		c31.369,3.496,68.226,8.338,96.865-8.148c1.485-0.855,0.628-3.095-0.965-3.061c-16.35,0.356-32.689,1.435-49.053,0.834
		c-16.951-0.624-33.75-3.163-50.466-5.907c-17.428-2.861-34.896-5.486-52.347-8.205c-1.162-0.181-2.324-0.362-3.486-0.543
		c-12.069,4.348-24.172,8.599-36.316,12.734C1045.213,1743.568,1048.913,1743.818,1052.333,1744.277z"/>
	<path style="fill:#C7443C;" d="M1049.454,1703.693c13.795-12.708,27.109-25.958,40.239-39.351
		c12.799-13.054,24.838-26.769,36.709-40.668c6.295-7.37,12.264-14.921,18.08-22.676c5.449-7.265,9.497-14.924,14.547-22.377
		c1.117-1.649-1.383-3.102-2.678-1.914c-6.775,6.221-14.163,11.575-20.908,17.94c-6.658,6.284-13.227,12.608-19.727,19.057
		c-12.979,12.875-26.257,25.442-39.315,38.236c-12.692,12.437-25.707,24.517-38.693,36.641c-12.026,11.229-25.709,21.63-37.006,33.7
		c15.013-4.823,29.986-9.773,44.882-14.954C1046.869,1706.12,1048.17,1704.875,1049.454,1703.693z"/>
	<path style="fill:#C7443C;" d="M922.341,1740.973c13.383-14.625,26.461-29.528,39.224-44.695
		c12.479-14.829,25.237-29.704,36.443-45.53c11.728-16.56,21.526-33.788,31.879-51.177c0.741-1.247-1.101-2.545-2.06-1.473
		c-12.802,14.307-26.492,27.825-39.352,42.12c-13.236,14.713-25.692,30.127-38.885,44.888
		c-12.866,14.395-26.023,28.528-39.462,42.389c-6.722,6.934-13.574,13.737-20.335,20.634c-2.429,2.477-5.018,4.902-7.522,7.408
		c11.569-2.725,23.101-5.605,34.591-8.628C918.689,1744.929,920.524,1742.959,922.341,1740.973z"/>
	<path style="fill:#C7443C;" d="M804.797,1762.168c9.95-11.557,19.663-23.316,29.135-35.268
		c9.181-11.583,17.756-23.566,26.129-35.743c9.291-13.515,16.614-27.353,24.241-41.831c0.398-0.758-0.651-1.545-1.236-0.884
		c-10.077,11.38-20.485,22.123-30.163,33.872c-9.985,12.123-20.221,24.047-30.349,36.05c-9.82,11.64-19.879,23.081-30.165,34.312
		c-6.896,7.53-15.076,15.11-21.553,23.53c8.401-1.105,16.789-2.311,25.161-3.626C799.02,1769.035,801.942,1765.484,804.797,1762.168
		z"/>
	<path style="fill:#C7443C;" d="M734.509,1755.776c15.809-16.679,29.745-34.666,41.703-54.253c1.04-1.703-1.362-3.1-2.677-1.915
		c-30.397,27.415-58.758,56.954-89.582,83.908c8.039-0.277,16.069-0.668,24.09-1.172
		C717.067,1773.693,725.907,1764.851,734.509,1755.776z"/>
	<path style="fill:#C7443C;" d="M924.812,1789.073c8.036,4.47,16.189,8.73,24.443,12.782c16.867,8.282,34.162,15.648,51.778,22.184
		c17.039,6.323,34.426,12.213,52.119,16.431c8.911,2.124,17.946,4.2,27,5.624c9.229,1.452,17.794,0.411,26.973,0.164
		c1.068-0.027,1.573-1.73,0.487-2.16c-7.356-2.914-14.168-6.776-21.774-9.286c-8.732-2.883-17.736-5.023-26.509-7.814
		c-17.358-5.523-34.62-11.143-51.507-18.008c-16.075-6.535-31.835-13.842-47.214-21.879c-7.437-3.887-14.773-7.971-22.021-12.202
		c-8.786,2.4-17.584,4.755-26.413,6.988C916.183,1784.624,920.708,1786.791,924.812,1789.073z"/>
	<path style="fill:#C7443C;" d="M893.24,1850.675c28.491,14.428,57.136,27.524,88.716,33.083c2.26,0.398,3.441-2.619,1.411-3.794
		c-26.978-15.613-55.521-27.911-82.701-43.187c-13.177-7.404-26.097-15.265-38.73-23.563c-7.405-4.863-14.533-10.13-21.681-15.359
		c-8.947,1.716-17.906,3.375-26.893,4.874C837.347,1821.785,866.077,1836.92,893.24,1850.675z"/>
	<path style="fill:#C7443C;" d="M757.477,1834.096c10.006,7.112,20.289,13.831,30.866,20.064
		c10.588,6.239,21.697,11.672,32.888,16.735c4.95,2.24,9.912,4.552,15.133,6.092c6.177,1.822,12.767,1.899,19.093,3.175
		c0.738,0.148,1.025-0.798,0.442-1.186c-4.909-3.267-8.897-7.474-13.663-10.866c-4.683-3.333-9.872-5.883-14.853-8.725
		c-10.365-5.917-20.346-12.389-30.318-18.935c-9.671-6.349-19.062-13.079-28.157-20.227c-3.92-3.081-7.692-6.376-11.456-9.68
		c-8.976,1.002-17.958,1.879-26.945,2.631C738.603,1821.006,748.354,1827.611,757.477,1834.096z"/>
	<path style="fill:#604C6C;" d="M1718.721,879.146c-1.601-5.826-5.59-9.303-10.481-10.8c-2.982-0.912-6.296-1.094-9.615-0.611
		c-30.271,4.402-60.606,8.356-90.99,11.888c-16.673,1.939-33.363,3.722-50.063,5.402c-36.405,3.662-72.866,6.75-109.37,9.198
		c-9.209,0.618-18.421,1.179-27.635,1.72c-13.747,0.806-27.497,1.523-41.253,2.157c-24.829,1.144-49.672,1.991-74.521,2.574
		c-12.134,0.285-24.269,0.506-36.404,0.657c-25.02,0.311-50.041,0.373-75.061,0.113c-41.609-0.43-83.204-1.71-124.767-3.711
		c36.005-43.477,73.38-85.816,112.173-126.828c0.08-0.084,0.158-0.171,0.238-0.255c3.158-3.338,6.383-6.611,9.56-9.93
		c14.257-14.898,28.689-29.627,43.327-44.153c4.226-4.192,8.469-8.367,12.727-12.527c18.789-18.363,37.864-36.43,57.275-54.132
		c4.684-4.273,9.432-8.474,14.153-12.705c32.387-29.034,65.624-57.108,99.724-84.118c4.06-3.216,8.069-6.494,12.153-9.679
		c2.25-1.755,4.551-3.444,6.811-5.188c8.32-6.417,16.656-12.813,25.077-19.099c0.498-0.372,0.935-0.799,1.397-1.205
		c6.086-5.35,8.934-13.505,4.464-21.147c-0.035-0.06-0.091-0.111-0.128-0.172c-2.898-4.776-9.113-8.137-15.017-7.995
		c-2.565,0.061-5.072,0.713-7.207,2.306c-9.742,7.273-19.387,14.671-29.001,22.107c-33.411,25.841-66.038,52.661-97.883,80.383
		c-11.262,9.804-22.433,19.711-33.497,29.74c-29.083,26.361-57.445,53.516-85.142,81.354c-4.02,4.04-8.092,8.028-12.082,12.098
		c-4.449,4.538-8.823,9.148-13.234,13.721c-67.054,69.508-129.874,142.998-188.948,219.392
		c-1.757-49.335,0.528-98.799,6.924-147.656c1.077-8.227,2.279-16.433,3.593-24.622c1.049-6.543,2.126-13.081,3.327-19.596
		c0.695-3.767,1.514-7.511,2.255-11.269c1.615-8.198,3.325-16.375,5.161-24.53c5.647-25.091,12.254-49.979,19.992-74.517
		c2.771-8.787,5.681-17.53,8.72-26.228c9.422-26.96,20.129-53.465,32.138-79.354c6.589-14.204,13.679-28.161,21.001-41.994
		c7.209-13.618,14.699-27.081,22.598-40.311c6.313-10.573,12.784-21.053,19.526-31.363c3.908-5.977,2.407-14.051-2.178-19.21
		c-1.082-1.217-2.281-2.323-3.683-3.143c-4.638-2.712-9.799-2.727-14.274-0.849c-3.2,1.342-6.059,3.622-8.078,6.71
		c-5.822,8.903-11.451,17.927-16.951,27.03c-6.965,11.529-13.598,23.251-20.042,35.079c-19.22,35.283-36.106,71.824-50.59,109.307
		c-4.682,12.114-9.171,24.3-13.348,36.596c-0.392,1.153-0.828,2.289-1.215,3.443c-8.677,25.869-16.112,52.148-22.458,78.688
		c-2.839,11.873-5.512,23.784-7.884,35.759c-3.393,17.131-6.244,34.366-8.678,51.659c-1.292,9.177-2.435,18.37-3.456,27.58
		c-1.359,12.25-2.565,24.518-3.445,36.809c-3.125,43.638-3.033,87.467,0.224,131.093c0.112,1.496,0.445,2.93,0.874,4.322
		c-66.566,89.108-128.08,181.93-185.211,277.349c-11.967,19.987-23.687,40.117-35.286,60.316
		c-12.707-38.689-23.241-78.096-31.562-117.961c-1.733-8.301-3.406-16.614-4.942-24.954c-3.36-18.246-6.203-36.584-8.603-54.981
		c-1.117-8.57-2.098-17.155-3.003-25.75c-0.266-2.525-0.602-5.043-0.85-7.57c-3.478-35.511-5.207-71.248-5.299-106.998
		c-0.023-9.128,0.009-18.256,0.212-27.382c0.96-43.193,4.436-86.326,10.62-129.017c0.605-4.172,1.268-8.334,1.921-12.499
		c1.687-10.76,3.54-21.491,5.55-32.193c6.409-34.131,14.413-67.958,24.042-101.334c2.702-9.364-2.616-16.192-9.663-18.883
		c-7.761-2.964-17.557-0.82-21.23,8.659c-0.201,0.518-0.451,0.976-0.614,1.538c-8.647,29.973-15.914,60.344-21.986,90.955
		c-2.214,11.159-4.257,22.35-6.129,33.572c-7.182,43.072-11.813,86.559-13.948,130.155c-0.211,4.316-0.518,8.629-0.68,12.947
		c-0.185,4.948-0.21,9.901-0.329,14.851c-1.115,46.294,0.659,92.66,5.258,138.758c0.754,7.557,1.538,15.107,2.443,22.646
		c2.546,21.211,5.649,42.351,9.384,63.379c1.237,6.966,2.602,13.907,3.969,20.848c0.632,3.209,1.175,6.436,1.835,9.638
		c10.205,49.563,23.869,98.374,40.842,146.044c0.39,1.094,0.88,2.131,1.44,3.118c-41.742,74.527-81.216,150.326-118.789,227.037
		c-1.098,2.241-2.17,4.494-3.264,6.736c-39.168-43.638-73.606-91.31-103.053-142c-4.582-7.888-9.017-15.864-13.354-23.896
		c-5.672-10.503-11.203-21.086-16.451-31.822c-3.432-7.023-6.683-14.139-9.924-21.258c-4.809-10.563-9.451-21.205-13.836-31.965
		c-11.979-29.402-22.399-59.483-31.142-90.063c-3.552-12.423-6.737-24.948-9.745-37.517c-4.098-17.128-7.791-34.354-10.865-51.691
		c-4.191-23.638-7.301-47.483-9.417-71.499c-1.651-18.751-2.664-37.611-3.081-56.562c-0.066-3.016-0.16-6.029-0.195-9.05
		c-0.117-9.931-7.482-15.119-15.188-15.669c-7.146-0.511-14.507,3.02-16.74,10.608c-0.453,1.54-0.769,3.187-0.747,5.061
		c0.206,17.5,0.966,34.998,2.214,52.464c1.027,14.374,2.376,28.727,4.1,43.038c5.456,45.296,14.411,90.179,26.68,134.095
		c1.995,7.141,4.045,14.264,6.216,21.351c0.473,1.545,1.018,3.068,1.5,4.61c10.146,32.507,22.158,64.457,35.864,95.677
		c2.43,5.533,4.829,11.08,7.367,16.565c11.53,24.909,24.271,49.239,38.007,72.983c3.813,6.589,7.673,13.147,11.652,19.635
		c4.248,6.928,8.504,13.851,12.94,20.656c26.265,40.294,55.828,78.508,88.225,114.059c1.167,1.281,2.571,2.215,4.06,2.966
		c-47.154,98.157-91.467,197.667-134.005,297.907c-6.077,14.32-12.12,28.655-18.137,43.001c-3.414,8.141,3.679,17.973,11.41,20.097
		c9.424,2.59,16.67-3.238,20.097-11.411c24.158-57.605,48.883-114.981,74.341-172.027c66.357,10.774,133.312,12.243,200.028,6.668
		c8.987-0.752,17.969-1.628,26.945-2.631c8.748-0.977,17.491-2.042,26.224-3.247c9.922-1.37,19.815-2.918,29.688-4.564
		c8.988-1.5,17.946-3.159,26.893-4.874c24.118-4.625,48.102-9.936,71.918-15.956c8.829-2.233,17.627-4.588,26.413-6.988
		c32.978-9.006,65.665-19.102,98.022-30.028c1.64-0.553,3.265-1.146,4.903-1.704c12.144-4.135,24.247-8.386,36.316-12.734
		c32.647-11.761,65.047-24.205,97.256-37.117c6.082-2.438,10.805-7.28,11.802-13.377c0.345-2.107,0.258-4.358-0.391-6.72
		c-1.411-5.133-6.141-9.833-11.554-11.531c-2.786-0.873-5.743-1.002-8.542,0.12c-39.932,16.009-80.167,31.37-120.816,45.507
		c-14.896,5.181-29.869,10.131-44.882,14.954c-25.971,8.345-52.105,16.18-78.472,23.225c-1.786,0.477-3.577,0.932-5.365,1.402
		c-11.491,3.023-23.022,5.903-34.591,8.628c-28.548,6.725-57.319,12.497-86.274,17.044c-8.372,1.316-16.76,2.521-25.161,3.626
		c-20.852,2.744-41.79,4.818-62.794,6.138c-8.021,0.504-16.051,0.895-24.09,1.172c-3.869,0.133-7.737,0.269-11.609,0.348
		c-42.825,0.874-85.729-1.58-128.072-8.071c19.643-43.451,39.726-86.703,60.369-129.69
		c37.949-79.027,77.792-157.167,119.978-234.019c63.302-7.974,126.329-17.978,188.969-30.036c7.858-1.513,15.714-3.033,23.559-4.613
		c20.702-4.167,41.363-8.549,61.97-13.186c0.487-0.11,0.976-0.211,1.463-0.321c6.194-1.397,12.371-2.869,18.556-4.308
		c27.365-6.365,54.643-13.1,81.808-20.269c7.255-1.915,14.492-3.892,21.731-5.863c37.21-10.135,74.217-21.007,110.986-32.639
		c7.985-2.526,15.955-5.102,23.918-7.698c6.035-1.968,12.081-3.903,18.104-5.912c42.476-14.164,84.587-29.4,126.348-45.545
		c7.87-3.043,15.747-6.071,23.59-9.181c0.448-0.178,0.899-0.347,1.346-0.524c7.832-3.112,13.334-10.271,11.612-18.906
		c-0.08-0.399-0.091-0.785-0.202-1.191c-1.814-6.6-9.05-12.481-16.231-12.163c-1.301,0.057-2.6,0.25-3.865,0.753
		c-41.417,16.45-83.224,31.902-125.357,46.408c-16.146,5.559-32.34,10.979-48.585,16.248
		c-31.585,10.245-63.338,19.973-95.266,29.107c-4.419,1.264-8.855,2.467-13.28,3.709c-11.96,3.36-23.942,6.639-35.945,9.842
		c-33.543,8.951-67.246,17.293-101.093,25.017c-7.489,1.709-14.974,3.435-22.477,5.083c-19.668,4.322-39.39,8.394-59.144,12.298
		c-8.114,1.604-16.235,3.164-24.362,4.697c-6.899,1.302-13.792,2.63-20.7,3.88c-42.462,7.686-85.103,14.357-127.873,20.074
		c10.115-18.012,20.317-35.976,30.714-53.83c58.824-101.018,122.246-199.402,191.285-293.756
		c25.095-34.296,50.958-68.038,77.587-101.163c1.915,0.804,3.997,1.299,6.166,1.415c71.27,3.823,142.657,5.333,214.024,4.548
		c8.064-0.089,16.127-0.211,24.191-0.36c5.986-0.11,11.972-0.198,17.958-0.341c10.608-0.253,21.214-0.558,31.819-0.914
		c10.398-0.348,20.795-0.75,31.189-1.197c37.025-1.592,74.02-3.842,110.97-6.68c9.619-0.738,19.236-1.517,28.849-2.34
		c17.635-1.512,35.262-3.129,52.871-4.924c17.742-1.808,35.463-3.815,53.173-5.912c12.297-1.456,24.585-2.979,36.865-4.568
		c18.501-2.396,36.989-4.892,55.45-7.577c6.036-0.879,10.123-6.443,11.416-12.349
		C1719.305,884.249,1719.38,881.543,1718.721,879.146z"/>
</g>
</svg>
