<?xml version="1.0" encoding="utf-8"?>
<!-- Generator: Adobe Illustrator 27.5.0, SVG Export Plug-In . SVG Version: 6.00 Build 0)  -->
<svg version="1.1" id="Capa_1" xmlns="http://www.w3.org/2000/svg" xmlns:xlink="http://www.w3.org/1999/xlink" x="0px" y="0px"
	 viewBox="0 0 2122 2122" style="enable-background:new 0 0 2122 2122;" xml:space="preserve">
<path style="fill:#03A96E;" d="M1249.179,671.06c14.857-7.559,29.951-15.678,45.19-24.477
	c127.941-73.866,215.359-161.973,195.256-196.792c-18.618-32.248-122.947-7.447-239.893,55.069
	c7.245-10.434,14.449-21.134,21.566-32.147c94.948-146.919,139.504-286.968,99.52-312.808
	c-39.984-25.84-149.368,72.313-244.315,219.232c-2.902,4.491-5.753,8.974-8.56,13.449c-7.824-116.733-36.492-203.328-70.676-203.328
	c-32.314,0-59.694,77.387-69.204,184.453c-19.68-30.087-39.928-58.018-60.011-83.205C890,356.746,868.09,425.638,852.557,496.268
	c1.945,2.861,3.88,5.778,5.834,8.593c-2.313-1.236-4.612-2.433-6.915-3.64c-10.88,50.503-18.509,101.872-22.752,153.793
	c11.684,6.479,23.254,12.574,34.673,18.307c62.482-8.122,132.078-12.222,208.743-12.222
	C1136.791,661.099,1195.729,664.492,1249.179,671.06z M1271.538,252.813c6.09-1.938,12.269-2.605,18.288-2.243
	c-0.451-1.033-0.856-2.095-1.205-3.193c-5.442-17.099,4.01-35.373,21.111-40.814c17.1-5.441,35.373,4.01,40.815,21.11
	c5.44,17.1-4.01,35.373-21.111,40.815c-1.097,0.349-2.198,0.633-3.301,0.86c3.773,4.705,6.799,10.132,8.736,16.222
	c8.444,26.535-6.222,54.89-32.756,63.333c-26.535,8.442-54.89-6.222-63.333-32.758
	C1230.337,289.612,1245.003,261.257,1271.538,252.813z"/>
<path style="fill:#E94B60;" d="M1249.179,671.06c-53.45-6.569-112.388-9.961-177.038-9.961c-76.666,0-146.262,4.1-208.743,12.222
	c-12.432,1.615-24.555,3.405-36.423,5.339c-1.87,28.169-3.006,56.673-3.394,85.344c7.95,7.191,12.976,17.555,12.976,29.119
	c0,10.929-4.466,35.561-11.667,57.327c0,0.001,0,0.001,0,0.002l-0.009,0.026c-0.002,0.007-0.004,0.015-0.007,0.023
	c7.45,163.993,44.016,328.819,129.417,467.003c0.018,0.016,0.033,0.035,0.051,0.052l0.06,0.05c0.007,0.012,0.015,0.022,0.021,0.034
	c5.202,4.703,9.167,10.741,11.268,17.619c18.611,28.193,39.318,55.214,62.386,80.764c80.757,89.441,179.283,158.041,271.448,234.295
	l-0.036,0.032c3.238-2.854,6.528-5.69,9.934-8.482c183.638-150.523,352.409-243.609,350.65-609.552
	c-0.011-2.539-0.022-4.913-0.035-7.382l-0.111,0.001c0.096-3.485,0.147-6.999,0.147-10.548
	C1660.074,829.508,1531.59,705.767,1249.179,671.06z M928.113,1079.189c-21.702,0-39.295-75.75-39.295-97.452
	c0-21.702,17.593-39.295,39.295-39.295c21.702,0,39.295,17.593,39.295,39.295C967.408,1003.44,949.815,1079.189,928.113,1079.189z
	 M1058.965,1255.587c-21.702,0-39.295-75.75-39.295-97.451c0-21.701,17.593-39.295,39.295-39.295
	c21.702,0,39.295,17.593,39.295,39.295C1098.26,1179.837,1080.667,1255.587,1058.965,1255.587z M1058.965,890.573
	c-21.702,0-39.295-75.749-39.295-97.451c0-21.702,17.593-39.295,39.295-39.295c21.702,0,39.295,17.593,39.295,39.295
	C1098.26,814.824,1080.667,890.573,1058.965,890.573z M1189.817,1444.203c-21.702,0-39.296-75.751-39.296-97.452
	c0-21.702,17.593-39.295,39.296-39.295c21.702,0,39.295,17.593,39.295,39.295
	C1229.112,1368.453,1211.519,1444.203,1189.817,1444.203z M1189.817,1079.189c-21.702,0-39.296-75.75-39.296-97.452
	c0-21.702,17.593-39.295,39.296-39.295c21.702,0,39.295,17.593,39.295,39.295C1229.112,1003.44,1211.519,1079.189,1189.817,1079.189
	z M1320.669,1255.587c-21.702,0-39.295-75.75-39.295-97.451c0-21.701,17.593-39.295,39.295-39.295
	c21.702,0,39.295,17.593,39.295,39.295C1359.964,1179.837,1342.371,1255.587,1320.669,1255.587z M1451.522,1444.203
	c-21.702,0-39.296-75.751-39.296-97.452c0-21.702,17.593-39.295,39.296-39.295c21.702,0,39.295,17.593,39.295,39.295
	C1490.816,1368.453,1473.223,1444.203,1451.522,1444.203z M1464.9,1095.876c-64.176-8.788-109.077-67.938-100.289-132.115
	c2.017-14.729,6.792-28.373,13.566-40.656c-2.618-0.084-5.256-0.296-7.909-0.659c-21.992-3.012-40.401-15.25-52.034-32.223
	c-20.568-5.318-36.861-76.217-36.861-97.101c0-21.702,17.593-39.295,39.295-39.295c15.6,0,29.036,9.113,35.382,22.286
	c10.819-3.717,22.62-5.096,34.727-3.438c41.359,5.664,70.295,43.783,64.631,85.14c-0.363,2.653-0.869,5.25-1.491,7.794
	c13.652-3.222,28.078-4.153,42.807-2.136c64.176,8.788,109.077,67.938,100.289,132.114
	C1588.225,1059.763,1529.076,1104.665,1464.9,1095.876z M1579.044,1255.587c-21.702,0-39.296-75.75-39.296-97.451
	c0-21.701,17.594-39.295,39.296-39.295c21.702,0,39.294,17.593,39.294,39.295
	C1618.338,1179.837,1600.745,1255.587,1579.044,1255.587z"/>
<path style="fill:#EF7A91;" d="M1597.014,995.587c8.788-64.176-36.113-123.325-100.289-132.114
	c-14.729-2.017-29.155-1.086-42.807,2.136c0.623-2.544,1.128-5.142,1.491-7.794c5.664-41.357-23.272-79.476-64.631-85.14
	c-12.107-1.658-23.908-0.279-34.727,3.438c2.481,5.152,3.913,10.906,3.913,17.009c0,21.702-17.593,97.451-39.295,97.451
	c-0.819,0-1.628-0.142-2.434-0.35c11.632,16.973,30.041,29.211,52.034,32.223c2.652,0.363,5.29,0.575,7.909,0.659
	c-6.775,12.283-11.55,25.927-13.566,40.656c-8.789,64.176,36.112,123.326,100.289,132.115
	C1529.076,1104.665,1588.225,1059.763,1597.014,995.587z M1451.522,1079.189c-21.702,0-39.296-75.75-39.296-97.452
	c0-21.702,17.593-39.295,39.296-39.295c21.702,0,39.295,17.593,39.295,39.295C1490.816,1003.44,1473.223,1079.189,1451.522,1079.189
	z"/>
<path style="fill:#C72648;" d="M928.113,942.443c-21.702,0-39.295,17.593-39.295,39.295c0,21.702,17.593,97.452,39.295,97.452
	c21.702,0,39.295-75.75,39.295-97.452C967.408,960.036,949.815,942.443,928.113,942.443z"/>
<path style="fill:#C72648;" d="M1189.817,942.443c-21.702,0-39.296,17.593-39.296,39.295c0,21.702,17.593,97.452,39.296,97.452
	c21.702,0,39.295-75.75,39.295-97.452C1229.112,960.036,1211.519,942.443,1189.817,942.443z"/>
<path style="fill:#C72648;" d="M1451.522,942.443c-21.702,0-39.296,17.593-39.296,39.295c0,21.702,17.593,97.452,39.296,97.452
	c21.702,0,39.295-75.75,39.295-97.452C1490.816,960.036,1473.223,942.443,1451.522,942.443z"/>
<path style="fill:#C72648;" d="M823.427,780.384c-0.012,4.23,0.006,8.464,0.03,12.7c0.022,3.795,0.041,7.588,0.093,11.387
	c0.043,3.272,0.121,6.546,0.186,9.82c0.096,4.667,0.181,9.333,0.321,14.004c0.04,1.335,0.102,2.672,0.145,4.008
	c0.198,6.048,0.413,12.096,0.688,18.147c7.201-21.766,11.667-46.398,11.667-57.327c0-11.563-5.026-21.928-12.976-29.119
	c-0.03,2.219-0.071,4.434-0.092,6.654C823.459,773.898,823.435,777.14,823.427,780.384z"/>
<path style="fill:#C72648;" d="M1058.965,753.827c-21.702,0-39.295,17.593-39.295,39.295c0,21.702,17.593,97.451,39.295,97.451
	c21.702,0,39.295-75.749,39.295-97.451C1098.26,771.42,1080.667,753.827,1058.965,753.827z"/>
<path style="fill:#C72648;" d="M1359.964,793.122c0-6.103-1.432-11.857-3.913-17.009c-6.346-13.173-19.782-22.286-35.382-22.286
	c-21.702,0-39.295,17.593-39.295,39.295c0,20.884,16.293,91.783,36.861,97.101c0.806,0.208,1.615,0.35,2.434,0.35
	C1342.371,890.573,1359.964,814.824,1359.964,793.122z"/>
<path style="fill:#C72648;" d="M965.691,1335.258c-2.101-6.877-6.066-12.916-11.268-17.619c2.096,3.388,4.282,6.729,6.43,10.088
	C962.464,1330.239,964.045,1332.766,965.691,1335.258z"/>
<path style="fill:#C72648;" d="M1189.817,1307.456c-21.702,0-39.296,17.593-39.296,39.295c0,21.701,17.593,97.452,39.296,97.452
	c21.702,0,39.295-75.751,39.295-97.452C1229.112,1325.049,1211.519,1307.456,1189.817,1307.456z"/>
<path style="fill:#C72648;" d="M1451.522,1307.456c-21.702,0-39.296,17.593-39.296,39.295c0,21.701,17.593,97.452,39.296,97.452
	c21.702,0,39.295-75.751,39.295-97.452C1490.816,1325.049,1473.223,1307.456,1451.522,1307.456z"/>
<path style="fill:#C72648;" d="M1058.965,1118.841c-21.702,0-39.295,17.593-39.295,39.295c0,21.702,17.593,97.451,39.295,97.451
	c21.702,0,39.295-75.75,39.295-97.451C1098.26,1136.434,1080.667,1118.841,1058.965,1118.841z"/>
<path style="fill:#C72648;" d="M1320.669,1118.841c-21.702,0-39.295,17.593-39.295,39.295c0,21.702,17.593,97.451,39.295,97.451
	c21.702,0,39.295-75.75,39.295-97.451C1359.964,1136.434,1342.371,1118.841,1320.669,1118.841z"/>
<path style="fill:#C72648;" d="M1579.044,1118.841c-21.702,0-39.296,17.593-39.296,39.295c0,21.702,17.594,97.451,39.296,97.451
	c21.702,0,39.294-75.75,39.294-97.451C1618.338,1136.434,1600.745,1118.841,1579.044,1118.841z"/>
<path style="fill:#008A75;" d="M918.052,290.506l-0.03-0.037c-2.229-2.795-4.455-5.55-6.678-8.275l-0.847-1.036
	c-9.163-11.199-18.27-21.798-27.253-31.735l-0.687-0.762c-2.086-2.301-4.165-4.563-6.237-6.792l-1.142-1.224
	c-4.303-4.609-8.572-9.056-12.797-13.336c-4.226-4.28-8.409-8.394-12.544-12.336c-0.574-0.548-1.148-1.098-1.721-1.639
	c-1.754-1.657-3.497-3.282-5.232-4.875c-0.643-0.59-1.28-1.166-1.92-1.748c-1.743-1.584-3.484-3.159-5.206-4.676l-0.441-0.383
	c-3.543-3.115-7.03-6.062-10.474-8.886c-0.709-0.581-1.425-1.18-2.129-1.749c-1.417-1.145-2.817-2.241-4.216-3.334
	c-0.924-0.721-1.844-1.436-2.76-2.135c-1.32-1.009-2.633-1.998-3.935-2.958c-0.995-0.735-1.979-1.439-2.964-2.146
	c-1.225-0.879-2.454-1.769-3.66-2.603c-1.622-1.122-3.218-2.18-4.807-3.22c-1.36-0.891-2.7-1.734-4.036-2.565
	c-1.164-0.724-2.327-1.447-3.471-2.125c-0.992-0.588-1.969-1.141-2.945-1.694c-1.131-0.64-2.252-1.257-3.361-1.849
	c-0.919-0.49-1.836-0.977-2.739-1.434c-1.259-0.638-2.493-1.222-3.722-1.795c-0.714-0.333-1.442-0.694-2.147-1.005
	c-1.845-0.814-3.653-1.549-5.426-2.21c-0.63-0.235-1.236-0.423-1.857-0.638c-1.228-0.426-2.444-0.828-3.634-1.177
	c-0.685-0.202-1.359-0.38-2.031-0.554c-1.131-0.294-2.242-0.548-3.336-0.769c-0.612-0.123-1.228-0.255-1.828-0.355
	c-1.338-0.224-2.642-0.38-3.921-0.487l-0.919-0.099c-1.55-0.097-3.045-0.089-4.501-0.006l-1.293,0.131
	c-1.027,0.099-2.035,0.236-3.012,0.43c-0.48,0.095-0.951,0.205-1.419,0.323c-0.934,0.237-1.839,0.527-2.723,0.856l-1.197,0.449
	c-1.222,0.528-2.407,1.125-3.524,1.845l-0.026,0.013c-4.854,3.137-8.437,7.987-10.861,14.297c-0.318,0.829-0.585,1.724-0.863,2.604
	c-0.93,2.947-1.666,6.133-2.146,9.632c-3.336,24.351,4.089,61.631,20.565,106.376c1.384,3.761,2.834,7.576,4.345,11.439
	c19.65,50.221,49.906,108.773,88.478,168.459c2.837,4.39,5.694,8.707,8.559,12.988c2.383,3.559,4.771,7.095,7.164,10.603
	c0.003-0.013,0.006-0.025,0.009-0.038c15.533-70.63,37.443-139.522,65.495-205.761L918.052,290.506z"/>
<path style="fill:#008A75;" d="M851.474,501.22c-3.559-1.865-7.105-3.695-10.636-5.49l-0.03-0.015
	c-3.516-1.785-7.017-3.535-10.5-5.249l-0.09-0.044c-3.465-1.704-6.913-3.372-10.342-5.004l-0.143-0.068
	c-3.411-1.622-6.804-3.208-10.176-4.758l-0.192-0.089c-3.342-1.535-6.663-3.033-9.963-4.495l-0.31-0.138
	c-3.247-1.438-6.473-2.839-9.675-4.206l-0.491-0.209c-3.155-1.343-6.285-2.651-9.392-3.923l-0.578-0.237
	c-3.067-1.253-6.109-2.471-9.125-3.655l-0.706-0.276c-2.948-1.153-5.87-2.272-8.765-3.357l-0.952-0.355
	c-2.827-1.054-5.629-2.076-8.402-3.064l-1.046-0.371c-2.715-0.962-5.404-1.892-8.065-2.79l-1.249-0.417
	c-2.582-0.864-5.139-1.699-7.667-2.5c-0.469-0.149-0.933-0.294-1.401-0.44c-2.458-0.773-4.892-1.518-7.295-2.23
	c-0.52-0.154-1.035-0.302-1.553-0.453c-2.327-0.681-4.63-1.338-6.902-1.961c-0.573-0.157-1.137-0.306-1.706-0.46
	c-2.198-0.592-4.374-1.163-6.517-1.701c-0.611-0.153-1.212-0.297-1.819-0.446c-2.066-0.507-4.115-0.996-6.128-1.45
	c-0.664-0.15-1.314-0.287-1.972-0.431c-1.923-0.422-3.829-0.828-5.699-1.199c-0.711-0.142-1.404-0.267-2.106-0.402
	c-1.785-0.341-3.556-0.669-5.289-0.963c-0.746-0.127-1.472-0.235-2.209-0.353c-1.652-0.264-3.294-0.52-4.895-0.74
	c-0.766-0.105-1.509-0.19-2.263-0.285c-1.528-0.192-3.049-0.38-4.528-0.53c-0.787-0.08-1.545-0.137-2.318-0.205
	c-1.398-0.123-2.795-0.245-4.146-0.329c-0.798-0.05-1.562-0.073-2.343-0.109c-1.276-0.059-2.554-0.119-3.785-0.141
	c-0.798-0.014-1.56,0.001-2.339,0.003c-1.16,0.003-2.325,0-3.441,0.038c-0.789,0.026-1.536,0.084-2.302,0.128
	c-1.046,0.06-2.101,0.113-3.105,0.205c-0.777,0.072-1.509,0.18-2.262,0.271c-0.932,0.114-1.879,0.217-2.771,0.362
	c-0.753,0.121-1.454,0.282-2.177,0.426c-0.827,0.164-1.671,0.314-2.459,0.508c-0.725,0.178-1.392,0.396-2.083,0.598
	c-0.718,0.211-1.461,0.404-2.143,0.641c-0.691,0.24-1.32,0.525-1.973,0.792c-0.613,0.251-1.254,0.482-1.832,0.757
	c-0.651,0.31-1.234,0.669-1.841,1.01c-0.509,0.285-1.05,0.548-1.527,0.854c-0.611,0.393-1.147,0.839-1.706,1.268l-1.213,0.915
	c-0.596,0.521-1.109,1.097-1.635,1.664l-0.816,0.839c-0.738,0.89-1.399,1.832-1.976,2.83
	c-12.565,21.762,16.872,64.34,71.952,111.245c2.753,2.346,5.572,4.702,8.452,7.067c31.682,26.015,70.873,53.088,114.852,78.48
	c5.008,2.891,9.992,5.67,14.97,8.431v0c4.243-51.921,11.871-103.29,22.752-153.793L851.474,501.22z"/>
<path style="fill:#DE314E;" d="M1028.077,1416.022c-23.068-25.549-43.775-52.57-62.386-80.764c-1.645-2.492-3.227-5.019-4.838-7.531
	c1.626,2.543,3.201,5.113,4.866,7.635c1.09,3.606,1.69,7.427,1.69,11.388c0,14.919-8.316,55.386-20.565,79.221
	c-5.567,10.834-11.948,18.231-18.73,18.231c-3.391,0-6.682-1.849-9.82-5.053c-1.256-1.281-2.487-2.779-3.69-4.463
	c-0.602-0.842-1.197-1.729-1.785-2.659c-1.175-1.859-2.321-3.889-3.434-6.056c-1.671-3.25-3.268-6.81-4.781-10.572
	c-9.582-23.824-15.785-55.764-15.785-68.649c0-13.563,6.873-25.522,17.325-32.584c2.09-1.412,4.324-2.629,6.674-3.623
	c2.351-0.994,4.818-1.766,7.376-2.289c2.558-0.523,5.207-0.798,7.92-0.798c10.077,0,19.232,3.829,26.187,10.066l-0.011-0.02
	c-85.401-138.184-121.967-303.009-129.417-467.003l0,0c-7.096,21.433-16.847,40.074-27.611,40.074c-1.357,0-2.697-0.296-4.018-0.856
	c-13.21-5.601-24.486-37.623-30.534-64.377c-0.605-2.675-1.157-5.298-1.655-7.836c-0.498-2.539-0.939-4.993-1.322-7.331
	c-1.148-7.014-1.767-12.983-1.767-17.052c0-5.426,1.1-10.594,3.088-15.296c5.965-14.103,19.931-23.999,36.207-23.999
	c10.114,0,19.306,3.855,26.271,10.132c-0.03,2.23-0.022,4.467-0.043,6.699c0.02-2.221,0.061-4.436,0.092-6.654
	c0.388-28.67,1.524-57.175,3.394-85.344v0l-0.038,0.008c-15.266,2.488-30.066,5.24-44.396,8.252l-0.019,0.005
	c-12.525,2.634-24.691,5.468-36.498,8.501c-35.422,9.099-67.613,19.993-96.557,32.657l-0.57,0.251
	c-10.774,4.73-21.095,9.708-30.965,14.929l-0.841,0.447c-9.751,5.186-19.054,10.613-27.915,16.279l-0.932,0.595
	c-8.808,5.667-17.168,11.575-25.088,17.718l-0.818,0.63c-3.916,3.057-7.725,6.172-11.422,9.346l-0.61,0.532
	c-3.581,3.09-7.059,6.235-10.433,9.436l-0.545,0.509c-3.409,3.251-6.705,6.563-9.902,9.926l-1.054,1.127
	c-3.116,3.315-6.146,6.675-9.056,10.099l-0.128,0.146c-2.932,3.454-5.74,6.974-8.463,10.54c-0.401,0.525-0.796,1.053-1.192,1.581
	c-5.313,7.066-10.216,14.348-14.711,21.842c-0.385,0.64-0.768,1.283-1.147,1.927c-2.207,3.754-4.335,7.548-6.338,11.409
	l-0.124,0.247c-1.935,3.738-3.749,7.539-5.492,11.376c-0.324,0.714-0.653,1.426-0.971,2.143c-1.727,3.896-3.369,7.837-4.901,11.834
	c-0.186,0.483-0.354,0.974-0.536,1.46c-1.375,3.656-2.662,7.356-3.875,11.096c-0.238,0.734-0.486,1.463-0.718,2.2
	c-1.277,4.061-2.46,8.17-3.547,12.329c-0.197,0.753-0.376,1.515-0.566,2.27c-0.948,3.763-1.823,7.564-2.617,11.407
	c-0.137,0.663-0.289,1.32-0.422,1.986c-0.847,4.253-1.587,8.559-2.246,12.908c-0.142,0.942-0.271,1.89-0.404,2.836
	c-0.574,4.059-1.079,8.152-1.491,12.294l-0.149,1.368c-0.425,4.481-0.731,9.022-0.966,13.599c-0.054,1.051-0.1,2.105-0.144,3.161
	c-0.193,4.646-0.325,9.324-0.325,14.067c0,12.473,0.704,24.589,2.042,36.384h0h-0.001h0c0,0-2.329,104.693,43.423,228.172
	c0.808,2.181,1.629,4.365,2.467,6.558c1.856,4.853,3.788,9.733,5.797,14.634c2.434,5.937,4.989,11.903,7.656,17.894
	c1.669,3.747,3.385,7.501,5.149,11.263c4.011,8.555,8.24,17.139,12.764,25.734c7.331,13.929,15.358,27.877,24.145,41.731
	c3.691,5.82,7.548,11.617,11.513,17.397c1.431,2.086,2.879,4.167,4.346,6.247c4.145,5.872,8.405,11.721,12.848,17.525
	c16.888,22.068,36.011,43.574,57.562,64.07c4.923,4.682,9.931,9.328,15.115,13.898c6.97,6.142,14.179,12.177,21.636,18.091
	c7.457,5.914,15.161,11.707,23.122,17.364c19.224,13.663,37.12,27.698,53.823,41.969c46.771,39.962,84.197,81.789,115.295,122.564
	c2.221,2.912,4.41,5.82,6.568,8.721c34.525,46.41,61.061,91.173,84.109,129.93c1.44,2.423,2.867,4.821,4.282,7.196
	c38.187,64.108,67.237,110.339,108.761,117.755c1.522,0.271,3.012,0.489,4.474,0.655c0.499,0.057,0.977,0.074,1.47,0.119
	c0.949,0.086,1.902,0.181,2.826,0.223c0.566,0.026,1.109,0.009,1.665,0.019c0.826,0.013,1.658,0.04,2.464,0.018
	c0.574-0.017,1.126-0.074,1.691-0.108c0.761-0.045,1.53-0.077,2.275-0.156c0.566-0.059,1.112-0.158,1.668-0.236
	c0.717-0.101,1.441-0.189,2.142-0.32c0.553-0.103,1.087-0.244,1.631-0.366c0.679-0.153,1.364-0.294,2.029-0.476
	c0.536-0.147,1.055-0.328,1.581-0.493c0.65-0.204,1.305-0.398,1.941-0.631c0.515-0.187,1.015-0.408,1.521-0.615
	c0.624-0.254,1.253-0.5,1.864-0.782c0.498-0.229,0.981-0.489,1.471-0.737c0.599-0.303,1.201-0.599,1.788-0.928
	c0.473-0.266,0.933-0.558,1.399-0.842c0.585-0.355,1.172-0.705,1.746-1.088l1.32-0.933c0.573-0.409,1.147-0.815,1.708-1.25
	l1.253-1.024c0.562-0.463,1.124-0.924,1.674-1.413l1.179-1.097c0.552-0.518,1.104-1.036,1.645-1.58l1.118-1.17
	c0.543-0.573,1.085-1.149,1.618-1.748l1.05-1.223c0.539-0.633,1.077-1.271,1.607-1.932l0.975-1.253
	c0.539-0.698,1.076-1.402,1.605-2.129l0.899-1.265c0.543-0.77,1.084-1.547,1.617-2.347l0.814-1.244
	c0.552-0.851,1.102-1.712,1.646-2.594l0.719-1.186c0.567-0.941,1.13-1.894,1.689-2.869l0.624-1.105
	c0.582-1.036,1.162-2.087,1.736-3.16l0.531-1c0.608-1.151,1.212-2.319,1.813-3.51l0.39-0.779c0.648-1.296,1.291-2.613,1.931-3.952
	l0.239-0.502c0.692-1.458,1.381-2.94,2.067-4.447l0.073-0.162c29.3-64.529,53.37-173.593,148.038-257.058l0.036-0.032
	C1207.36,1574.062,1108.834,1505.463,1028.077,1416.022z M552.948,1255.587c-21.702,0-39.295-75.75-39.295-97.451
	c0-21.701,17.592-39.295,39.295-39.295c21.702,0,39.295,17.593,39.295,39.295C592.242,1179.837,574.65,1255.587,552.948,1255.587z
	 M666.408,1444.203c-21.702,0-39.295-75.751-39.295-97.452c0-21.702,17.593-39.295,39.295-39.295
	c21.702,0,39.295,17.593,39.295,39.295C705.703,1368.453,688.111,1444.203,666.408,1444.203z M666.408,1079.189
	c-21.702,0-39.295-75.75-39.295-97.452c0-21.702,17.593-39.295,39.295-39.295c21.702,0,39.295,17.593,39.295,39.295
	C705.703,1003.44,688.111,1079.189,666.408,1079.189z M797.261,1255.587c-21.702,0-39.295-75.75-39.295-97.451
	c0-21.701,17.593-39.295,39.295-39.295c21.702,0,39.295,17.593,39.295,39.295C836.556,1179.837,818.963,1255.587,797.261,1255.587z
	 M1058.965,1641.518c-22.572,0-40.871-78.787-40.871-101.359c0-22.572,18.298-40.871,40.871-40.871
	c22.572,0,40.871,18.299,40.871,40.871C1099.836,1562.731,1081.537,1641.518,1058.965,1641.518z"/>
<path style="fill:#A31B34;" d="M666.408,942.443c-21.702,0-39.295,17.593-39.295,39.295c0,21.702,17.593,97.452,39.295,97.452
	c21.702,0,39.295-75.75,39.295-97.452C705.703,960.036,688.111,942.443,666.408,942.443z"/>
<path style="fill:#A31B34;" d="M824.056,828.294c-0.14-4.671-0.225-9.337-0.321-14.004c-0.065-3.274-0.142-6.548-0.186-9.82
	c-0.052-3.799-0.07-7.592-0.093-11.387c-0.024-4.235-0.042-8.47-0.03-12.7c0.008-3.244,0.032-6.486,0.061-9.726
	c0.02-2.232,0.012-4.469,0.043-6.699c-6.965-6.277-16.156-10.132-26.271-10.132c-16.276,0-30.242,9.896-36.207,23.999
	c-1.989,4.702-3.088,9.87-3.088,15.296c0,4.069,0.619,10.038,1.767,17.052c0.383,2.338,0.824,4.792,1.322,7.331
	c0.497,2.537,1.05,5.161,1.655,7.836c6.049,26.754,17.324,58.775,30.534,64.377c1.321,0.56,2.661,0.856,4.018,0.856
	c10.764,0,20.514-18.641,27.611-40.074l0.008-0.022l0.009-0.026c0-0.001,0-0.001,0-0.002c-0.275-6.051-0.489-12.099-0.688-18.147
	C824.158,830.966,824.096,829.629,824.056,828.294z"/>
<path style="fill:#A31B34;" d="M666.408,1307.456c-21.702,0-39.295,17.593-39.295,39.295c0,21.701,17.593,97.452,39.295,97.452
	c21.702,0,39.295-75.751,39.295-97.452C705.703,1325.049,688.111,1307.456,666.408,1307.456z"/>
<path style="fill:#A31B34;" d="M928.113,1307.456c-2.713,0-5.362,0.275-7.92,0.798c-2.558,0.523-5.025,1.295-7.376,2.289
	c-2.35,0.994-4.584,2.211-6.674,3.623c-10.453,7.062-17.325,19.021-17.325,32.584c0,12.885,6.202,44.826,15.785,68.649
	c1.513,3.762,3.11,7.321,4.781,10.572c1.113,2.167,2.26,4.197,3.434,6.056c0.588,0.93,1.183,1.818,1.785,2.659
	c1.203,1.683,2.435,3.182,3.69,4.463c3.139,3.204,6.429,5.053,9.82,5.053c6.782,0,13.163-7.397,18.73-18.231
	c12.25-23.835,20.565-64.302,20.565-79.221c0-3.961-0.6-7.782-1.69-11.388c-1.665-2.522-3.24-5.092-4.866-7.635
	c-2.148-3.359-4.333-6.701-6.43-10.088c-0.007-0.012-0.014-0.022-0.021-0.034l-0.06-0.05l-0.04-0.032
	C947.345,1311.285,938.19,1307.456,928.113,1307.456z"/>
<path style="fill:#A31B34;" d="M797.261,1118.841c-21.702,0-39.295,17.593-39.295,39.295c0,21.702,17.593,97.451,39.295,97.451
	c21.702,0,39.295-75.75,39.295-97.451C836.556,1136.434,818.963,1118.841,797.261,1118.841z"/>
<path style="fill:#A31B34;" d="M552.948,1118.841c-21.702,0-39.295,17.593-39.295,39.295c0,21.702,17.592,97.451,39.295,97.451
	c21.702,0,39.295-75.75,39.295-97.451C592.242,1136.434,574.65,1118.841,552.948,1118.841z"/>
<path style="fill:#A31B34;" d="M1058.965,1499.288c-22.572,0-40.871,18.299-40.871,40.871c0,22.572,18.298,101.359,40.871,101.359
	c22.572,0,40.871-78.787,40.871-101.359C1099.836,1517.587,1081.537,1499.288,1058.965,1499.288z"/>
<path style="fill:#63BA8A;" d="M1302.114,348.904c26.535-8.443,41.2-36.799,32.756-63.333c-1.938-6.09-4.964-11.518-8.736-16.222
	c1.103-0.228,2.204-0.511,3.301-0.86c17.1-5.442,26.551-23.715,21.111-40.815c-5.442-17.1-23.715-26.551-40.815-21.11
	c-17.1,5.441-26.552,23.715-21.111,40.814c0.349,1.097,0.754,2.16,1.205,3.193c-6.019-0.361-12.198,0.306-18.288,2.243
	c-26.535,8.444-41.2,36.799-32.757,63.333C1247.224,342.681,1275.579,357.346,1302.114,348.904z"/>
</svg>
